<?xml version="1.0" encoding="utf-8"?>
<!-- Generator: Adobe Illustrator 16.0.0, SVG Export Plug-In . SVG Version: 6.00 Build 0)  -->
<!DOCTYPE svg PUBLIC "-//W3C//DTD SVG 1.1//EN" "http://www.w3.org/Graphics/SVG/1.1/DTD/svg11.dtd">
<svg version="1.1" id="Layer_1" xmlns="http://www.w3.org/2000/svg" xmlns:xlink="http://www.w3.org/1999/xlink" x="0px" y="0px"
	 width="88px" height="118.86px" viewBox="0 0 88 118.86" enable-background="new 0 0 88 118.86" xml:space="preserve">
<g>
	<path fill="#FFFFFF" d="M-35.81,91.544c0.062-0.195-0.228-0.694-0.078-0.868c-0.023-0.294-0.209-0.508-0.216-0.862
		c-0.399-0.26-0.387-0.94-0.82-1.234c-0.247-0.641-0.905-1.395-1.362-2.047c-0.136-0.478-0.764-0.746-0.815-1.272
		c-0.948-1.396-1.666-2.36-2.497-3.921c0.359-0.416,0.64-0.897,1.073-1.245c-0.02-0.088,0.06-0.083,0.023-0.186
		c0.485-0.493,0.843-1.106,1.195-1.722c0.036,0,0.074-0.002,0.11-0.003c0-0.261,0.237-0.379,0.373-0.635
		c0.019-0.036-0.026-0.101-0.008-0.144c0.056-0.122,0.194-0.215,0.275-0.376c-0.005,0.009-0.053-0.036-0.042-0.07
		c0.277-0.653,0.905-1.714,0.947-2.402c0.022-0.298,0.321-0.661,0.217-0.917c0.142-0.084-0.013-0.322,0.159-0.442
		c-0.05-0.361,0.163-0.967,0.016-1.309c0.214-0.283-0.028-0.434,0.149-0.768c-0.07-0.099-0.123,0-0.183-0.065
		c0.038-0.033,0.094-0.053,0.176-0.046c-0.124-0.155-0.044-0.532-0.172-0.681c0.13-0.01,0.117-0.253,0.029-0.146
		c0.088-0.477,0.04-1.366-0.079-1.776c-0.117-0.141-0.379-0.121-0.482-0.269c-0.59,0.05-0.858-0.78-1.203-0.891
		c0.041-0.311-0.192-0.65-0.112-0.943c-0.173-0.036-0.238-0.192-0.345-0.31c-0.083,0.014-0.145,0.051-0.211,0.084
		c-0.359-0.143-0.763-0.601-1.11-0.499c-0.087,0.028-0.348,0.253-0.42,0.383c0.006-0.015,0.075,0.017,0.072,0.032
		c-0.005,0.084-0.09-0.006-0.1,0.116c-0.023,0.182-0.246,0.527-0.415,0.523c-0.359-0.001-0.064-0.366-0.315-0.528
		c0.161,0.004-0.015-0.292,0.133-0.298c-0.088,0.009-0.152-0.01-0.186-0.063c0.169-0.408-0.351-0.726-0.547-0.885
		c0.024-0.153-0.054-0.196-0.12-0.25c-0.121,0.381-0.505,0.33-1.107,0.377c-0.222,0.494-0.708,1.033-1.104,1.356
		c-0.024,0.107,0.222,0.107,0.115,0.176c-0.317-0.247-0.309,0.348-0.601,0.352c0,0.166-0.085,0.085-0.024,0.258
		c-0.097-0.096-0.278,0.129-0.141,0.151c-0.205,0.04-0.278,0.319-0.307,0.411c-0.121,0.031-0.243,0.285-0.274,0.413
		c-0.048,0.003-0.076,0.02-0.104,0.042c-0.181,0.468-0.598,0.887-0.708,1.303c-0.13,0.139-0.233,0.296-0.267,0.519
		c-0.391,0.386-0.526,1.006-0.96,1.351c-0.379,0.737-1.047,1.217-1.476,1.917c-0.994,0.77-1.702,1.804-2.72,2.552
		c-0.157,0.391-0.588,0.422-0.728,0.761c-0.106-0.005-0.065,0.124-0.219,0.081c-0.076,0.057,0.052,0.084-0.029,0.109
		c-0.483,0.184-0.834,0.607-1.268,0.855c-0.205,0.117-0.476,0.136-0.682,0.248c-0.206,0.117-0.363,0.289-0.564,0.387
		c-0.804,0.394-1.643,0.812-2.495,1.091c-0.464,0.383-1.099,0.692-1.777,0.878c-1,0.683-2.608,1.077-3.858,1.441
		c-0.546,0.069-1.167,0.216-1.693,0.292c-1.773,0.259-3.654,0.838-5.548,1.043c-0.178,0.02-0.363-0.035-0.545-0.013
		c-0.729,0.087-1.443,0.28-2.165,0.349c-0.721,0.072-1.541-0.188-2.394,0.068c-0.219-0.133-0.741-0.048-1.162-0.021
		c-0.29,0.021-0.599-0.02-0.909,0.003c-0.846,0.068-1.658,0.253-2.422,0.216c-0.382-0.016-0.701-0.151-1.093-0.061
		c-0.206-0.201-0.685-0.132-0.955-0.211c-0.014-0.004-0.034-0.107-0.042-0.107c-0.221-0.052-0.523-0.015-0.803-0.074
		c-0.153-0.034-0.291-0.134-0.438-0.162c-0.657-0.111-1.321-0.054-1.811,0.152c-0.232,0.097-0.541,0.008-0.757,0.106
		c-0.117,0.054-0.189,0.184-0.283,0.23c-0.337,0.171-0.532,0.26-0.59,0.609c-0.021,0.141,0.062,0.313,0.058,0.466
		c-0.126,0.095-0.094,0.164-0.094,0.406c-0.057,0-0.087,0.031-0.103,0.076c0.169,0.042-0.028,0.186,0.011,0.252
		c0.316,0.224-0.081,0.66,0.104,0.723c-0.077,0.206-0.097,0.352-0.087,0.514c-0.229-0.024-0.188,0.197-0.425,0.163
		c-0.169,0.304-0.661,0.597-0.322,0.959c0.127,0.049,0.249,0.109,0.336,0.205c-0.014,0.196-0.158,0.419-0.34,0.558
		c-0.005,0.255,0.089,0.404,0.141,0.686c0.245,0.139,0.441,0.187,0.769,0.182c0.019,0.215-0.19,0.477-0.228,0.665
		c-0.042,0.236,0.144,0.61,0.144,0.794c-0.148,0.172,0.111,0.565-0.148,0.659c0.139,0.271-0.103,0.453-0.118,0.622
		c-0.018,0.153,0.173,0.318-0.018,0.437c0.3,0.296,0.676,0.378,1.148,0.532c0.688,0.221,1.479,0.373,2.024,0.6
		c-0.019,0.501-0.179,1.137-0.108,1.64c-0.159,0.021,0.01,0.023,0.001,0.073c0,0.002-0.071-0.002-0.075,0.002
		c-0.046,0.273,0.016,0.614-0.027,0.981c-0.001,0.007-0.071-0.03-0.071-0.03c-0.071,0.227-0.145,0.714-0.105,0.983
		c0.004,0.018,0.078-0.012,0.073,0.034c-0.023,0.344-0.275,0.717-0.061,1.018c-0.194,0.027-0.102,0.324-0.052,0.512
		c-0.061,0-0.092,0.03-0.105,0.076c0.214-0.029-0.07,0.175,0.157,0.213c-0.052,0-0.099,0.003-0.148,0.005
		c-0.103,0.78-0.085,1.813-0.275,2.772c0.13,0.023-0.048,0.145,0.083,0.249c-0.014,0.009-0.074-0.034-0.075-0.031
		c-0.129,0.516-0.189,1.513-0.097,1.928c-0.118,0.187,0.107,0.615-0.039,0.728c0.08,0.031-0.007,0.358,0.092,0.433
		c0.097-0.067-0.021-0.142,0.101-0.15c0.038,0.137-0.101,0.116-0.097,0.223c0.357,0.009,0.438,0.455,0.499,0.668
		c0.611,0.035,0.204,0.714,0.453,1.213c-0.015-0.057,0.045-0.1,0.073-0.039c-0.014,0.098-0.149,0.173-0.062,0.258
		c0.378-0.183,0.23-0.644,0.734-0.687c-0.065,0.185,0.051,0.099,0.079,0.249c-0.151,0.294,0.008,0.857,0.019,1.235
		c-0.16,0.118-0.23,0.504,0.026,0.543c0.284-0.448,0.482-0.905,0.887-1.309c0.206,0.026,0.37-0.191,0.506-0.022
		c-0.119,0.112,0.059,0.099,0.079,0.178c0.061,0.201-0.113,0.491,0.103,0.649c-0.053,0.632,0.867,0.401,0.914,0.177
		c0.456,0.267,0.687-0.451,1.067-0.483c0.462-0.034,0.531,0.616,0.897,0.543c-0.1,0.01-0.128-0.05-0.077-0.106
		c0.156,0.065,0.257-0.047,0.364-0.051c-0.042,0-0.051-0.062-0.005-0.071c0.099,0.052,0.127,0.019,0.033-0.04
		c0.237,0.08,0.318-0.134,0.425-0.272c0.005-0.098-0.204,0.041-0.15-0.103c0.138-0.051,0.221-0.182,0.217-0.011
		c0.105-0.143,0.457-0.019,0.503-0.132c0.211,0.246,0.433,0.161,0.597,0.338c0.173-0.131,0.229,0.078,0.281-0.159
		c-0.01,0.159,0.101,0.043,0.115,0.105c-0.136,0.086,0.037,0.055,0.079,0.142c0.19-0.022,0.476-0.178,0.508-0.446
		c-0.006,0.01-0.008,0.017,0.017,0.023c-0.009-0.126,0.19-0.257,0.238-0.372c-0.002,0.007-0.076-0.012-0.072-0.036
		c0.016-0.112,0.137-0.273,0.168-0.335c0.037-0.08-0.009-0.191,0.021-0.289c0.225-0.698,0.586-1.521,0.6-2.061
		c0.053-0.005,0.081,0.015,0.112,0.031c-0.005-0.086-0.068-0.102-0.046-0.215c0.163-0.41,0.29-0.858,0.271-1.245
		c-0.006-0.112-0.094-0.445-0.094-0.542c-0.006-0.708,0.08-1.307,0.236-2.011c0.142,0.006-0.035,0.129,0.113,0.104
		c0.061-0.258,0.061-0.444-0.209-0.57c-0.01-0.646,0.152-1.364,0.026-1.926c0.155-0.132,0.07-0.337,0.048-0.583
		c0.046-0.001,0.078-0.021,0.103-0.041c-0.051-0.936,0.191-2.09,0.195-3.133c0-0.147,0.053-0.364,0.118-0.551
		c1.631-0.018,3.021-0.125,4.464-0.122c0.196,0,0.415-0.018,0.615-0.028c0.762-0.042,1.721-0.153,2.352-0.248
		c0.19,0.661,0.288,1.545,0.569,2.226c0.033,0.682,0.284,1.237,0.364,1.763c0.041,0.071,0.139,0.078,0.187,0.137
		c-0.098,0.029-0.079,0.012-0.14,0.117c0.577,1.846,1.06,3.705,1.384,5.785c0.426,0.998,0.369,2.159,0.795,3.199
		c-0.01,0.026-0.029,0.043-0.071,0.038c0.042,0.167,0.2,0.294,0.132,0.54c0.406,0.596,0.326,1.458,0.667,1.969
		c0.107,0.395,0.271,0.888,0.844,0.979c0.052-0.045,0.084-0.109,0.174-0.116c-0.053-0.169,0.054-0.319,0.243-0.264
		c-0.028,0.337,0.418,0.506,0.324,0.674c0.462-0.232,0.319-0.8,0.421-1.107c0.146,0.004,0.167,0.146,0.083,0.214
		c0.347,0.078,0.383,0.917,0.904,0.794c0.008-0.159,0.271-0.258,0.166-0.406c0,0.038-0.062,0.049-0.072,0.003
		c0.253-0.143-0.046-0.364,0.233-0.445c0.071,0.123,0.173,0.218,0.23,0.353c0.092-0.034,0.195-0.056,0.325-0.05
		c0.243,0.254,0.286,0.89,0.654,0.877c-0.136,0-0.009,0.031-0.028,0.111c0.201-0.023,0.325-0.121,0.54-0.133
		c0.151-0.431,0.744-0.451,1.168-0.632c0.052,0.142,0.183-0.025,0.297,0.06c0.182-0.109,0.235-0.34,0.375-0.489
		c0.116,0.001,0.162,0.078,0.294,0.061c0.018-0.054-0.052-0.187,0.026-0.182c0.067,0.029,0.08,0.144,0.15,0.066
		c0.106-0.026-0.057-0.055-0.037-0.109c0.241-0.059,0.196-0.201,0.387-0.273c0.032-0.312-0.033-0.457,0.224-0.625
		c0.313-0.023,0.527,0.194,0.807,0.147c0.154-0.028,0.261-0.237,0.458-0.275c0.195-0.037,0.256,0.084,0.476,0.052
		c0.127-0.309,0.085-0.361,0.263-0.63c-0.094-0.464,0.121-0.774-0.122-1.12c0.157,0.003,0.107-0.179,0.284-0.159
		c-0.06,0.103,0.132,0.192,0.229,0.244c0.029-0.054,0.113-0.057,0.177-0.078c-0.019-0.708-0.46-1.421-0.376-1.981
		c-0.226-0.229-0.104-0.673-0.285-0.788c0.112-0.299-0.296-0.606-0.113-0.903c-0.066,0.007-0.098-0.023-0.115-0.067
		c-0.322-0.868-0.747-1.99-0.9-3.083c-0.425-1.059-0.462-1.911-0.893-2.976c-0.06,0.003-0.12,0.005-0.18,0.008
		c-0.566-1.714-1.322-4.238-1.676-5.883c0.404-0.128,0.824-0.327,1.362-0.422c0.004-0.044-0.011-0.103,0.032-0.11
		c2.342-0.692,4.35-1.697,6.518-2.865c0.33,0.343,0.47,0.78,0.816,1.162c0,0.046-0.042,0.052-0.032,0.11
		c0.349,0.266,0.434,0.819,0.737,1.128c0.392,0.722,0.698,1.296,1.142,1.948c0.123,0.551,0.592,0.92,0.681,1.385
		c0.296,0.155,0.272,0.666,0.616,0.774c-0.047,0.009-0.037,0.06-0.036,0.11c0.28,0.325,0.656,0.44,0.834,0.798
		c0.316,0.208,0.63,0.179,0.891,0.433c0.351-0.017,0.412-0.295,0.524-0.532c0.441,0.251,0.665,0.703,1.115,0.569
		c-0.033-0.157-0.226-0.135-0.304-0.241c-0.053,0.044-0.048,0.138-0.099,0.187c-0.033-0.146,0.108-0.131,0.057-0.293
		c-0.113,0.018-0.416-0.139-0.308-0.35c0.041-0.003,0.046-0.032,0.07-0.04c0.03,0.121,0.166,0.13,0.231,0.207
		c0.126-0.069,0.234-0.156,0.352-0.232c0.112,0.114,0.25,0.047,0.368,0.129c0.173,0.12,0.26,0.551,0.424,0.453
		c-0.074,0.078-0.008,0.096,0.038,0.143c0.152,0.013-0.038-0.094,0.103-0.111c0.013,0.052-0.006,0.134,0.046,0.141
		c0.159-0.125,0.377,0.063,0.543-0.059c-0.099-0.098-0.212-0.174-0.305-0.275c0.084,0.026,0.099,0.026,0.183-0.009
		c0.014-0.242,0.136-0.321,0.341-0.452c0.134,0.035,0.209,0.128,0.265,0.243c0.113-0.063,0.191-0.019,0.226,0.1
		c0.13-0.049,0.204-0.042,0.289-0.013c0.032-0.139-0.142-0.053-0.117-0.178c0.084-0.003,0.11,0.058,0.22,0.028
		c-0.052-0.108,0.021-0.197-0.052-0.326c0.177-0.216,0.078-0.526,0.294-0.74c0.014-0.119-0.019-0.181-0.081-0.215
		c0.179-0.104,0.086-0.307,0.192-0.514c0.192,0.164,0.135,0.083,0.369,0.054c-0.044,0.058-0.039,0.096,0.005,0.147
		c0.187-0.015,0.322-0.02,0.4-0.055c-0.094-0.05-0.177-0.117-0.195-0.244c0.304,0.044,0.372-0.168,0.724-0.071
		c0.06-0.336,0.283-0.346,0.111-0.765c0.284-0.05,0.887-0.064,1.265-0.13c0.087-0.2,0.351-0.375,0.562-0.424
		C-36.005,91.554-35.836,91.614-35.81,91.544z M-38.747,67.777c0.036,0.062,0.131,0.059,0.187,0.1c0,0.091-0.062,0.116,0.009,0.181
		c0.033,0.005-0.064-0.004-0.216,0.047c0.066-0.17-0.096-0.165,0.023-0.256c-0.008-0.066-0.119-0.018-0.144-0.066
		C-38.883,67.736-38.645,67.759-38.747,67.777z"/>
	<path fill="#FFFFFF" d="M-43.526,57.282c-0.014,0.013-0.03,0.023-0.046,0.037c0.136,0.002,0.271,0.004,0.405,0.005
		c-0.036-0.008-0.069-0.022-0.105-0.033C-43.361,57.286-43.446,57.284-43.526,57.282z"/>
	<path fill="#FFFFFF" d="M-47.193,46.433c-0.007-0.011-0.01-0.018-0.019-0.03C-47.294,46.412-47.276,46.422-47.193,46.433z"/>
	<path fill="#FFFFFF" d="M-47.047,46.444c-0.062-0.004-0.112-0.008-0.146-0.011C-47.142,46.509-47.126,46.473-47.047,46.444z"/>
	<path fill="#FFFFFF" d="M-43.26,46.3c-0.332,0.078-0.868,0.173-1.23,0.019c-0.724,0.246-1.749-0.039-2.501,0.111
		c-0.023,0.002-0.042,0.009-0.056,0.014c0.578,0.037,2.184,0.071,3.507,0.092c0.155-0.003,0.312-0.003,0.467-0.004
		C-43.102,46.42-43.186,46.364-43.26,46.3z"/>
	<path fill="#FFFFFF" d="M-41.641,46.547c-0.456-0.017-0.942-0.02-1.433-0.016c0,0.004,0.005,0.007,0.005,0.01
		C-42.084,46.555-41.388,46.558-41.641,46.547z"/>
	<path fill="#FFFFFF" d="M-43.679,57.36c0.051,0.001,0.078-0.017,0.106-0.041c-0.178-0.003-0.359-0.01-0.537-0.013
		C-44.028,57.319-43.89,57.337-43.679,57.36z"/>
	<path fill="#FFFFFF" d="M-87.964,78.369c-0.018,0.244,0.192,0.3,0.38,0.419c-0.062,0-0.09,0.032-0.104,0.076
		c0.661,0.168,1.38,0.314,2.047,0.273c0.598,0.224,1.484,0.187,2.078,0.199c0.49,0.012,0.979,0.067,1.417,0.046
		c0.325-0.013,0.631-0.084,0.941-0.077c0.165,0.005,0.322,0.082,0.476,0.089c1.661,0.048,3.122-0.408,5.096-0.625
		c0.033-0.05,0.117-0.053,0.14-0.115c-0.018,0.158,0.254,0.002,0.294,0.097c0.956-0.269,1.988-0.256,2.809-0.56
		c0.01,0.103,0.153,0.06,0.257,0.061c0.9-0.134,1.629-0.295,2.306-0.428c0.186-0.036,0.741-0.152,0.866-0.147
		c0.467,0.017,1.129-0.177,1.551-0.213c0.167-0.014,0.413,0.059,0.395-0.09c0.406,0.032,1.251-0.105,1.588-0.217
		c0.122,0.113,0.236,0.005,0.363-0.014c0.557-0.08,1.312-0.087,1.834-0.372c0.22-0.04,0.345-0.009,0.611-0.135
		c-0.034,0.001-0.047-0.061,0-0.073c0.106,0.156,0.428-0.062,0.541-0.13c1.46-0.235,2.121-1.407,3.597-1.577
		c0.004-0.053-0.018-0.134,0.032-0.146c0.057,0.069,0.225,0.133,0.216,0.028c0.032,0.065,0.111,0.019,0.045,0.106
		c0.271-0.164,0.548-0.098,0.822-0.218c0.271-0.252,0.76-0.443,1.167-0.742c-0.052-0.006-0.044-0.076-0.076-0.104
		c0.103,0,0.065,0.152,0.187,0.137c0.095-0.063,0.261-0.22,0.249-0.084c0.017-0.042,0.035-0.083,0.068-0.11
		c0.647-0.194,1.13-0.754,1.844-0.991c0.199-0.601,0.544-0.88,0.85-1.345c-0.089-0.028,0.078-0.111,0.026-0.219
		c0.159-0.04,0.192-0.196,0.202-0.373c0.354-0.337,0.504-0.836,0.782-1.232c0.155-0.221,0.452-0.47,0.406-0.709
		c0.051,0.013,0.062,0.041,0.109-0.005c-0.015-0.217,0.217-0.218,0.195-0.444c0.264-0.381,0.606-0.737,0.894-1.128
		c0.188-0.254,0.548-0.716,0.579-0.933c0.374-0.275,0.622-0.668,0.752-1.05c0.167-0.495,0.746-1.095,0.658-1.556
		c0.125-0.194,0.075-0.549,0.148-0.805c0.027-0.104,0.135-0.189,0.164-0.299c0.051-0.173,0-0.399,0.051-0.582
		c0.001-0.023,0.093-0.047,0.104-0.078c0.098-0.226,0.056-0.475,0.078-0.73c0.318-1.075,0.206-2.654,0.55-3.946
		c1.146-0.052,2.207-0.015,3.271,0.01c-0.273-0.044,0.076-0.041,0.583-0.024c0.024-0.02,0.049-0.04,0.095-0.042
		c0.052,0.022,0.105,0.033,0.159,0.051c0.311,0.011,0.64,0.025,0.914,0.034c0.042,0,0.092,0,0.14,0
		c-0.024,0-0.041-0.039-0.004-0.036c0.715,0.063,0.42,0.058-0.136,0.036c-0.271,0.003-0.537,0.003-0.809-0.001
		c0.729,0.183,1.574-0.002,2.202-0.119c0.085-0.091-0.092-0.094-0.046-0.251c0.271-0.072,0.489,0.055,0.644-0.21
		c0.14-0.235-0.022-0.45,0.229-0.593c0.141-0.079,0.602-0.101,0.723-0.066c0.046-0.086,0.142-0.127,0.099-0.297
		c-0.205-0.132-0.397-0.275-0.637-0.37c-0.068-0.188-0.046-0.354,0.053-0.438c0.2-0.024,0.415-0.038,0.426-0.235
		c-0.141-0.177-0.454-0.162-0.49-0.452c0.163-0.006,0.255,0.11,0.4,0.019c-0.381-0.567,0.107-0.914,0.578-0.826
		c0.457-0.58-0.08-0.751-0.307-1.185c0.065-0.012,0.079-0.066,0.069-0.147c-0.162-0.181-0.303-0.381-0.461-0.562
		c0.245-0.037,0.06-0.419,0.041-0.618c0.131-0.013,0.163-0.108,0.252-0.157c0.052-0.13-0.126-0.014-0.112-0.103
		c-0.037-0.42-0.304-0.583-0.546-0.776c-0.215,0.044-0.35-0.03-0.551-0.157c-0.401-0.046-0.615,0.192-0.835,0
		c0.043-0.008,0.037-0.057,0.032-0.11c0.341,0.032,0.573-0.162,0.798-0.035c0.104-0.11,0.197-0.236,0.347-0.307
		c-0.182-0.339,0.172-0.372,0.157-0.659c-0.11-0.061-0.181-0.163-0.232-0.281c0.08-0.111,0.169-0.217,0.2-0.373
		c-0.172-0.19-0.377-0.349-0.601-0.482c-0.084,0.004-0.169,0.007-0.254,0.011c-0.217-0.219-0.819-0.017-0.956-0.321
		c0.211-0.084,0.532-0.066,0.603-0.28c-0.451-0.219-1.101-0.299-1.726-0.396c0-0.002-0.001-0.002-0.001-0.005
		c-0.152-0.002-0.312-0.004-0.472-0.006c-0.9,0.009-1.791,0.016-2.533-0.046c-0.48,0.037-1.081,0.216-1.777,0.078
		c-0.134-0.406-0.07-0.8-0.124-1.193c-0.01-0.054-0.105-0.09-0.114-0.14c-0.032-0.142-0.037-0.35-0.06-0.506
		c-0.113-0.792-0.267-1.717-0.481-2.667c-0.05-0.221-0.274-0.566-0.173-0.683c-0.119-0.062-0.121-0.249-0.131-0.43
		c-0.34-0.688-0.391-1.265-0.854-2.068c0.108-0.049-0.061-0.137,0.029-0.183c-0.053-0.086-0.132,0.046-0.149-0.029
		c0.112-0.09-0.037-0.436-0.2-0.464c0.094-0.174-0.066-0.431-0.202-0.5c0.075-0.079-0.041-0.116,0.024-0.182
		c-0.173,0.027-0.112-0.205-0.158-0.321c-0.047,0.004-0.094,0.005-0.142,0.007c0.014-0.217-0.092-0.496-0.28-0.57
		c-0.251-0.675-0.82-1.267-1.276-1.759c0.01-0.17-0.173-0.209-0.233-0.281c-0.095-0.121-0.126-0.299-0.232-0.425
		c-0.23-0.265-0.649-0.59-0.902-0.76c-0.26-0.167-0.503-0.506-0.798-0.69c-0.176-0.109-0.367-0.068-0.409-0.272
		c-0.062,0.002-0.123,0.005-0.184,0.007c0.015-0.174-0.231-0.072-0.265-0.279c-0.471-0.133-0.846-0.452-1.266-0.633
		c-0.331-0.147-0.88-0.279-1.104-0.388c-0.304-0.147-0.762-0.24-1.073-0.462c-0.742-0.031-1.745-0.552-2.569-0.613
		c-0.324-0.178-0.845-0.304-1.178-0.346c-0.838-0.262-1.609-0.564-2.464-0.656c-0.35-0.21-0.769-0.279-1.175-0.309
		c-1.506-0.562-3.21-0.677-4.764-0.99c-0.289,0.127-0.518-0.079-0.871,0.003c0.028-0.642-0.127-1.596-0.023-2.144
		c0.069-0.351,0.01-0.982,0.01-1.454c0-0.303,0.004-0.562-0.034-0.762c-0.022-0.097,0.066-0.194,0.061-0.291
		c-0.013-0.176-0.083-0.354-0.098-0.541c-0.068-0.762-0.206-1.379-0.13-2.065c-0.195-0.064-0.022-0.374-0.164-0.5
		c-0.009-0.145,0.064-0.221,0.057-0.368c-0.187-0.486-0.047-1.099-0.113-1.736c-0.031-0.304-0.06-0.592-0.087-0.879
		c0.009,0.001,0.014,0.002,0.021,0.003c0.015-0.629,0.006-1.263-0.035-1.929c-0.01-0.156,0.046-0.36,0.041-0.423
		c0-0.021-0.102-0.058-0.111-0.083c-0.07-0.36,0.105-0.793,0.05-1.127c-0.003-0.014-0.07,0-0.073-0.057
		c-0.023-0.622-0.062-1.187-0.058-1.802c-0.087-0.036-0.102-0.126-0.147-0.197c0.03-0.53-0.159-1.216-0.276-1.664
		c0.021-0.326-0.121-0.682-0.253-0.904c0.054-0.567-0.181-1.178-0.13-1.688c-0.312-0.369-0.119-1.016-0.43-1.412
		c0.006-0.244-0.144-0.434-0.033-0.676c-0.044-0.015-0.082-0.031-0.11-0.058c-0.042-0.694-0.439-1.301-0.354-1.833
		c-0.033-0.031-0.132-0.012-0.107-0.086c0.12-0.582-0.223-0.939-0.244-1.494c-0.17-0.011-0.158-0.214-0.147-0.282
		c-0.303-0.07-0.48-0.359-0.662-0.428c0.069-0.05-0.027-0.072,0.003-0.168c-0.564-0.406-1.097-0.136-1.622-0.525
		c-0.02,0.051-0.02,0.119-0.075,0.142c-0.405-0.061-0.864,0.009-1.186,0.099C-78.23,0.331-78.319,0.177-78.386,0
		c-0.321,0.092-0.708-0.038-0.965,0.076c-0.206,0.552-0.63-0.085-1.182-0.013c-0.125,0.072-0.171,0.206-0.376,0.139
		c-0.104,0.173-0.312,0.264-0.522,0.417c0.065,0.137,0.298,0.152,0.371,0.287c-0.231-0.003-0.577-0.016-0.816-0.15
		c-0.577,0.139-0.931-0.121-1.404-0.212c-0.326,0.162-0.713,0.152-1.113,0.214c-0.107,0.195-0.244,0.442-0.3,0.701
		c-0.105,0.471-0.158,1.162-0.055,1.379c-0.098,0.9,0.013,1.947,0.047,2.843c0.017,0.435-0.086,0.873,0.102,1.24
		c-0.232,0.191,0.07,0.444-0.08,0.646c0.142,0.417,0.084,0.784,0.099,1.211c0.052,0.064,0.089-0.034,0.111,0.03
		c-0.19,0.128,0.096,0.676-0.084,0.814c0.042,0.398,0.062,0.765,0.071,1.118c-0.047-0.015-0.094-0.029-0.141-0.043
		c0.004,0.016,0.005,0.03,0.005,0.045c0.056,0.002,0.122-0.011,0.111,0.067c-0.144-0.051-0.073,0.097-0.141,0.115
		c0.127,0.992-0.082,2.05-0.049,3.015c0.008,0.244,0.078,0.535,0.07,0.834c0,0.075-0.028,0.109-0.024,0.182
		c0.088,2.524,0.104,4.669,0.383,7.03c-0.112,0.396-0.103,0.852-0.09,1.312c0.037,1.392,0.016,2.756,0.109,4.169
		c-0.361-0.01-0.747-0.014-1.125,0.015c-0.272,0.021-0.538,0.119-0.793,0.144c0,0,0.026-0.075,0.035-0.073
		c-0.377-0.083-1.188,0.114-1.595,0.141c-2.044,0.14-4.497,0.463-6.777,0.689c-0.005-0.057-0.021-0.099-0.089-0.108
		c0.037-0.002,0.074-0.004,0.111-0.006c-0.062-0.641,0.057-1.226-0.074-1.641c0.037-0.001,0.047,0.047,0.079,0.057
		c-0.116-0.262-0.149-0.503,0.005-0.668c-0.071-0.04-0.104-0.16-0.121-0.3c0.031-0.14,0.134-0.176,0.163-0.313
		c-0.112-0.298-0.163-0.456-0.103-0.786c-0.22,0.037-0.16-0.63,0.004-0.671c0.008-0.25-0.088,0.051-0.147-0.114
		c-0.01-0.164,0.091-0.16,0.133-0.25c-0.079,0.014-0.117-0.044-0.117-0.177c0.184-0.393-0.046-0.899-0.096-1.336
		c-0.021-0.22,0.045-0.948-0.116-1.029c0.037-0.254,0.04-0.508,0.003-0.732c-0.09-0.549-0.183-1.459-0.271-2.058
		c-0.302-2.051-0.41-4.413-1.039-6.289c-0.111,0.12-0.158-0.18-0.163-0.358c-0.495-0.261-0.802-0.179-1.34-0.001
		c-0.005-0.121-0.105-0.074-0.085-0.242c-0.208,0.159-0.316-0.135-0.506,0.084c-0.579-0.576-1.349-0.435-1.799,0.382
		c-0.11-0.01-0.208-0.052-0.297-0.108c-0.075,0.092,0.052,0.146-0.027,0.184c-0.776-0.3-1.514,1.066-1.606,2.265
		c-0.013,0.173,0.083,0.363-0.051,0.489c-0.22-0.264-0.503-0.578-0.446-1.077c-0.24-0.105-0.315-0.511-0.537-0.647
		c-0.353,0.533-0.612-0.334-0.887-0.327c-0.07,0.101-0.03,0.374-0.089,0.491c-0.131-0.039-0.192-0.211-0.37-0.166
		c-0.06,0.131-0.074,0.183-0.019,0.367c-0.121,0.259-0.41,0.044-0.457,0.324c0.062-0.01,0.089,0.057,0.079,0.18
		c-0.077-0.031-0.077-0.18-0.147-0.055c0.073,0.445-0.16,0.599-0.127,1.284c-0.099-0.041-0.068,0.123-0.141,0.128
		c-0.21,1.556-0.247,2.927-0.19,4.7c-0.023,0.094-0.108,0.094-0.099,0.245c0.184,1.5-0.134,3.151-0.018,4.509
		c-0.052,0.025-0.061,0.076-0.108,0.005c0.095,0.929-0.013,1.452,0.103,2.37c0.111,0.151,0.02,0.551,0.037,0.852
		c0.02,0.291,0.145,0.834,0.192,1.025c0.097,0.383,0.009,0.743,0.043,1.034c0.045,0.354,0.176,0.728,0.157,1.028
		c-0.988,0.398-1.788,0.958-2.715,1.319c-1.498,1.142-3.448,2.056-4.834,3.189c-0.364,0.037-0.695,0.586-1.055,0.772
		c-0.152,0.255-0.652,0.643-0.685,1.013c0.004-0.065-0.038-0.084-0.108-0.068c-0.362,0.833-1.144,1.901-1.358,3.038
		c-0.511,0.859-0.861,2.17-1.114,3.536c-0.176,0.47-0.241,0.995-0.302,1.429c-0.065,0.466-0.054,0.932-0.191,1.352
		c-0.044,0.732-0.038,1.558-0.044,2.362c0,0.142,0.002,0.333-0.014,0.474c-0.082,0.652-0.186,1.215-0.063,1.854
		c0.147,0.809,0.502,1.656,0.623,2.589c0.037,0.033,0.075,0.069,0.112,0.104c0.126,1.001,0.523,1.738,0.705,2.802
		c0.588,1.338,0.882,2.631,1.046,4.021c0.078,0.66,0.042,1.442,0.171,2.172c0.076,0.466,0.229,0.985,0.355,1.473
		c0.025,0.104,0.121,0.158,0.12,0.249c-0.021,0.549,0.262,1.068,0.322,1.583c0.332,0.649,0.608,1.387,0.852,2.034
		c0.228,0.117,0.205,0.513,0.428,0.635c0.062,0.312,0.438,0.77,0.484,1.103c1.559,3.157,5.045,4.435,7.998,6.004
		c-0.039,1.968,0.231,4.019,0.046,5.92c0.066,0.707-0.027,1.768-0.104,2.62c0.104,0.112,0.062,0.523-0.045,0.62
		c0.087,2.249-0.354,3.803-0.164,6.179c0.093,0.056,0.127,0.167,0.228,0.21c-0.093,0.303-0.111,0.948,0.262,1.004
		c-0.042-0.136-0.215-0.702,0.153-0.661c0.178,0.108,0.159,0.432,0.347,0.532c1.002-0.352,0.687,0.876,0.714,1.346
		c0.075-0.002,0.148-0.006,0.215-0.009c0.005-0.255,0.022-0.433,0.196-0.589c0,0.063,0.031,0.091,0.078,0.105
		c-0.013-0.175-0.102-0.306,0.015-0.436c0.2-0.042,0.26,0.074,0.336,0.167c-0.146-0.051-0.006,0.158-0.104,0.15
		c0.01-0.046-0.111-0.12-0.111-0.032c0.104,0.08,0.111,0.184,0.16,0.321c0.162-0.077,0.419,0.076,0.484,0.234
		c0.331-0.066,0.242,0.285,0.494,0.485c-0.018,0.315-0.219,0.716,0.07,0.831c-0.024-0.208,0.102-0.657,0.105-0.91
		c0.165,0.091,0.096-0.147,0.249-0.158c0.191,0.031,0.475,0.065,0.519,0.303c0.114-0.115-0.002-0.062-0.01-0.217
		c0.171-0.055,0.591-0.035,0.648-0.21c0.236,0.086,0.35-0.023,0.54-0.096c0.057,0.038,0.081,0.116,0.183,0.103
		c0.065-0.13-0.024-0.163-0.047-0.289c0.262,0.032,0.341-0.047,0.587,0.119c-0.047-0.22,0.187,0.019,0.212-0.156
		c0.138,0.077,0.082,0.366,0.269,0.39c0.061-0.002,0.019-0.101,0.07-0.114c0.006,0.043-0.003,0.105,0.038,0.106
		c0.084-0.038,0.159-0.086,0.214-0.151c-0.068,0.069-0.022,0.147,0.046,0.179c0.07-0.075,0.072-0.145,0.202-0.227
		c-0.373-0.256,0.391-0.585,0.481-0.638c0.242,0.087,0.168-0.015,0.516,0.084c0.034-0.169,0.188-0.051,0.356-0.124
		c0.069,0.05,0.105,0.142,0.222,0.135c0.007-0.043,0.04-0.023,0.075-0.002c-0.013-0.104,0.121-0.077,0.062-0.221
		c0.077,0.029,0.11,0.106,0.223,0.098c0.088-0.14,0.116-0.334,0.346-0.341c-0.022-0.114-0.071-0.201-0.12-0.284
		c0.224,0.002-0.015-0.215,0.246-0.193c-0.047-0.247,0.242-0.268,0.494-0.385c-0.065-0.183,0.08-0.18,0.131-0.262
		c0.079-0.324,0.028-0.761,0.211-0.987c-0.038-0.247-0.023-0.635,0.105-0.95c-0.093-0.769,0.182-1.749,0.109-2.437
		c0.255-1.039,0.115-2.604,0.227-3.861c0.054-0.545,0.025-1.435,0.001-1.634c-0.047-0.441,0.177-1.215-0.023-1.418
		c0.042-0.007,0.103,0.005,0.106-0.039c-0.061,0.01-0.089-0.038,0-0.037c-0.098-0.736,0.001-1.28-0.124-1.959
		c0.124-0.439,0.035-0.898,0.051-1.344c-0.608-0.478-0.445-1.754,0.162-2.076c-0.021-0.662-0.022-1.283,0.062-1.894
		c0.158-0.07,0.082-0.006,0.187,0.102c0-0.057-0.012-0.125,0.068-0.113c-0.047-0.119-0.074-0.053-0.046-0.214
		c0.144,0.003,0.183-0.086,0.284-0.121c-0.051-0.229,0.136-0.298-0.02-0.436c0.053-0.091,0.137-0.155,0.133-0.295
		c-0.104-0.078-0.188-0.177-0.268-0.28c0.037-0.117,0.088-0.22,0.13-0.333c-0.134-0.068-0.2-0.207-0.339-0.274
		c0.154,0,0-0.056-0.005-0.11c0.042,0.004,0.088,0.06,0.111-0.006c-0.136-0.07,0.001-0.395-0.199-0.389
		c0.06-0.227-0.033-0.189,0.093-0.332c-0.164-0.23-0.029-0.501-0.029-0.761c-0.004-0.073-0.083-0.133-0.084-0.215
		c-0.013-0.389,0.072-0.796,0.09-1.201c0.013-0.256-0.066-0.478-0.069-0.726c0-0.292,0.083-0.607,0.072-0.875
		c-0.005-0.121-0.105-0.354,0.057-0.401c-0.162,0.005-0.05-0.082-0.115-0.141c0.036-0.969-0.067-2.258,0.061-3.526
		c-0.177-0.205-0.022-0.598,0.041-0.764c-0.046-0.001-0.102,0.01-0.112-0.032c-0.047-0.749-0.074-1.71-0.215-2.458
		c0.034-1.379-0.112-2.658-0.106-4.063c-0.281-1.09-0.262-2.405-0.452-3.612c0.018-0.104,0.026-0.064,0.065-0.183
		c-0.113-0.467-0.2-1.112-0.253-1.697c-0.018-0.168,0.053-0.355,0.011-0.544c-0.048-0.23-0.113-0.417,0.009-0.583
		c-0.039-0.003-0.099,0.011-0.108-0.031c0.01-1.016-0.158-2.094,0.021-2.833c-0.062-0.035-0.048-0.154-0.08-0.215
		c0.083,0.013-0.032-0.164,0.102-0.113c-0.19-1.029,0.127-1.998,0.154-3.094c0.024-0.892-0.05-1.807-0.154-2.681
		c1.131-0.112,2.11-0.344,3.106-0.354c2.404-0.459,4.564-0.709,6.938-0.778c-0.003,0.232-0.092,0.44,0.033,0.654
		c-0.141,0.476-0.163,1.202-0.08,1.526c-0.115,0.66-0.115,1.384-0.026,1.854c-0.109,0.654-0.051,1.545-0.047,2.326
		c0,0.061-0.028,0.123-0.024,0.184c0.024,1.891-0.106,3.758-0.196,5.456c-0.027,0.451-0.168,1.049-0.126,1.241
		c0.021,0.106,0.154,0.198,0.01,0.289c0.14,0.107,0.047,0.236,0.196,0.318c-0.131,0.429,0.051,0.83,0.196,1.191
		c0,0.056-0.089,0.03-0.065,0.111c0.309,0.938,0.722,1.911,1.207,2.707c0.101-0.003,0.192-0.01,0.29-0.015
		c0.027-0.09,0.066-0.17,0.136-0.221c0.265-0.061,0.289,0.137,0.374,0.272c-0.032,0.098-0.137,0.128-0.169,0.227
		c0.144,0.145,0.219,0.307,0.448,0.27c-0.014,0.161,0.312,0.263,0.349,0.493c0.226-0.014,0.454,0.045,0.659,0.152
		c0.008-0.146,0.097-0.003,0.178-0.08c0.077-0.112-0.062-0.22,0.061-0.257c0.241,0.004,0.34,0.234,0.588,0.119
		c0.975,0.438,2.149,0.412,3.246,0.293c0.005,0.095-0.006,0.208,0.046,0.252c0.233,0.015,0.142-0.264,0.312-0.305
		c0.795-0.079,2.039-0.121,2.722-0.046c0.308-0.125,0.583-0.076,1.053-0.046c0.224-0.234,0.539-0.114,0.83-0.109
		c1.243,0.021,2.619,0.024,3.737-0.093c0.042,0.139,0.169,0.04,0.224,0.101c0.071,0.009,0.067-0.053,0.104-0.078
		c0.411,0.04,1.087,0.01,1.344-0.022c0.158-0.019,0.316,0.056,0.471,0.051c0.906-0.02,1.764-0.08,2.649-0.08
		c0.837,0,1.737-0.05,2.647-0.043c0.96,0.005,2.345-0.089,3.271,0.001c-0.02,0.359,0,0.556-0.146,0.77
		c0.011,0.95-0.576,1.782-1.157,2.592c-0.19,0.622-0.796,1.215-0.932,1.93c-0.128,0.088-0.328,0.33-0.303,0.559
		c-0.047,0-0.053-0.045-0.111-0.032c-0.173,0.424-0.514,0.737-0.67,1.264c-0.068-0.004-0.077,0.045-0.143,0.042
		c0.018,0.177-0.1,0.233-0.09,0.402c-0.047,0-0.052-0.042-0.111-0.029c-0.304,0.5-0.877,0.752-1.405,1.043
		c-0.079,0.054,0.048,0.085-0.032,0.11c-0.176,0.06-0.43,0.155-0.462,0.237c-0.567,0.182-1.012,0.258-1.545,0.431
		c0.085-0.15-0.093,0.008-0.219-0.027c0-0.064-0.013-0.113-0.041-0.144c-0.221-0.023-0.303,0.123-0.435,0.02
		c-0.056,0.064-0.135,0.112-0.214,0.154c-0.92,0.114-2.236,0.417-2.847,0.454c-0.843,0.048-1.646,0.3-2.383,0.285
		c-0.023,0.198-0.062,0.021-0.146,0.043c-0.208,0.052-0.246,0.108-0.502,0.13c-0.196,0.017-0.594,0.062-0.655-0.043
		c-0.312,0.25-1.068,0.246-1.622,0.326c-1.189,0.173-2.259,0.275-3.532,0.555c-0.215,0.046-0.447,0.02-0.653,0.064
		c-0.064,0.014-0.107,0.108-0.177,0.117c-0.281,0.042-0.841,0.084-0.942,0.042c0.005,0.062-0.022,0.095-0.066,0.113
		c-0.628-0.098-1.413,0.014-1.927-0.024c-0.308-0.025-0.682,0.154-0.97,0.149c0.022,0.001,0.023-0.056-0.043-0.069
		c-0.525-0.11-1.138,0.299-1.78,0.042c-0.463,0.08-0.832,0.215-1.476,0.247c-0.433,0.232-0.899-0.007-1.142,0.449
		c0.074,0.042,0.106,0.136,0.153,0.211c-0.389,0.057-0.599-0.082-0.84-0.18c-0.155,0.196-0.299,0.402-0.41,0.634
		c0.131,0.081,0.087,0.204,0.087,0.359c-0.608,0.196-0.544,1.195-1.217,1.214c-0.033,0.215-0.303,0.213-0.419,0.348
		c-0.019,0.31,0.045,0.461-0.155,0.659c-0.12,0.124-0.5,0.303-0.274,0.376c-0.018,0.063-0.169,0.006-0.176,0.081
		c-0.006,0.458,0.204,1.037,0.329,1.656c-0.125,0.165-0.255,0.493-0.526,0.495c0.062,0.231,0.031,0.282-0.048,0.476
		c0.058,0.096,0.187,0.121,0.226,0.243c-0.043,0.075-0.254,0-0.252,0.119c0.2,0.407,0.754,0.421,1.053,0.717
		c-0.135,0.109,0.058,0.098-0.028,0.22c0.091-0.01,0.15,0.012,0.183,0.064c0.07,0.295-0.181,0.467-0.279,0.23
		c-0.004,0.113,0.037,0.264-0.022,0.328C-88.63,77.581-88.247,78.023-87.964,78.369z M-104.75,65.691
		c-0.829-1.871-0.887-4.351-1.608-6.544c-0.024-0.048-0.065-0.081-0.149-0.074c0.026-0.528-0.579-1.245-0.52-1.74
		c-0.007-0.074-0.162-0.018-0.195-0.071c-0.003-0.415-0.311-0.368-0.331-0.866c-0.275-0.241-0.237-0.742-0.48-0.903
		c-0.206-1.104-0.685-1.64-0.947-2.564c-0.299-0.141-0.126-0.448-0.466-0.54c-0.111-0.669,0.204-1.712,0.098-2.328
		c0.242-0.398,0.112-0.956,0.382-1.261c-0.083-0.787,0.347-1.74,0.387-2.381c0.22-0.745,0.917-1.197,1.135-2.014
		c0.257-0.134,0.48-0.48,0.904-0.602c0.49-0.443,1.195-0.728,1.708-1.157c0.104,0.28,0.016,0.566-0.01,0.842
		c-0.026,0.209-0.012,0.624-0.014,0.764c-0.063,1.451-0.144,3.117-0.134,4.775c0,0.531-0.048,1.05-0.076,1.605
		c-0.033,0.562,0.137,1.15,0.074,1.682c-0.082,0.658,0.081,1.72-0.093,2.37c0.062,0.346,0.179,0.72,0,1.082
		c0.26,0.654,0.014,1.756,0.294,2.271c-0.143,0.58,0.197,1.419-0.004,2.167c0.106,0.437,0.112,1.209,0.027,1.682
		c0.094,0.739,0.043,1.614-0.047,2.326c0.029,0.099,0.103,0.163,0.158,0.234C-104.871,64.861-104.615,65.361-104.75,65.691z
		 M-102.058,93.224c0.006-0.063,0.06-0.084,0.144-0.079c-0.078,0.14-0.036,0.111,0.044,0.144
		C-101.81,93.346-101.992,93.303-102.058,93.224z M-58.502,46.31c-0.894-0.057-2.524-0.344-3.456-0.138
		c-0.229-0.119-0.57-0.072-0.802-0.002c0.005-0.042,0.068-0.033,0.106-0.04c-1.739-0.049-3.41,0.159-5.188,0.156
		c-0.259,0.117-0.83-0.012-0.935,0.151c-1.128-0.099-1.811,0.068-2.934,0.165c-0.051-1.379-0.022-2.448,0.075-3.999
		c-0.047-0.002-0.1-0.002-0.107,0.041c-0.076-0.008,0.033-0.127,0.103-0.114c-0.08-0.538,0.074-1.159,0.037-1.708
		c0-0.05-0.075-0.077-0.075-0.068c0.009-0.306,0.204-0.625-0.003-0.873c0.046-0.038,0.135-0.039,0.139-0.115
		c0.01-0.62,0.056-0.72,0.047-1.492c2.043,0.367,4.68,0.963,7.039,1.543c0.565,0.139,1.121,0.253,1.652,0.364
		c0.173,0.037,0.33,0.167,0.477,0.196c0.173,0.033,0.578,0.098,0.885,0.218c0.121,0.046,0.233,0.211,0.331,0.129
		c0.043,0.006,0.023,0.036,0.005,0.036c0.333,0.068,0.532,0.373,0.785,0.547c0.246,0.171,0.414,0.385,0.61,0.664
		c-0.023,0.038-0.083,0.039-0.069,0.112c0.826,1.169,1.018,2.714,1.302,4.044C-58.375,46.155-58.567,46.198-58.502,46.31z
		 M-87.053,69.355c-0.079,0.217-0.184,0.085-0.355,0.162C-87.353,69.33-87.18,69.469-87.053,69.355z"/>
</g>
<g>
	<path fill="#FFFFFF" d="M83.898,96.544c0.062-0.195-0.228-0.694-0.078-0.868c-0.023-0.294-0.209-0.508-0.216-0.862
		c-0.399-0.26-0.387-0.94-0.82-1.234c-0.247-0.641-0.905-1.395-1.362-2.047c-0.136-0.478-0.764-0.746-0.815-1.272
		c-0.948-1.396-1.666-2.36-2.497-3.921c0.359-0.416,0.64-0.897,1.073-1.245c-0.02-0.088,0.06-0.083,0.023-0.186
		c0.485-0.493,0.843-1.106,1.195-1.722c0.036,0,0.074-0.002,0.11-0.003c0-0.261,0.237-0.379,0.373-0.635
		c0.019-0.036-0.026-0.101-0.008-0.144c0.056-0.122,0.194-0.215,0.275-0.376c-0.005,0.009-0.053-0.036-0.042-0.07
		c0.277-0.653,0.905-1.714,0.947-2.402c0.022-0.298,0.321-0.661,0.217-0.917c0.142-0.084-0.013-0.322,0.159-0.442
		c-0.05-0.361,0.163-0.967,0.016-1.309c0.214-0.283-0.028-0.434,0.149-0.768c-0.07-0.099-0.123,0-0.183-0.065
		c0.038-0.033,0.094-0.053,0.176-0.046c-0.124-0.155-0.044-0.532-0.172-0.681c0.13-0.01,0.117-0.253,0.029-0.146
		c0.088-0.477,0.04-1.366-0.079-1.776c-0.117-0.141-0.379-0.121-0.482-0.269c-0.59,0.05-0.858-0.78-1.203-0.891
		c0.041-0.311-0.192-0.65-0.112-0.943c-0.173-0.036-0.238-0.192-0.345-0.31c-0.083,0.014-0.145,0.051-0.211,0.084
		c-0.359-0.143-0.763-0.601-1.11-0.499c-0.087,0.028-0.348,0.253-0.42,0.383c0.006-0.015,0.075,0.017,0.072,0.032
		c-0.005,0.084-0.09-0.006-0.1,0.116c-0.023,0.182-0.246,0.527-0.415,0.523c-0.359-0.001-0.064-0.366-0.315-0.528
		c0.161,0.004-0.015-0.292,0.133-0.298c-0.088,0.009-0.152-0.01-0.186-0.063c0.169-0.408-0.351-0.726-0.547-0.885
		c0.024-0.153-0.054-0.196-0.12-0.25c-0.121,0.381-0.505,0.33-1.107,0.377c-0.222,0.494-0.708,1.033-1.104,1.356
		c-0.024,0.107,0.222,0.107,0.115,0.176c-0.317-0.247-0.309,0.348-0.601,0.352c0,0.166-0.085,0.085-0.024,0.258
		c-0.097-0.096-0.278,0.129-0.141,0.151c-0.205,0.04-0.278,0.319-0.307,0.411c-0.121,0.031-0.243,0.285-0.274,0.413
		c-0.048,0.003-0.076,0.02-0.104,0.042c-0.181,0.468-0.598,0.887-0.708,1.303c-0.13,0.139-0.233,0.296-0.267,0.519
		c-0.391,0.386-0.526,1.006-0.96,1.351c-0.379,0.737-1.047,1.217-1.476,1.917c-0.994,0.77-1.702,1.804-2.72,2.552
		c-0.157,0.391-0.588,0.422-0.728,0.761c-0.106-0.005-0.065,0.124-0.219,0.081c-0.076,0.057,0.052,0.084-0.029,0.109
		c-0.483,0.184-0.834,0.607-1.268,0.855c-0.205,0.117-0.476,0.136-0.682,0.248c-0.206,0.117-0.363,0.289-0.564,0.387
		c-0.804,0.394-1.643,0.812-2.495,1.091c-0.464,0.383-1.099,0.692-1.777,0.878c-1,0.683-2.608,1.077-3.858,1.441
		c-0.546,0.069-1.167,0.216-1.693,0.292c-1.773,0.259-3.654,0.838-5.548,1.043c-0.178,0.02-0.363-0.035-0.545-0.013
		c-0.729,0.087-1.443,0.28-2.165,0.349c-0.721,0.072-1.541-0.188-2.394,0.068c-0.219-0.133-0.741-0.048-1.162-0.021
		c-0.29,0.021-0.599-0.02-0.909,0.003c-0.846,0.068-1.658,0.253-2.422,0.216c-0.382-0.016-0.701-0.151-1.093-0.061
		c-0.206-0.201-0.685-0.132-0.955-0.211c-0.014-0.004-0.034-0.107-0.042-0.107c-0.221-0.052-0.523-0.015-0.803-0.074
		c-0.153-0.034-0.291-0.134-0.438-0.162c-0.657-0.111-1.321-0.054-1.811,0.152c-0.232,0.097-0.541,0.008-0.757,0.106
		c-0.117,0.054-0.189,0.184-0.283,0.23c-0.337,0.171-0.532,0.26-0.59,0.609c-0.021,0.141,0.062,0.313,0.058,0.466
		c-0.126,0.095-0.094,0.164-0.094,0.406c-0.057,0-0.087,0.031-0.103,0.076c0.169,0.042-0.028,0.186,0.011,0.252
		c0.316,0.224-0.081,0.66,0.104,0.723c-0.077,0.206-0.097,0.352-0.087,0.514c-0.229-0.024-0.188,0.197-0.425,0.163
		c-0.169,0.304-0.661,0.597-0.322,0.959c0.127,0.049,0.249,0.109,0.336,0.205c-0.014,0.196-0.158,0.419-0.34,0.558
		c-0.005,0.255,0.089,0.404,0.141,0.686c0.245,0.139,0.441,0.187,0.769,0.182c0.019,0.215-0.19,0.477-0.228,0.665
		c-0.042,0.236,0.144,0.61,0.144,0.794c-0.148,0.172,0.111,0.565-0.148,0.659c0.139,0.271-0.103,0.453-0.118,0.622
		c-0.018,0.153,0.173,0.318-0.018,0.437c0.3,0.296,0.676,0.378,1.148,0.532c0.688,0.221,1.479,0.373,2.024,0.6
		c-0.019,0.501-0.179,1.137-0.108,1.64c-0.159,0.021,0.01,0.023,0.001,0.073c0,0.002-0.071-0.002-0.075,0.002
		c-0.046,0.273,0.016,0.614-0.027,0.981c-0.001,0.007-0.071-0.03-0.071-0.03c-0.071,0.227-0.145,0.714-0.105,0.983
		c0.004,0.018,0.078-0.012,0.073,0.034c-0.023,0.344-0.275,0.717-0.061,1.018c-0.194,0.027-0.102,0.324-0.052,0.512
		c-0.061,0-0.092,0.03-0.105,0.076c0.214-0.029-0.07,0.175,0.157,0.213c-0.052,0-0.099,0.003-0.148,0.005
		c-0.103,0.78-0.085,1.813-0.275,2.772c0.13,0.023-0.048,0.145,0.083,0.249c-0.014,0.009-0.074-0.034-0.075-0.031
		c-0.129,0.516-0.189,1.513-0.097,1.928c-0.118,0.187,0.107,0.615-0.039,0.728c0.08,0.031-0.007,0.358,0.092,0.433
		c0.097-0.067-0.021-0.142,0.101-0.15c0.038,0.137-0.101,0.116-0.097,0.223c0.357,0.009,0.438,0.455,0.499,0.668
		c0.611,0.035,0.204,0.714,0.453,1.213c-0.015-0.057,0.045-0.1,0.073-0.039c-0.014,0.098-0.149,0.173-0.062,0.258
		c0.378-0.183,0.23-0.644,0.734-0.687c-0.065,0.185,0.051,0.099,0.079,0.249c-0.151,0.294,0.008,0.857,0.019,1.235
		c-0.16,0.118-0.23,0.504,0.026,0.543c0.284-0.448,0.482-0.905,0.887-1.309c0.206,0.026,0.37-0.191,0.506-0.022
		c-0.119,0.112,0.059,0.099,0.079,0.178c0.061,0.201-0.113,0.491,0.103,0.649c-0.053,0.632,0.867,0.401,0.914,0.177
		c0.456,0.267,0.687-0.451,1.067-0.483c0.462-0.034,0.531,0.616,0.897,0.543c-0.1,0.01-0.128-0.05-0.077-0.106
		c0.156,0.065,0.257-0.047,0.364-0.051c-0.042,0-0.051-0.062-0.005-0.071c0.099,0.052,0.127,0.019,0.033-0.04
		c0.237,0.08,0.318-0.134,0.425-0.272c0.005-0.098-0.204,0.041-0.15-0.103c0.138-0.051,0.221-0.182,0.217-0.011
		c0.105-0.143,0.457-0.019,0.503-0.132c0.211,0.246,0.433,0.161,0.597,0.338c0.173-0.131,0.229,0.078,0.281-0.159
		c-0.01,0.159,0.101,0.043,0.115,0.105c-0.136,0.086,0.037,0.055,0.079,0.142c0.19-0.022,0.476-0.178,0.508-0.446
		c-0.006,0.01-0.008,0.017,0.017,0.023c-0.009-0.126,0.19-0.257,0.238-0.372c-0.002,0.007-0.076-0.012-0.072-0.036
		c0.016-0.112,0.137-0.273,0.168-0.335c0.037-0.08-0.009-0.191,0.021-0.289c0.225-0.698,0.586-1.521,0.6-2.061
		c0.053-0.005,0.081,0.015,0.112,0.031c-0.005-0.086-0.068-0.102-0.046-0.215c0.163-0.41,0.29-0.858,0.271-1.245
		c-0.006-0.112-0.094-0.445-0.094-0.542c-0.006-0.708,0.08-1.307,0.236-2.011c0.142,0.006-0.035,0.129,0.113,0.104
		c0.061-0.258,0.061-0.444-0.209-0.57c-0.01-0.646,0.152-1.364,0.026-1.926c0.155-0.132,0.07-0.337,0.048-0.583
		c0.046-0.001,0.078-0.021,0.103-0.041c-0.051-0.936,0.191-2.09,0.195-3.133c0-0.147,0.053-0.364,0.118-0.551
		c1.631-0.018,3.021-0.125,4.464-0.122c0.196,0,0.415-0.018,0.615-0.028c0.762-0.042,1.721-0.153,2.352-0.248
		c0.19,0.661,0.288,1.545,0.569,2.226c0.033,0.682,0.284,1.237,0.364,1.763c0.041,0.071,0.139,0.078,0.187,0.137
		c-0.098,0.029-0.079,0.012-0.14,0.117c0.577,1.846,1.06,3.705,1.384,5.785c0.426,0.998,0.369,2.159,0.795,3.199
		c-0.01,0.026-0.029,0.043-0.071,0.038c0.042,0.167,0.2,0.294,0.132,0.54c0.406,0.596,0.326,1.458,0.667,1.969
		c0.107,0.395,0.271,0.888,0.844,0.979c0.052-0.045,0.084-0.109,0.174-0.116c-0.053-0.169,0.054-0.319,0.243-0.264
		c-0.028,0.337,0.418,0.506,0.324,0.674c0.462-0.232,0.319-0.8,0.421-1.107c0.146,0.004,0.167,0.146,0.083,0.214
		c0.347,0.078,0.383,0.917,0.904,0.794c0.008-0.159,0.271-0.258,0.166-0.406c0,0.038-0.062,0.049-0.072,0.003
		c0.253-0.143-0.046-0.364,0.233-0.445c0.071,0.123,0.173,0.218,0.23,0.353c0.092-0.034,0.195-0.056,0.325-0.05
		c0.243,0.254,0.286,0.89,0.654,0.877c-0.136,0-0.009,0.031-0.028,0.111c0.201-0.023,0.325-0.121,0.54-0.133
		c0.151-0.431,0.744-0.451,1.168-0.632c0.052,0.142,0.183-0.025,0.297,0.06c0.182-0.109,0.235-0.34,0.375-0.489
		c0.116,0.001,0.162,0.078,0.294,0.061c0.018-0.054-0.052-0.187,0.026-0.182c0.067,0.029,0.08,0.144,0.15,0.066
		c0.106-0.026-0.057-0.055-0.037-0.109c0.241-0.059,0.196-0.201,0.387-0.273c0.032-0.312-0.033-0.457,0.224-0.625
		c0.313-0.023,0.527,0.194,0.807,0.147c0.154-0.028,0.261-0.237,0.458-0.275c0.195-0.037,0.256,0.084,0.476,0.052
		c0.127-0.309,0.085-0.361,0.263-0.63c-0.094-0.464,0.121-0.774-0.122-1.12c0.157,0.003,0.107-0.179,0.284-0.159
		c-0.06,0.103,0.132,0.192,0.229,0.244c0.029-0.054,0.113-0.057,0.177-0.078c-0.019-0.708-0.46-1.421-0.376-1.981
		c-0.226-0.229-0.104-0.673-0.285-0.788c0.112-0.299-0.296-0.606-0.113-0.903c-0.066,0.007-0.098-0.023-0.115-0.067
		c-0.322-0.868-0.747-1.99-0.9-3.083c-0.425-1.059-0.462-1.911-0.893-2.976c-0.06,0.003-0.12,0.005-0.18,0.008
		c-0.566-1.714-1.322-4.238-1.676-5.883c0.404-0.128,0.824-0.327,1.362-0.422c0.004-0.044-0.011-0.103,0.032-0.11
		c2.342-0.692,4.35-1.697,6.518-2.865c0.33,0.343,0.47,0.78,0.816,1.162c0,0.046-0.042,0.052-0.032,0.11
		c0.349,0.266,0.434,0.819,0.737,1.128c0.392,0.722,0.698,1.296,1.142,1.948c0.123,0.551,0.592,0.92,0.681,1.385
		c0.296,0.155,0.272,0.666,0.616,0.774c-0.047,0.009-0.037,0.06-0.036,0.11c0.28,0.325,0.656,0.44,0.834,0.798
		c0.316,0.208,0.63,0.179,0.891,0.433c0.351-0.017,0.412-0.295,0.524-0.532c0.441,0.251,0.665,0.703,1.115,0.569
		c-0.033-0.157-0.226-0.135-0.304-0.241c-0.053,0.044-0.048,0.138-0.099,0.187c-0.033-0.146,0.108-0.131,0.057-0.293
		c-0.113,0.018-0.416-0.139-0.308-0.35c0.041-0.003,0.046-0.032,0.07-0.04c0.03,0.121,0.166,0.13,0.231,0.207
		c0.126-0.069,0.234-0.156,0.352-0.232c0.112,0.114,0.25,0.047,0.368,0.129c0.173,0.12,0.26,0.551,0.424,0.453
		c-0.074,0.078-0.008,0.096,0.038,0.143c0.152,0.013-0.038-0.094,0.103-0.111c0.013,0.052-0.006,0.134,0.046,0.141
		c0.159-0.125,0.377,0.063,0.543-0.059c-0.099-0.098-0.212-0.174-0.305-0.275c0.084,0.026,0.099,0.026,0.183-0.009
		c0.014-0.242,0.136-0.321,0.341-0.452c0.134,0.035,0.209,0.128,0.265,0.243c0.113-0.063,0.191-0.019,0.226,0.1
		c0.13-0.049,0.204-0.042,0.289-0.013c0.032-0.139-0.142-0.053-0.117-0.178c0.084-0.003,0.11,0.058,0.22,0.028
		c-0.052-0.108,0.021-0.197-0.052-0.326c0.177-0.216,0.078-0.526,0.294-0.74c0.014-0.119-0.019-0.181-0.081-0.215
		c0.179-0.104,0.086-0.307,0.192-0.514c0.192,0.164,0.135,0.083,0.369,0.054c-0.044,0.058-0.039,0.096,0.005,0.147
		c0.187-0.015,0.322-0.02,0.4-0.055c-0.094-0.05-0.177-0.117-0.195-0.244c0.304,0.044,0.372-0.168,0.724-0.071
		c0.06-0.336,0.283-0.346,0.111-0.765c0.284-0.05,0.887-0.064,1.265-0.13c0.087-0.2,0.351-0.375,0.562-0.424
		C83.703,96.554,83.872,96.614,83.898,96.544z M80.961,72.777c0.036,0.062,0.131,0.059,0.187,0.1c0,0.091-0.062,0.116,0.009,0.181
		c0.033,0.005-0.064-0.004-0.216,0.047c0.066-0.17-0.096-0.165,0.023-0.256c-0.008-0.066-0.119-0.018-0.144-0.066
		C80.825,72.736,81.063,72.759,80.961,72.777z"/>
	<path fill="#FFFFFF" d="M76.182,62.282c-0.014,0.013-0.03,0.023-0.046,0.037c0.136,0.002,0.271,0.004,0.405,0.005
		c-0.036-0.008-0.069-0.022-0.105-0.033C76.347,62.286,76.262,62.284,76.182,62.282z"/>
	<path fill="#FFFFFF" d="M72.515,51.433c-0.007-0.011-0.01-0.018-0.019-0.03C72.414,51.412,72.432,51.422,72.515,51.433z"/>
	<path fill="#FFFFFF" d="M72.661,51.444c-0.062-0.004-0.112-0.008-0.146-0.011C72.566,51.509,72.582,51.473,72.661,51.444z"/>
	<path fill="#FFFFFF" d="M76.448,51.3c-0.332,0.078-0.868,0.173-1.23,0.019c-0.724,0.246-1.749-0.039-2.501,0.111
		c-0.023,0.002-0.042,0.009-0.056,0.014c0.578,0.037,2.184,0.071,3.507,0.092c0.155-0.003,0.312-0.003,0.467-0.004
		C76.606,51.42,76.522,51.364,76.448,51.3z"/>
	<path fill="#FFFFFF" d="M78.067,51.547c-0.456-0.017-0.942-0.02-1.433-0.016c0,0.004,0.005,0.007,0.005,0.01
		C77.624,51.555,78.32,51.558,78.067,51.547z"/>
	<path fill="#FFFFFF" d="M76.029,62.36c0.051,0.001,0.078-0.017,0.106-0.041c-0.178-0.003-0.359-0.01-0.537-0.013
		C75.68,62.319,75.818,62.337,76.029,62.36z"/>
	<path fill="#FFFFFF" d="M31.744,83.369c-0.018,0.244,0.192,0.3,0.38,0.419c-0.062,0-0.09,0.032-0.104,0.076
		c0.661,0.168,1.38,0.314,2.047,0.273c0.598,0.224,1.484,0.187,2.078,0.199c0.49,0.012,0.979,0.067,1.417,0.046
		c0.325-0.013,0.631-0.084,0.941-0.077c0.165,0.005,0.322,0.082,0.476,0.089c1.661,0.048,3.122-0.408,5.096-0.625
		c0.033-0.05,0.117-0.053,0.14-0.115c-0.018,0.158,0.254,0.002,0.294,0.097c0.956-0.269,1.988-0.256,2.809-0.56
		c0.01,0.103,0.153,0.06,0.257,0.061c0.9-0.134,1.629-0.295,2.306-0.428c0.186-0.036,0.741-0.152,0.866-0.147
		c0.467,0.017,1.129-0.177,1.551-0.213c0.167-0.014,0.413,0.059,0.395-0.09c0.406,0.032,1.251-0.105,1.588-0.217
		c0.122,0.113,0.236,0.005,0.363-0.014c0.557-0.08,1.312-0.087,1.834-0.372c0.22-0.04,0.345-0.009,0.611-0.135
		c-0.034,0.001-0.047-0.061,0-0.073c0.106,0.156,0.428-0.062,0.541-0.13c1.46-0.235,2.121-1.407,3.597-1.577
		c0.004-0.053-0.018-0.134,0.032-0.146c0.057,0.069,0.225,0.133,0.216,0.028c0.032,0.065,0.111,0.019,0.045,0.106
		c0.271-0.164,0.548-0.098,0.822-0.218c0.271-0.252,0.76-0.443,1.167-0.742c-0.052-0.006-0.044-0.076-0.076-0.104
		c0.103,0,0.065,0.152,0.187,0.137c0.095-0.063,0.261-0.22,0.249-0.084c0.017-0.042,0.035-0.083,0.068-0.11
		c0.647-0.194,1.13-0.754,1.844-0.991c0.199-0.601,0.544-0.88,0.85-1.345c-0.089-0.028,0.078-0.111,0.026-0.219
		c0.159-0.04,0.192-0.196,0.202-0.373c0.354-0.337,0.504-0.836,0.782-1.232c0.155-0.221,0.452-0.47,0.406-0.709
		c0.051,0.013,0.062,0.041,0.109-0.005c-0.015-0.217,0.217-0.218,0.195-0.444c0.264-0.381,0.606-0.737,0.894-1.128
		c0.188-0.254,0.548-0.716,0.579-0.933c0.374-0.275,0.622-0.668,0.752-1.05c0.167-0.495,0.746-1.095,0.658-1.556
		c0.125-0.194,0.075-0.549,0.148-0.805c0.027-0.104,0.135-0.189,0.164-0.299c0.051-0.173,0-0.399,0.051-0.582
		c0.001-0.023,0.093-0.047,0.104-0.078c0.098-0.226,0.056-0.475,0.078-0.73c0.318-1.075,0.206-2.654,0.55-3.946
		c1.146-0.052,2.207-0.015,3.271,0.01c-0.273-0.044,0.076-0.041,0.583-0.024c0.024-0.02,0.049-0.04,0.095-0.042
		c0.052,0.022,0.105,0.033,0.159,0.051c0.311,0.011,0.64,0.025,0.914,0.034c0.042,0,0.092,0,0.14,0
		c-0.024,0-0.041-0.039-0.004-0.036c0.715,0.063,0.42,0.058-0.136,0.036c-0.271,0.003-0.537,0.003-0.809-0.001
		c0.729,0.183,1.574-0.002,2.202-0.119c0.085-0.091-0.092-0.094-0.046-0.251c0.271-0.072,0.489,0.055,0.644-0.21
		c0.14-0.235-0.022-0.45,0.229-0.593c0.141-0.079,0.602-0.101,0.723-0.066c0.046-0.086,0.142-0.127,0.099-0.297
		c-0.205-0.132-0.397-0.275-0.637-0.37c-0.068-0.188-0.046-0.354,0.053-0.438c0.2-0.024,0.415-0.038,0.426-0.235
		c-0.141-0.177-0.454-0.162-0.49-0.452c0.163-0.006,0.255,0.11,0.4,0.019c-0.381-0.567,0.107-0.914,0.578-0.826
		c0.457-0.58-0.08-0.751-0.307-1.185c0.065-0.012,0.079-0.066,0.069-0.147c-0.162-0.181-0.303-0.381-0.461-0.562
		c0.245-0.037,0.06-0.419,0.041-0.618c0.131-0.013,0.163-0.108,0.252-0.157c0.052-0.13-0.126-0.014-0.112-0.103
		c-0.037-0.42-0.304-0.583-0.546-0.776c-0.215,0.044-0.35-0.03-0.551-0.157c-0.401-0.046-0.615,0.192-0.835,0
		c0.043-0.008,0.037-0.057,0.032-0.11c0.341,0.032,0.573-0.162,0.798-0.035c0.104-0.11,0.197-0.236,0.347-0.307
		c-0.182-0.339,0.172-0.372,0.157-0.659c-0.11-0.061-0.181-0.163-0.232-0.281c0.08-0.111,0.169-0.217,0.2-0.373
		c-0.172-0.19-0.377-0.349-0.601-0.482c-0.084,0.004-0.169,0.007-0.254,0.011c-0.217-0.219-0.819-0.017-0.956-0.321
		c0.211-0.084,0.532-0.066,0.603-0.28c-0.451-0.219-1.101-0.299-1.726-0.396c0-0.002-0.001-0.002-0.001-0.005
		c-0.152-0.002-0.312-0.004-0.472-0.006c-0.9,0.009-1.791,0.016-2.533-0.046c-0.48,0.037-1.081,0.216-1.777,0.078
		c-0.134-0.406-0.07-0.8-0.124-1.193c-0.01-0.054-0.105-0.09-0.114-0.14c-0.032-0.142-0.037-0.35-0.06-0.506
		c-0.113-0.792-0.267-1.717-0.481-2.667c-0.05-0.221-0.274-0.566-0.173-0.683c-0.119-0.062-0.121-0.249-0.131-0.43
		c-0.34-0.688-0.391-1.265-0.854-2.068c0.108-0.049-0.061-0.137,0.029-0.183c-0.053-0.086-0.132,0.046-0.149-0.029
		c0.112-0.09-0.037-0.436-0.2-0.464c0.094-0.174-0.066-0.431-0.202-0.5c0.075-0.079-0.041-0.116,0.024-0.182
		c-0.173,0.027-0.112-0.205-0.158-0.321c-0.047,0.004-0.094,0.005-0.142,0.007c0.014-0.217-0.092-0.496-0.28-0.57
		c-0.251-0.675-0.82-1.267-1.276-1.759c0.01-0.17-0.173-0.209-0.233-0.281c-0.095-0.121-0.126-0.299-0.232-0.425
		c-0.23-0.265-0.649-0.59-0.902-0.76c-0.26-0.167-0.503-0.506-0.798-0.69c-0.176-0.109-0.367-0.068-0.409-0.272
		c-0.062,0.002-0.123,0.005-0.184,0.007c0.015-0.174-0.231-0.072-0.265-0.279c-0.471-0.133-0.846-0.452-1.266-0.633
		c-0.331-0.147-0.88-0.279-1.104-0.388c-0.304-0.147-0.762-0.24-1.073-0.462c-0.742-0.031-1.745-0.552-2.569-0.613
		c-0.324-0.178-0.845-0.304-1.178-0.346c-0.838-0.262-1.609-0.564-2.464-0.656c-0.35-0.21-0.769-0.279-1.175-0.309
		c-1.506-0.562-3.21-0.677-4.764-0.99c-0.289,0.127-0.518-0.079-0.871,0.003c0.028-0.642-0.127-1.596-0.023-2.144
		c0.069-0.351,0.01-0.982,0.01-1.454c0-0.303,0.004-0.562-0.034-0.762c-0.022-0.097,0.066-0.194,0.061-0.291
		c-0.013-0.176-0.083-0.354-0.098-0.541c-0.068-0.762-0.206-1.379-0.13-2.065c-0.195-0.064-0.022-0.374-0.164-0.5
		c-0.009-0.145,0.064-0.221,0.057-0.368c-0.187-0.486-0.047-1.099-0.113-1.736c-0.031-0.304-0.06-0.592-0.087-0.879
		c0.009,0.001,0.014,0.002,0.021,0.003c0.015-0.629,0.006-1.263-0.035-1.929c-0.01-0.156,0.046-0.36,0.041-0.423
		c0-0.021-0.102-0.058-0.111-0.083c-0.07-0.36,0.105-0.793,0.05-1.127c-0.003-0.014-0.07,0-0.073-0.057
		c-0.023-0.622-0.062-1.187-0.058-1.802c-0.087-0.036-0.102-0.126-0.147-0.197c0.03-0.53-0.159-1.216-0.276-1.664
		c0.021-0.326-0.121-0.682-0.253-0.904c0.054-0.567-0.181-1.178-0.13-1.688c-0.312-0.369-0.119-1.016-0.43-1.412
		c0.006-0.244-0.144-0.434-0.033-0.676c-0.044-0.015-0.082-0.031-0.11-0.058c-0.042-0.694-0.439-1.301-0.354-1.833
		c-0.033-0.031-0.132-0.012-0.107-0.086c0.12-0.582-0.223-0.939-0.244-1.494c-0.17-0.011-0.158-0.214-0.147-0.282
		c-0.303-0.07-0.48-0.359-0.662-0.428c0.069-0.05-0.027-0.072,0.003-0.168c-0.564-0.406-1.097-0.136-1.622-0.525
		c-0.02,0.051-0.02,0.119-0.075,0.142c-0.405-0.061-0.864,0.009-1.186,0.099C41.478,5.331,41.389,5.177,41.322,5
		c-0.321,0.092-0.708-0.038-0.965,0.076c-0.206,0.552-0.63-0.085-1.182-0.013c-0.125,0.072-0.171,0.206-0.376,0.139
		c-0.104,0.173-0.312,0.264-0.522,0.417c0.065,0.137,0.298,0.152,0.371,0.287c-0.231-0.003-0.577-0.016-0.816-0.15
		c-0.577,0.139-0.931-0.121-1.404-0.212c-0.326,0.162-0.713,0.152-1.113,0.214c-0.107,0.195-0.244,0.442-0.3,0.701
		c-0.105,0.471-0.158,1.162-0.055,1.379c-0.098,0.9,0.013,1.947,0.047,2.843c0.017,0.435-0.086,0.873,0.102,1.24
		c-0.232,0.191,0.07,0.444-0.08,0.646c0.142,0.417,0.084,0.784,0.099,1.211c0.052,0.064,0.089-0.034,0.111,0.03
		c-0.19,0.128,0.096,0.676-0.084,0.814c0.042,0.398,0.062,0.765,0.071,1.118c-0.047-0.015-0.094-0.029-0.141-0.043
		c0.004,0.016,0.005,0.03,0.005,0.045c0.056,0.002,0.122-0.011,0.111,0.067c-0.144-0.051-0.073,0.097-0.141,0.115
		c0.127,0.992-0.082,2.05-0.049,3.015c0.008,0.244,0.078,0.535,0.07,0.834c0,0.075-0.028,0.109-0.024,0.182
		c0.088,2.524,0.104,4.669,0.383,7.03c-0.112,0.396-0.103,0.852-0.09,1.312c0.037,1.392,0.016,2.756,0.109,4.169
		c-0.361-0.01-0.747-0.014-1.125,0.015c-0.272,0.021-0.538,0.119-0.793,0.144c0,0,0.026-0.075,0.035-0.073
		c-0.377-0.083-1.188,0.114-1.595,0.141c-2.044,0.14-4.497,0.463-6.777,0.689c-0.005-0.057-0.021-0.099-0.089-0.108
		c0.037-0.002,0.074-0.004,0.111-0.006c-0.062-0.641,0.057-1.226-0.074-1.641c0.037-0.001,0.047,0.047,0.079,0.057
		c-0.116-0.262-0.149-0.503,0.005-0.668c-0.071-0.04-0.104-0.16-0.121-0.3c0.031-0.14,0.134-0.176,0.163-0.313
		c-0.112-0.298-0.163-0.456-0.103-0.786c-0.22,0.037-0.16-0.63,0.004-0.671c0.008-0.25-0.088,0.051-0.147-0.114
		c-0.01-0.164,0.091-0.16,0.133-0.25c-0.079,0.014-0.117-0.044-0.117-0.177c0.184-0.393-0.046-0.899-0.096-1.336
		c-0.021-0.22,0.045-0.948-0.116-1.029c0.037-0.254,0.04-0.508,0.003-0.732c-0.09-0.549-0.183-1.459-0.271-2.058
		c-0.302-2.051-0.41-4.413-1.039-6.289c-0.111,0.12-0.158-0.18-0.163-0.358c-0.495-0.261-0.802-0.179-1.34-0.001
		c-0.005-0.121-0.105-0.074-0.085-0.242c-0.208,0.159-0.316-0.135-0.506,0.084c-0.579-0.576-1.349-0.435-1.799,0.382
		c-0.11-0.01-0.208-0.052-0.297-0.108c-0.075,0.092,0.052,0.146-0.027,0.184c-0.776-0.3-1.514,1.066-1.606,2.265
		c-0.013,0.173,0.083,0.363-0.051,0.489c-0.22-0.264-0.503-0.578-0.446-1.077c-0.24-0.105-0.315-0.511-0.537-0.647
		c-0.353,0.533-0.612-0.334-0.887-0.327c-0.07,0.101-0.03,0.374-0.089,0.491c-0.131-0.039-0.192-0.211-0.37-0.166
		c-0.06,0.131-0.074,0.183-0.019,0.367c-0.121,0.259-0.41,0.044-0.457,0.324c0.062-0.01,0.089,0.057,0.079,0.18
		c-0.077-0.031-0.077-0.18-0.147-0.055c0.073,0.445-0.16,0.599-0.127,1.284c-0.099-0.041-0.068,0.123-0.141,0.128
		c-0.21,1.556-0.247,2.927-0.19,4.7c-0.023,0.094-0.108,0.094-0.099,0.245c0.184,1.5-0.134,3.151-0.018,4.509
		c-0.052,0.025-0.061,0.076-0.108,0.005c0.095,0.929-0.013,1.452,0.103,2.37c0.111,0.151,0.02,0.551,0.037,0.852
		c0.02,0.291,0.145,0.834,0.192,1.025c0.097,0.383,0.009,0.743,0.043,1.034c0.045,0.354,0.176,0.728,0.157,1.028
		c-0.988,0.398-1.788,0.958-2.715,1.319c-1.498,1.142-3.448,2.056-4.834,3.189c-0.364,0.037-0.695,0.586-1.055,0.772
		c-0.152,0.255-0.652,0.643-0.685,1.013c0.004-0.065-0.038-0.084-0.108-0.068c-0.362,0.833-1.144,1.901-1.358,3.038
		c-0.511,0.859-0.861,2.17-1.114,3.536c-0.176,0.47-0.241,0.995-0.302,1.429c-0.065,0.466-0.054,0.932-0.191,1.352
		c-0.044,0.732-0.038,1.558-0.044,2.362c0,0.142,0.002,0.333-0.014,0.474c-0.082,0.652-0.186,1.215-0.063,1.854
		c0.147,0.809,0.502,1.656,0.623,2.589c0.037,0.033,0.075,0.069,0.112,0.104c0.126,1.001,0.523,1.738,0.705,2.802
		c0.588,1.338,0.882,2.631,1.046,4.021c0.078,0.66,0.042,1.442,0.171,2.172c0.076,0.466,0.229,0.985,0.355,1.473
		c0.025,0.104,0.121,0.158,0.12,0.249c-0.021,0.549,0.262,1.068,0.322,1.583c0.332,0.649,0.608,1.387,0.852,2.034
		c0.228,0.117,0.205,0.513,0.428,0.635c0.062,0.312,0.438,0.77,0.484,1.103c1.559,3.157,5.045,4.435,7.998,6.004
		c-0.039,1.968,0.231,4.019,0.046,5.92c0.066,0.707-0.027,1.768-0.104,2.62c0.104,0.112,0.062,0.523-0.045,0.62
		c0.087,2.249-0.354,3.803-0.164,6.179c0.093,0.056,0.127,0.167,0.228,0.21c-0.093,0.303-0.111,0.948,0.262,1.004
		c-0.042-0.136-0.215-0.702,0.153-0.661c0.178,0.108,0.159,0.432,0.347,0.532c1.002-0.352,0.687,0.876,0.714,1.346
		c0.075-0.002,0.148-0.006,0.215-0.009c0.005-0.255,0.022-0.433,0.196-0.589c0,0.063,0.031,0.091,0.078,0.105
		c-0.013-0.175-0.102-0.306,0.015-0.436c0.2-0.042,0.26,0.074,0.336,0.167c-0.146-0.051-0.006,0.158-0.104,0.15
		c0.01-0.046-0.111-0.12-0.111-0.032c0.104,0.08,0.111,0.184,0.16,0.321c0.162-0.077,0.419,0.076,0.484,0.234
		c0.331-0.066,0.242,0.285,0.494,0.485c-0.018,0.315-0.219,0.716,0.07,0.831c-0.024-0.208,0.102-0.657,0.105-0.91
		c0.165,0.091,0.096-0.147,0.249-0.158c0.191,0.031,0.475,0.065,0.519,0.303c0.114-0.115-0.002-0.062-0.01-0.217
		c0.171-0.055,0.591-0.035,0.648-0.21c0.236,0.086,0.35-0.023,0.54-0.096c0.057,0.038,0.081,0.116,0.183,0.103
		c0.065-0.13-0.024-0.163-0.047-0.289c0.262,0.032,0.341-0.047,0.587,0.119c-0.047-0.22,0.187,0.019,0.212-0.156
		c0.138,0.077,0.082,0.366,0.269,0.39c0.061-0.002,0.019-0.101,0.07-0.114c0.006,0.043-0.003,0.105,0.038,0.106
		c0.084-0.038,0.159-0.086,0.214-0.151c-0.068,0.069-0.022,0.147,0.046,0.179c0.07-0.075,0.072-0.145,0.202-0.227
		c-0.373-0.256,0.391-0.585,0.481-0.638c0.242,0.087,0.168-0.015,0.516,0.084c0.034-0.169,0.188-0.051,0.356-0.124
		c0.069,0.05,0.105,0.142,0.222,0.135c0.007-0.043,0.04-0.023,0.075-0.002c-0.013-0.104,0.121-0.077,0.062-0.221
		c0.077,0.029,0.11,0.106,0.223,0.098c0.088-0.14,0.116-0.334,0.346-0.341c-0.022-0.114-0.071-0.201-0.12-0.284
		c0.224,0.002-0.015-0.215,0.246-0.193c-0.047-0.247,0.242-0.268,0.494-0.385c-0.065-0.183,0.08-0.18,0.131-0.262
		c0.079-0.324,0.028-0.761,0.211-0.987c-0.038-0.247-0.023-0.635,0.105-0.95c-0.093-0.769,0.182-1.749,0.109-2.437
		c0.255-1.039,0.115-2.604,0.227-3.861c0.054-0.545,0.025-1.435,0.001-1.634c-0.047-0.441,0.177-1.215-0.023-1.418
		c0.042-0.007,0.103,0.005,0.106-0.039c-0.061,0.01-0.089-0.038,0-0.037c-0.098-0.736,0.001-1.28-0.124-1.959
		c0.124-0.439,0.035-0.898,0.051-1.344c-0.608-0.478-0.445-1.754,0.162-2.076c-0.021-0.662-0.022-1.283,0.062-1.894
		c0.158-0.07,0.082-0.006,0.187,0.102c0-0.057-0.012-0.125,0.068-0.113c-0.047-0.119-0.074-0.053-0.046-0.214
		c0.144,0.003,0.183-0.086,0.284-0.121c-0.051-0.229,0.136-0.298-0.02-0.436c0.053-0.091,0.137-0.155,0.133-0.295
		c-0.104-0.078-0.188-0.177-0.268-0.28c0.037-0.117,0.088-0.22,0.13-0.333c-0.134-0.068-0.2-0.207-0.339-0.274
		c0.154,0,0-0.056-0.005-0.11c0.042,0.004,0.088,0.06,0.111-0.006c-0.136-0.07,0.001-0.395-0.199-0.389
		c0.06-0.227-0.033-0.189,0.093-0.332c-0.164-0.23-0.029-0.501-0.029-0.761c-0.004-0.073-0.083-0.133-0.084-0.215
		c-0.013-0.389,0.072-0.796,0.09-1.201c0.013-0.256-0.066-0.478-0.069-0.726c0-0.292,0.083-0.607,0.072-0.875
		c-0.005-0.121-0.105-0.354,0.057-0.401c-0.162,0.005-0.05-0.082-0.115-0.141c0.036-0.969-0.067-2.258,0.061-3.526
		c-0.177-0.205-0.022-0.598,0.041-0.764c-0.046-0.001-0.102,0.01-0.112-0.032c-0.047-0.749-0.074-1.71-0.215-2.458
		c0.034-1.379-0.112-2.658-0.106-4.063c-0.281-1.09-0.262-2.405-0.452-3.612c0.018-0.104,0.026-0.064,0.065-0.183
		c-0.113-0.467-0.2-1.112-0.253-1.697c-0.018-0.168,0.053-0.355,0.011-0.544c-0.048-0.23-0.113-0.417,0.009-0.583
		c-0.039-0.003-0.099,0.011-0.108-0.031c0.01-1.016-0.158-2.094,0.021-2.833c-0.062-0.035-0.048-0.154-0.08-0.215
		c0.083,0.013-0.032-0.164,0.102-0.113c-0.19-1.029,0.127-1.998,0.154-3.094c0.024-0.892-0.05-1.807-0.154-2.681
		c1.131-0.112,2.11-0.344,3.106-0.354c2.404-0.459,4.564-0.709,6.938-0.778c-0.003,0.232-0.092,0.44,0.033,0.654
		c-0.141,0.476-0.163,1.202-0.08,1.526c-0.115,0.66-0.115,1.384-0.026,1.854c-0.109,0.654-0.051,1.545-0.047,2.326
		c0,0.061-0.028,0.123-0.024,0.184c0.024,1.891-0.106,3.758-0.196,5.456c-0.027,0.451-0.168,1.049-0.126,1.241
		c0.021,0.106,0.154,0.198,0.01,0.289c0.14,0.107,0.047,0.236,0.196,0.318c-0.131,0.429,0.051,0.83,0.196,1.191
		c0,0.056-0.089,0.03-0.065,0.111c0.309,0.938,0.722,1.911,1.207,2.707c0.101-0.003,0.192-0.01,0.29-0.015
		c0.027-0.09,0.066-0.17,0.136-0.221c0.265-0.061,0.289,0.137,0.374,0.272c-0.032,0.098-0.137,0.128-0.169,0.227
		c0.144,0.145,0.219,0.307,0.448,0.27c-0.014,0.161,0.312,0.263,0.349,0.493c0.226-0.014,0.454,0.045,0.659,0.152
		c0.008-0.146,0.097-0.003,0.178-0.08c0.077-0.112-0.062-0.22,0.061-0.257c0.241,0.004,0.34,0.234,0.588,0.119
		c0.975,0.438,2.149,0.412,3.246,0.293c0.005,0.095-0.006,0.208,0.046,0.252c0.233,0.015,0.142-0.264,0.312-0.305
		c0.795-0.079,2.039-0.121,2.722-0.046c0.308-0.125,0.583-0.076,1.053-0.046c0.224-0.234,0.539-0.114,0.83-0.109
		c1.243,0.021,2.619,0.024,3.737-0.093c0.042,0.139,0.169,0.04,0.224,0.101c0.071,0.009,0.067-0.053,0.104-0.078
		c0.411,0.04,1.087,0.01,1.344-0.022c0.158-0.019,0.316,0.056,0.471,0.051c0.906-0.02,1.764-0.08,2.649-0.08
		c0.837,0,1.737-0.05,2.647-0.043c0.96,0.005,2.345-0.089,3.271,0.001c-0.02,0.359,0,0.556-0.146,0.77
		c0.011,0.95-0.576,1.782-1.157,2.592c-0.19,0.622-0.796,1.215-0.932,1.93c-0.128,0.088-0.328,0.33-0.303,0.559
		c-0.047,0-0.053-0.045-0.111-0.032c-0.173,0.424-0.514,0.737-0.67,1.264c-0.068-0.004-0.077,0.045-0.143,0.042
		c0.018,0.177-0.1,0.233-0.09,0.402c-0.047,0-0.052-0.042-0.111-0.029c-0.304,0.5-0.877,0.752-1.405,1.043
		c-0.079,0.054,0.048,0.085-0.032,0.11c-0.176,0.06-0.43,0.155-0.462,0.237c-0.567,0.182-1.012,0.258-1.545,0.431
		c0.085-0.15-0.093,0.008-0.219-0.027c0-0.064-0.013-0.113-0.041-0.144c-0.221-0.023-0.303,0.123-0.435,0.02
		c-0.056,0.064-0.135,0.112-0.214,0.154c-0.92,0.114-2.236,0.417-2.847,0.454c-0.843,0.048-1.646,0.3-2.383,0.285
		c-0.023,0.198-0.062,0.021-0.146,0.043c-0.208,0.052-0.246,0.108-0.502,0.13c-0.196,0.017-0.594,0.062-0.655-0.043
		c-0.312,0.25-1.068,0.246-1.622,0.326c-1.189,0.173-2.259,0.275-3.532,0.555c-0.215,0.046-0.447,0.02-0.653,0.064
		c-0.064,0.014-0.107,0.108-0.177,0.117c-0.281,0.042-0.841,0.084-0.942,0.042c0.005,0.062-0.022,0.095-0.066,0.113
		c-0.628-0.098-1.413,0.014-1.927-0.024c-0.308-0.025-0.682,0.154-0.97,0.149c0.022,0.001,0.023-0.056-0.043-0.069
		c-0.525-0.11-1.138,0.299-1.78,0.042c-0.463,0.08-0.832,0.215-1.476,0.247c-0.433,0.232-0.899-0.007-1.142,0.449
		c0.074,0.042,0.106,0.136,0.153,0.211c-0.389,0.057-0.599-0.082-0.84-0.18c-0.155,0.196-0.299,0.402-0.41,0.634
		c0.131,0.081,0.087,0.204,0.087,0.359c-0.608,0.196-0.544,1.195-1.217,1.214c-0.033,0.215-0.303,0.213-0.419,0.348
		c-0.019,0.31,0.045,0.461-0.155,0.659c-0.12,0.124-0.5,0.303-0.274,0.376c-0.018,0.063-0.169,0.006-0.176,0.081
		c-0.006,0.458,0.204,1.037,0.329,1.656c-0.125,0.165-0.255,0.493-0.526,0.495c0.062,0.231,0.031,0.282-0.048,0.476
		c0.058,0.096,0.187,0.121,0.226,0.243c-0.043,0.075-0.254,0-0.252,0.119c0.2,0.407,0.754,0.421,1.053,0.717
		c-0.135,0.109,0.058,0.098-0.028,0.22c0.091-0.01,0.15,0.012,0.183,0.064c0.07,0.295-0.181,0.467-0.279,0.23
		c-0.004,0.113,0.037,0.264-0.022,0.328C31.078,82.581,31.461,83.023,31.744,83.369z M14.958,70.691
		c-0.829-1.871-0.887-4.351-1.608-6.544c-0.024-0.048-0.065-0.081-0.149-0.074c0.026-0.528-0.579-1.245-0.52-1.74
		c-0.007-0.074-0.162-0.018-0.195-0.071c-0.003-0.415-0.311-0.368-0.331-0.866c-0.275-0.241-0.237-0.742-0.48-0.903
		c-0.206-1.104-0.685-1.64-0.947-2.564c-0.299-0.141-0.126-0.448-0.466-0.54c-0.111-0.669,0.204-1.712,0.098-2.328
		c0.242-0.398,0.112-0.956,0.382-1.261c-0.083-0.787,0.347-1.74,0.387-2.381c0.22-0.745,0.917-1.197,1.135-2.014
		c0.257-0.134,0.48-0.48,0.904-0.602c0.49-0.443,1.195-0.728,1.708-1.157c0.104,0.28,0.016,0.566-0.01,0.842
		c-0.026,0.209-0.012,0.624-0.014,0.764c-0.063,1.451-0.144,3.117-0.134,4.775c0,0.531-0.048,1.05-0.076,1.605
		c-0.033,0.562,0.137,1.15,0.074,1.682c-0.082,0.658,0.081,1.72-0.093,2.37c0.062,0.346,0.179,0.72,0,1.082
		c0.26,0.654,0.014,1.756,0.294,2.271c-0.143,0.58,0.197,1.419-0.004,2.167c0.106,0.437,0.112,1.209,0.027,1.682
		c0.094,0.739,0.043,1.614-0.047,2.326c0.029,0.099,0.103,0.163,0.158,0.234C14.837,69.861,15.093,70.361,14.958,70.691z
		 M17.65,98.224c0.006-0.063,0.06-0.084,0.144-0.079c-0.078,0.14-0.036,0.111,0.044,0.144C17.898,98.346,17.716,98.303,17.65,98.224
		z M61.206,51.31c-0.894-0.057-2.524-0.344-3.456-0.138c-0.229-0.119-0.57-0.072-0.802-0.002c0.005-0.042,0.068-0.033,0.106-0.04
		c-1.739-0.049-3.41,0.159-5.188,0.156c-0.259,0.117-0.83-0.012-0.935,0.151c-1.128-0.099-1.811,0.068-2.934,0.165
		c-0.051-1.379-0.022-2.448,0.075-3.999c-0.047-0.002-0.1-0.002-0.107,0.041c-0.076-0.008,0.033-0.127,0.103-0.114
		c-0.08-0.538,0.074-1.159,0.037-1.708c0-0.05-0.075-0.077-0.075-0.068c0.009-0.306,0.204-0.625-0.003-0.873
		c0.046-0.038,0.135-0.039,0.139-0.115c0.01-0.62,0.056-0.72,0.047-1.492c2.043,0.367,4.68,0.963,7.039,1.543
		c0.565,0.139,1.121,0.253,1.652,0.364c0.173,0.037,0.33,0.167,0.477,0.196c0.173,0.033,0.578,0.098,0.885,0.218
		c0.121,0.046,0.233,0.211,0.331,0.129c0.043,0.006,0.023,0.036,0.005,0.036c0.333,0.068,0.532,0.373,0.785,0.547
		c0.246,0.171,0.414,0.385,0.61,0.664c-0.023,0.038-0.083,0.039-0.069,0.112c0.826,1.169,1.018,2.714,1.302,4.044
		C61.333,51.155,61.141,51.198,61.206,51.31z M32.655,74.355c-0.079,0.217-0.184,0.085-0.355,0.162
		C32.355,74.33,32.528,74.469,32.655,74.355z"/>
</g>
<polyline fill="#FFFFFF" points="-183.973,44.372 -178.522,44.372 -178.522,45.467 -182.667,45.467 -182.667,48.831 
	-178.839,48.831 -178.839,49.912 -182.667,49.912 -182.667,54.492 -183.973,54.492 -183.973,44.372 "/>
<path fill="#FFFFFF" d="M-171.448,52.51c0,0.751,0.015,1.412,0.06,1.982h-1.17l-0.076-1.187h-0.03
	c-0.345,0.586-1.111,1.352-2.403,1.352c-1.141,0-2.508-0.631-2.508-3.184v-4.25h1.322v4.025c0,1.382,0.422,2.312,1.622,2.312
	c0.887,0,1.502-0.615,1.742-1.201c0.075-0.195,0.12-0.435,0.12-0.676v-4.46h1.322V52.51"/>
<path fill="#FFFFFF" d="M-169.855,49.191c0-0.75-0.014-1.367-0.059-1.968h1.171l0.075,1.203h0.031
	c0.36-0.69,1.201-1.368,2.403-1.368c1.005,0,2.567,0.602,2.567,3.094v4.34h-1.321v-4.189c0-1.171-0.435-2.147-1.682-2.147
	c-0.871,0-1.547,0.616-1.772,1.352c-0.06,0.165-0.089,0.391-0.089,0.616v4.37h-1.323V49.191"/>
<path fill="#FFFFFF" d="M-155.542,43.831v8.784c0,0.646,0.015,1.381,0.06,1.877h-1.186l-0.06-1.261h-0.031
	c-0.405,0.81-1.29,1.426-2.478,1.426c-1.756,0-3.107-1.487-3.107-3.694c-0.015-2.417,1.486-3.905,3.258-3.905
	c1.112,0,1.862,0.527,2.193,1.112h0.03v-4.339H-155.542 M-156.862,50.182c0-0.165-0.017-0.39-0.061-0.556
	c-0.195-0.84-0.917-1.531-1.907-1.531c-1.367,0-2.178,1.202-2.178,2.809c0,1.471,0.722,2.688,2.148,2.688
	c0.886,0,1.696-0.585,1.937-1.577c0.044-0.181,0.061-0.36,0.061-0.571V50.182z"/>
<path fill="#FFFFFF" d="M-148.542,52.751c0,0.63,0.03,1.246,0.12,1.741h-1.2l-0.106-0.916h-0.044
	c-0.405,0.571-1.187,1.081-2.223,1.081c-1.471,0-2.222-1.036-2.222-2.087c0-1.758,1.562-2.719,4.37-2.703v-0.151
	c0-0.6-0.166-1.681-1.652-1.681c-0.675,0-1.382,0.21-1.892,0.541l-0.3-0.872c0.601-0.39,1.47-0.646,2.387-0.646
	c2.224,0,2.764,1.518,2.764,2.974V52.751 M-149.818,50.784c-1.441-0.03-3.078,0.225-3.078,1.637c0,0.855,0.57,1.26,1.247,1.26
	c0.946,0,1.547-0.601,1.757-1.215c0.045-0.135,0.074-0.286,0.074-0.42V50.784z"/>
<path fill="#FFFFFF" d="M-141.827,54.222c-0.346,0.18-1.111,0.436-2.088,0.436c-2.192,0-3.618-1.502-3.618-3.724
	c0-2.237,1.532-3.86,3.904-3.86c0.782,0,1.473,0.195,1.833,0.375l-0.301,1.021c-0.314-0.18-0.81-0.345-1.531-0.345
	c-1.667,0-2.567,1.23-2.567,2.748c0,1.682,1.08,2.718,2.522,2.718c0.751,0,1.247-0.195,1.622-0.36L-141.827,54.222"/>
<path fill="#FFFFFF" d="M-139.107,45.182c0.015,0.451-0.315,0.811-0.842,0.811c-0.465,0-0.794-0.36-0.794-0.811
	c0-0.465,0.344-0.826,0.825-0.826C-139.422,44.356-139.107,44.717-139.107,45.182 M-139.257,54.492h-1.323v-7.269h1.323V54.492z"/>
<path fill="#FFFFFF" d="M-131.088,50.797c0,2.689-1.863,3.86-3.619,3.86c-1.968,0-3.484-1.442-3.484-3.74
	c0-2.432,1.591-3.859,3.604-3.859C-132.5,47.059-131.088,48.576-131.088,50.797 M-136.854,50.873c0,1.592,0.916,2.794,2.207,2.794
	c1.262,0,2.208-1.187,2.208-2.824c0-1.231-0.616-2.794-2.178-2.794S-136.854,49.492-136.854,50.873z M-132.665,44.085l-1.832,2.148
	h-0.946l1.32-2.148H-132.665z"/>
<path fill="#FFFFFF" d="M-130.02,49.191c0-0.75-0.016-1.367-0.061-1.968h1.171l0.074,1.203h0.031c0.36-0.69,1.201-1.368,2.402-1.368
	c1.007,0,2.569,0.602,2.569,3.094v4.34h-1.322v-4.189c0-1.171-0.435-2.147-1.681-2.147c-0.872,0-1.548,0.616-1.772,1.352
	c-0.06,0.165-0.091,0.391-0.091,0.616v4.37h-1.32V49.191"/>
<path fill="#FFFFFF" d="M-258.45,58.182c0.827-0.141,1.987-0.247,3.624-0.247c1.653,0,2.832,0.317,3.622,0.949
	c0.756,0.599,1.267,1.584,1.267,2.745c0,1.16-0.387,2.144-1.091,2.814c-0.914,0.86-2.268,1.248-3.851,1.248
	c-0.352,0-0.668-0.018-0.914-0.054v4.238h-2.656V58.182 M-255.794,63.563c0.229,0.052,0.51,0.07,0.896,0.07
	c1.425,0,2.304-0.721,2.304-1.935c0-1.091-0.755-1.742-2.092-1.742c-0.546,0-0.915,0.054-1.108,0.105V63.563z"/>
<path fill="#FFFFFF" d="M-242.167,67.784c0,0.826,0.037,1.618,0.124,2.091h-2.41l-0.157-0.86h-0.054
	c-0.562,0.685-1.442,1.054-2.462,1.054c-1.741,0-2.778-1.267-2.778-2.638c0-2.233,2.005-3.305,5.047-3.288v-0.123
	c0-0.458-0.246-1.108-1.566-1.108c-0.879,0-1.812,0.299-2.375,0.651l-0.492-1.724c0.598-0.333,1.776-0.756,3.342-0.756
	c2.866,0,3.78,1.688,3.78,3.709V67.784 M-244.769,65.814c-1.407-0.019-2.498,0.316-2.498,1.353c0,0.686,0.458,1.021,1.055,1.021
	c0.669,0,1.214-0.44,1.39-0.985c0.036-0.14,0.053-0.299,0.053-0.457V65.814z"/>
<path fill="#FFFFFF" d="M-240.761,64.107c0-1.265-0.036-2.092-0.069-2.83h2.303l0.088,1.582h0.07
	c0.44-1.248,1.494-1.775,2.321-1.775c0.247,0,0.369,0,0.562,0.035v2.532c-0.193-0.052-0.422-0.087-0.72-0.087
	c-0.985,0-1.653,0.527-1.829,1.353c-0.036,0.176-0.053,0.387-0.053,0.6v4.359h-2.673V64.107"/>
<path fill="#FFFFFF" d="M-228.909,68.803h-0.035c-0.545,0.81-1.408,1.267-2.55,1.267c-1.865,0-3.57-1.635-3.57-4.378
	c0-3.078,1.969-4.607,3.799-4.607c1.107,0,1.917,0.404,2.392,1.195h0.034l0.071-1.002h2.585c-0.017,0.826-0.053,1.687-0.053,2.585
	v9.496h-2.673V68.803 M-228.909,64.882c0-0.14-0.018-0.298-0.053-0.438c-0.14-0.687-0.721-1.286-1.53-1.286
	c-1.231,0-1.847,1.038-1.847,2.429c0,1.442,0.686,2.374,1.811,2.374c0.756,0,1.372-0.51,1.548-1.214
	c0.053-0.176,0.071-0.404,0.071-0.581V64.882z"/>
<path fill="#FFFFFF" d="M-216.706,67.116c0,1.125,0.034,2.04,0.07,2.76h-2.321l-0.124-1.212h-0.052
	c-0.334,0.526-1.143,1.406-2.692,1.406c-1.74,0-3.025-1.089-3.025-3.746v-5.046h2.691v4.625c0,1.249,0.405,2.005,1.337,2.005
	c0.739,0,1.161-0.512,1.336-0.934c0.07-0.157,0.089-0.369,0.089-0.58v-5.117h2.69V67.116"/>
<path fill="#FFFFFF" d="M-213.207,66.429c0.087,1.107,1.178,1.636,2.426,1.636c0.915,0,1.653-0.124,2.375-0.352l0.352,1.811
	c-0.879,0.351-1.952,0.545-3.113,0.545c-2.918,0-4.59-1.705-4.59-4.396c0-2.182,1.354-4.59,4.345-4.59
	c2.778,0,3.833,2.163,3.833,4.29c0,0.457-0.053,0.863-0.088,1.055H-213.207 M-210.06,64.601c0-0.652-0.282-1.742-1.512-1.742
	c-1.126,0-1.583,1.021-1.654,1.742H-210.06z"/>
<polyline fill="#FFFFFF" points="-203.75,58.024 -201.058,58.024 -201.058,67.625 -196.346,67.625 -196.346,69.875 -203.75,69.875 
	-203.75,58.024 "/>
<path fill="#FFFFFF" d="M-188.31,67.784c0,0.826,0.035,1.618,0.123,2.091h-2.409l-0.159-0.86h-0.052
	c-0.562,0.685-1.442,1.054-2.462,1.054c-1.742,0-2.778-1.267-2.778-2.638c0-2.233,2.005-3.305,5.047-3.288v-0.123
	c0-0.458-0.247-1.108-1.565-1.108c-0.878,0-1.812,0.299-2.375,0.651l-0.491-1.724c0.597-0.333,1.776-0.756,3.341-0.756
	c2.867,0,3.781,1.688,3.781,3.709V67.784 M-190.913,65.814c-1.407-0.019-2.497,0.316-2.497,1.353c0,0.686,0.457,1.021,1.055,1.021
	c0.668,0,1.215-0.44,1.39-0.985c0.036-0.14,0.052-0.299,0.052-0.457V65.814z"/>
<polyline fill="#FFFFFF" points="-183.968,58.024 -181.277,58.024 -181.277,67.625 -176.564,67.625 -176.564,69.875 
	-183.968,69.875 -183.968,58.024 "/>
<path fill="#FFFFFF" d="M-173.014,58.884c0,0.74-0.562,1.336-1.442,1.336c-0.843,0-1.407-0.597-1.389-1.336
	c-0.018-0.773,0.546-1.353,1.407-1.353C-173.576,57.532-173.031,58.111-173.014,58.884 M-173.102,69.875h-2.673v-8.598h2.673V69.875
	z"/>
<path fill="#FFFFFF" d="M-171.66,57.39h2.672v4.907h0.036c0.508-0.74,1.406-1.213,2.602-1.213c2.058,0,3.571,1.705,3.553,4.343
	c0,3.096-1.97,4.642-3.939,4.642c-1.003,0-1.97-0.369-2.585-1.39h-0.034l-0.106,1.196h-2.268c0.035-0.562,0.071-1.6,0.071-2.567
	V57.39 M-168.987,66.219c0,0.176,0.017,0.333,0.052,0.475c0.176,0.722,0.792,1.266,1.566,1.266c1.143,0,1.847-0.88,1.847-2.428
	c0-1.336-0.598-2.391-1.847-2.391c-0.722,0-1.39,0.545-1.566,1.318c-0.035,0.159-0.052,0.317-0.052,0.492V66.219z"/>
<path fill="#FFFFFF" d="M-159.739,66.429c0.088,1.107,1.178,1.636,2.427,1.636c0.915,0,1.653-0.124,2.375-0.352l0.352,1.811
	c-0.879,0.351-1.953,0.545-3.113,0.545c-2.918,0-4.589-1.705-4.589-4.396c0-2.182,1.353-4.59,4.343-4.59
	c2.778,0,3.834,2.163,3.834,4.29c0,0.457-0.054,0.863-0.088,1.055H-159.739 M-156.591,64.601c0-0.652-0.281-1.742-1.513-1.742
	c-1.125,0-1.582,1.021-1.652,1.742H-156.591z"/>
<path fill="#FFFFFF" d="M-153.215,64.107c0-1.265-0.035-2.092-0.07-2.83h2.303l0.089,1.582h0.069
	c0.44-1.248,1.496-1.775,2.323-1.775c0.246,0,0.369,0,0.562,0.035v2.532c-0.192-0.052-0.421-0.087-0.721-0.087
	c-0.984,0-1.653,0.527-1.829,1.353c-0.036,0.176-0.052,0.387-0.052,0.6v4.359h-2.673V64.107"/>
<path fill="#FFFFFF" d="M-143.527,58.938v2.34h1.916v1.97h-1.916v3.113c0,1.037,0.246,1.512,1.056,1.512
	c0.369,0,0.527-0.019,0.791-0.069l0.019,2.022c-0.353,0.14-0.985,0.245-1.743,0.245c-0.861,0-1.582-0.317-2.003-0.755
	c-0.492-0.511-0.739-1.336-0.739-2.55v-3.517h-1.142v-1.97h1.142v-1.619L-143.527,58.938"/>
<path fill="#FFFFFF" d="M-133.591,67.784c0,0.826,0.035,1.618,0.122,2.091h-2.408l-0.157-0.86h-0.055
	c-0.562,0.685-1.441,1.054-2.461,1.054c-1.741,0-2.779-1.267-2.779-2.638c0-2.233,2.005-3.305,5.048-3.288v-0.123
	c0-0.458-0.248-1.108-1.565-1.108c-0.88,0-1.812,0.299-2.375,0.651l-0.493-1.724c0.599-0.333,1.778-0.756,3.343-0.756
	c2.866,0,3.781,1.688,3.781,3.709V67.784 M-136.195,65.814c-1.406-0.019-2.498,0.316-2.498,1.353c0,0.686,0.458,1.021,1.056,1.021
	c0.668,0,1.214-0.44,1.389-0.985c0.035-0.14,0.053-0.299,0.053-0.457V65.814z"/>
<path fill="#FFFFFF" d="M-123.85,57.39v9.918c0,0.968,0.034,1.988,0.07,2.567h-2.375l-0.124-1.265h-0.035
	c-0.545,0.967-1.582,1.459-2.689,1.459c-2.042,0-3.676-1.74-3.676-4.413c-0.017-2.902,1.794-4.572,3.852-4.572
	c1.055,0,1.882,0.369,2.27,0.966h0.034v-4.66H-123.85 M-126.523,64.917c0-0.14-0.018-0.333-0.034-0.473
	c-0.159-0.723-0.739-1.32-1.565-1.32c-1.214,0-1.848,1.092-1.848,2.445c0,1.46,0.722,2.374,1.829,2.374
	c0.775,0,1.391-0.526,1.547-1.283c0.053-0.193,0.071-0.386,0.071-0.615V64.917z"/>
</svg>
