<?xml version="1.0" encoding="utf-8"?>
<!-- Generator: Adobe Illustrator 16.0.0, SVG Export Plug-In . SVG Version: 6.00 Build 0)  -->
<!DOCTYPE svg PUBLIC "-//W3C//DTD SVG 1.1//EN" "http://www.w3.org/Graphics/SVG/1.1/DTD/svg11.dtd">
<svg version="1.1" id="Layer_1" xmlns="http://www.w3.org/2000/svg" xmlns:xlink="http://www.w3.org/1999/xlink" x="0px" y="0px"
	 width="90px" height="153px" viewBox="0.333 -3.333 90 153" enable-background="new 0.333 -3.333 90 153" xml:space="preserve">
<g>
	<path fill="#231F20" d="M3.188,118.057c0.671-0.111,1.55-0.208,2.668-0.208c1.375,0,2.381,0.321,3.021,0.896
		c0.591,0.51,0.943,1.295,0.943,2.254c0,0.974-0.288,1.74-0.831,2.301c-0.735,0.781-1.934,1.182-3.292,1.182
		c-0.416,0-0.799-0.016-1.119-0.096v4.314h-1.39V118.057z M4.578,123.252c0.304,0.078,0.687,0.11,1.151,0.11
		c1.678,0,2.7-0.813,2.7-2.301c0-1.424-1.006-2.108-2.541-2.108c-0.607,0-1.07,0.047-1.311,0.11L4.578,123.252L4.578,123.252z"/>
	<path fill="#231F20" d="M16.341,126.847c0,0.672,0.032,1.325,0.128,1.853H15.19l-0.112-0.975H15.03
		c-0.431,0.607-1.262,1.15-2.365,1.15c-1.566,0-2.365-1.103-2.365-2.222c0-1.87,1.662-2.894,4.65-2.875v-0.161
		c0-0.639-0.176-1.789-1.758-1.789c-0.719,0-1.47,0.225-2.014,0.575l-0.319-0.928c0.639-0.414,1.565-0.687,2.541-0.687
		c2.365,0,2.94,1.613,2.94,3.164L16.341,126.847L16.341,126.847z M14.983,124.752c-1.534-0.031-3.276,0.24-3.276,1.742
		c0,0.909,0.607,1.344,1.326,1.344c1.007,0,1.646-0.641,1.87-1.295c0.048-0.145,0.08-0.306,0.08-0.448V124.752z"/>
	<path fill="#231F20" d="M18.292,123.377c0-0.91-0.016-1.692-0.064-2.412h1.23l0.048,1.52h0.064c0.352-1.04,1.198-1.693,2.141-1.693
		c0.16,0,0.272,0.016,0.399,0.047v1.328c-0.144-0.033-0.288-0.051-0.479-0.051c-0.991,0-1.694,0.754-1.886,1.809
		c-0.032,0.189-0.064,0.414-0.064,0.654v4.121h-1.39L18.292,123.377L18.292,123.377z"/>
	<path fill="#231F20" d="M28.312,127.5H28.28c-0.415,0.769-1.278,1.375-2.525,1.375c-1.805,0-3.275-1.564-3.275-3.914
		c0-2.894,1.87-4.172,3.5-4.172c1.198,0,1.997,0.592,2.381,1.344h0.032l0.048-1.168h1.326c-0.031,0.654-0.047,1.326-0.047,2.125
		v8.773h-1.407L28.312,127.5L28.312,127.5z M28.312,124.099c0-0.192-0.016-0.416-0.063-0.593c-0.208-0.863-0.959-1.598-2.013-1.598
		c-1.455,0-2.333,1.229-2.333,2.973c0,1.533,0.735,2.875,2.285,2.875c0.911,0,1.694-0.559,2.014-1.532
		c0.064-0.192,0.111-0.464,0.111-0.673L28.312,124.099L28.312,124.099z"/>
	<path fill="#231F20" d="M38.19,126.59c0,0.8,0.016,1.502,0.064,2.109h-1.247l-0.08-1.264h-0.032
		c-0.368,0.624-1.183,1.438-2.557,1.438c-1.214,0-2.668-0.67-2.668-3.387v-4.521h1.406v4.281c0,1.471,0.448,2.461,1.726,2.461
		c0.943,0,1.598-0.656,1.854-1.276c0.08-0.208,0.128-0.464,0.128-0.722v-4.744h1.406V126.59z"/>
	<path fill="#231F20" d="M40.989,125.088c0.032,1.902,1.247,2.686,2.653,2.686c1.007,0,1.613-0.176,2.141-0.398l0.24,1.006
		c-0.496,0.224-1.343,0.494-2.573,0.494c-2.381,0-3.803-1.582-3.803-3.914s1.374-4.17,3.627-4.17c2.524,0,3.196,2.222,3.196,3.643
		c0,0.288-0.032,0.513-0.049,0.656h-5.432V125.088z M45.111,124.081c0.018-0.894-0.367-2.285-1.949-2.285
		c-1.423,0-2.045,1.312-2.158,2.285H45.111z"/>
</g>
<g>
	<path fill="#F68E1E" d="M86.273,70.476c0.137,0.15,0.053,0.541,0.184,0.703c-0.088-0.01-0.144,0.012-0.188,0.045
		c0.064,0.067,0.119-0.033,0.191,0.067c-0.187,0.349,0.065,0.501-0.153,0.796c0.149,0.354-0.07,0.979-0.015,1.354
		c-0.181,0.128-0.023,0.373-0.17,0.461c0.112,0.266-0.201,0.641-0.221,0.947c-0.046,0.713-0.695,1.812-0.98,2.488
		c-0.016,0.035,0.037,0.081,0.039,0.071c-0.08,0.167-0.227,0.267-0.281,0.39c-0.021,0.045,0.025,0.113,0.004,0.151
		c-0.141,0.267-0.383,0.388-0.383,0.655c-0.036,0.002-0.074,0.004-0.112,0.004c-0.366,0.638-0.735,1.271-1.235,1.785
		c0.035,0.104-0.05,0.102-0.031,0.189c-0.441,0.361-0.736,0.86-1.108,1.289c0.862,1.617,1.606,2.615,2.586,4.059
		c0.056,0.545,0.703,0.824,0.847,1.318c0.473,0.676,1.153,1.453,1.408,2.119c0.448,0.307,0.438,1.007,0.848,1.275
		c0.01,0.367,0.199,0.588,0.228,0.895c-0.157,0.178,0.144,0.695,0.075,0.896c-0.021,0.072-0.198,0.009-0.067,0.115
		c-0.222,0.053-0.493,0.234-0.583,0.439c-0.393,0.068-1.015,0.085-1.311,0.134c0.177,0.437-0.055,0.444-0.116,0.794
		c-0.363-0.104-0.435,0.119-0.747,0.072c0.021,0.132,0.104,0.199,0.197,0.253c-0.076,0.036-0.219,0.04-0.409,0.058
		c-0.047-0.056-0.047-0.094-0.007-0.152c-0.24,0.029-0.18,0.113-0.381-0.059c-0.109,0.217-0.016,0.428-0.2,0.535
		c0.063,0.034,0.101,0.102,0.086,0.223c-0.228,0.221-0.123,0.537-0.308,0.767c0.076,0.133,0.004,0.226,0.054,0.335
		c-0.113,0.031-0.136-0.032-0.228-0.025c-0.021,0.127,0.155,0.039,0.121,0.182c-0.087-0.03-0.158-0.039-0.299,0.013
		c-0.038-0.119-0.113-0.168-0.232-0.103c-0.057-0.119-0.139-0.213-0.271-0.25c-0.212,0.136-0.342,0.215-0.357,0.463
		c-0.084,0.041-0.097,0.041-0.187,0.013c0.094,0.104,0.215,0.185,0.313,0.287c-0.168,0.125-0.393-0.071-0.561,0.062
		c-0.053-0.01-0.034-0.094-0.046-0.148c-0.147,0.021,0.048,0.13-0.106,0.117c-0.05-0.049-0.117-0.068-0.041-0.148
		c-0.17,0.104-0.259-0.344-0.438-0.471c-0.121-0.084-0.265-0.014-0.382-0.133c-0.119,0.082-0.232,0.17-0.364,0.24
		c-0.07-0.08-0.206-0.089-0.236-0.214c-0.03,0.011-0.034,0.04-0.073,0.04c-0.111,0.219,0.198,0.383,0.317,0.362
		c0.054,0.17-0.095,0.151-0.062,0.305c0.053-0.049,0.051-0.146,0.104-0.192c0.081,0.107,0.278,0.086,0.312,0.25
		c-0.461,0.138-0.694-0.332-1.151-0.588c-0.117,0.243-0.183,0.53-0.541,0.549c-0.271-0.265-0.599-0.233-0.921-0.448
		c-0.188-0.373-0.576-0.49-0.865-0.826c-0.006-0.054-0.012-0.104,0.034-0.114c-0.354-0.113-0.327-0.641-0.64-0.801
		c-0.09-0.482-0.572-0.861-0.701-1.434c-0.459-0.676-0.776-1.271-1.18-2.018c-0.315-0.32-0.406-0.895-0.767-1.168
		c-0.013-0.061,0.032-0.066,0.032-0.115c-0.357-0.396-0.499-0.848-0.842-1.201c-2.248,1.209-4.322,2.248-6.75,2.965
		c-0.041,0.008-0.028,0.07-0.032,0.113c-0.556,0.099-0.992,0.307-1.41,0.438c0.364,1.703,1.147,4.313,1.733,6.089
		c0.063-0.002,0.127-0.006,0.188-0.008c0.444,1.104,0.487,1.982,0.925,3.081c0.156,1.131,0.598,2.293,0.93,3.19
		c0.02,0.045,0.054,0.075,0.117,0.07c-0.188,0.307,0.236,0.623,0.115,0.936c0.191,0.117,0.064,0.576,0.299,0.812
		c-0.084,0.58,0.373,1.318,0.394,2.051c-0.067,0.025-0.154,0.026-0.185,0.084c-0.102-0.054-0.3-0.146-0.238-0.254
		c-0.182-0.021-0.131,0.168-0.291,0.163c0.25,0.358,0.027,0.679,0.123,1.158c-0.185,0.28-0.144,0.333-0.271,0.653
		c-0.232,0.035-0.293-0.09-0.492-0.055c-0.207,0.041-0.316,0.258-0.476,0.285c-0.288,0.049-0.509-0.178-0.834-0.152
		c-0.267,0.176-0.196,0.324-0.236,0.649c-0.192,0.069-0.146,0.22-0.397,0.282c-0.018,0.055,0.148,0.085,0.041,0.111
		c-0.069,0.078-0.088-0.039-0.151-0.068c-0.083-0.006-0.011,0.135-0.032,0.189c-0.132,0.014-0.183-0.064-0.302-0.064
		c-0.146,0.154-0.202,0.395-0.39,0.507c-0.119-0.089-0.254,0.085-0.305-0.062c-0.44,0.188-1.058,0.207-1.214,0.656
		c-0.224,0.01-0.349,0.112-0.558,0.137c0.021-0.082-0.112-0.116,0.031-0.114c-0.385,0.011-0.428-0.646-0.68-0.907
		c-0.138-0.008-0.24,0.014-0.334,0.049c-0.066-0.138-0.168-0.236-0.242-0.365c-0.287,0.086,0.022,0.316-0.244,0.463
		c0.011,0.049,0.076,0.035,0.076-0.002c0.111,0.15-0.164,0.256-0.168,0.42c-0.543,0.123-0.58-0.743-0.939-0.824
		c0.089-0.068,0.066-0.217-0.088-0.225c-0.102,0.321,0.047,0.91-0.434,1.149c0.1-0.174-0.365-0.349-0.334-0.698
		c-0.197-0.056-0.308,0.1-0.252,0.272c-0.096,0.008-0.128,0.075-0.183,0.12c-0.593-0.092-0.763-0.604-0.871-1.014
		c-0.351-0.527-0.272-1.42-0.69-2.037c0.068-0.252-0.092-0.383-0.138-0.56c0.044,0.006,0.065-0.011,0.074-0.04
		c-0.44-1.076-0.382-2.277-0.824-3.311c-0.333-2.152-0.832-4.076-1.428-5.987c0.06-0.11,0.042-0.091,0.144-0.119
		c-0.051-0.062-0.152-0.069-0.193-0.144c-0.086-0.545-0.344-1.119-0.381-1.824c-0.289-0.705-0.392-1.62-0.59-2.307
		c-0.652,0.102-1.645,0.215-2.433,0.256c-0.207,0.013-0.431,0.031-0.638,0.031c-1.49-0.004-2.934,0.107-4.619,0.127
		c-0.066,0.189-0.125,0.416-0.125,0.568c-0.001,1.081-0.249,2.273-0.196,3.243c-0.03,0.021-0.06,0.04-0.11,0.042
		c0.023,0.253,0.114,0.465-0.047,0.604c0.129,0.582-0.037,1.324-0.027,1.992c0.277,0.135,0.277,0.323,0.216,0.592
		c-0.153,0.026,0.03-0.103-0.117-0.107c-0.16,0.729-0.251,1.35-0.247,2.081c0,0.101,0.092,0.444,0.1,0.56
		c0.021,0.401-0.112,0.866-0.281,1.291c-0.022,0.116,0.044,0.133,0.05,0.225c-0.032-0.02-0.063-0.039-0.117-0.034
		c-0.015,0.56-0.39,1.411-0.62,2.135c-0.033,0.103,0.016,0.218-0.023,0.3c-0.03,0.064-0.153,0.229-0.172,0.348
		c-0.004,0.021,0.07,0.045,0.076,0.033c-0.051,0.121-0.259,0.258-0.246,0.385c-0.057-0.012,0.002-0.029-0.002-0.072
		c0,0.312-0.332,0.486-0.541,0.512c-0.045-0.089-0.227-0.057-0.084-0.146c-0.015-0.063-0.129,0.056-0.117-0.108
		c-0.057,0.242-0.115,0.026-0.294,0.166c-0.168-0.185-0.397-0.097-0.616-0.353c-0.048,0.117-0.413-0.01-0.521,0.138
		c0.004-0.179-0.082-0.042-0.226,0.013c-0.053,0.146,0.162,0.004,0.156,0.104c-0.111,0.145-0.193,0.365-0.439,0.283
		c0.096,0.06,0.065,0.094-0.036,0.039c-0.047,0.01-0.037,0.074,0.004,0.074c-0.107,0.002-0.212,0.119-0.375,0.053
		c-0.051,0.06-0.022,0.119,0.082,0.108c-0.381,0.077-0.455-0.597-0.927-0.558c-0.396,0.027-0.641,0.771-1.106,0.496
		c-0.051,0.232-1.007,0.474-0.95-0.184c-0.223-0.162-0.042-0.465-0.103-0.671c-0.025-0.083-0.208-0.069-0.083-0.187
		c-0.141-0.174-0.31,0.052-0.525,0.022c-0.417,0.42-0.621,0.894-0.917,1.356c-0.263-0.041-0.193-0.439-0.027-0.562
		c-0.01-0.393-0.177-0.976-0.018-1.278c-0.028-0.158-0.152-0.066-0.087-0.26c-0.518,0.047-0.365,0.523-0.757,0.711
		c-0.089-0.088,0.051-0.166,0.062-0.267c-0.026-0.062-0.088-0.021-0.074,0.041c-0.253-0.521,0.167-1.222-0.469-1.257
		c-0.062-0.223-0.148-0.684-0.519-0.694c-0.001-0.106,0.142-0.087,0.104-0.229c-0.126,0.009-0.003,0.086-0.104,0.156
		c-0.1-0.08-0.011-0.416-0.096-0.449c0.152-0.116-0.081-0.56,0.043-0.752c-0.095-0.43-0.035-1.463,0.099-1.998
		c0,0,0.064,0.043,0.078,0.035c-0.135-0.108,0.048-0.233-0.087-0.261c0.198-0.991,0.181-2.062,0.288-2.868
		c0.05-0.005,0.099-0.007,0.15-0.007c-0.233-0.038,0.06-0.251-0.161-0.219c0.015-0.048,0.047-0.08,0.109-0.08
		c-0.052-0.196-0.149-0.503,0.051-0.528c-0.221-0.312,0.041-0.697,0.068-1.058c0.002-0.045-0.075-0.015-0.078-0.032
		c-0.04-0.277,0.034-0.783,0.106-1.02c0,0,0.076,0.039,0.077,0.033c0.044-0.383-0.021-0.733,0.031-1.019
		c0.001-0.003,0.073,0.002,0.073-0.003c0.006-0.051-0.165-0.053-0.003-0.074c-0.07-0.52,0.095-1.18,0.114-1.695
		c-0.565-0.235-1.38-0.394-2.095-0.623c-0.489-0.158-0.877-0.242-1.189-0.549c0.198-0.123,0.002-0.295,0.017-0.453
		c0.018-0.174,0.269-0.365,0.124-0.644c0.27-0.099,0-0.505,0.158-0.685c-0.005-0.189-0.193-0.576-0.149-0.82
		c0.035-0.193,0.254-0.465,0.232-0.688c-0.336,0.006-0.539-0.045-0.797-0.189c-0.051-0.291-0.145-0.446-0.144-0.709
		c0.187-0.145,0.339-0.374,0.351-0.578c-0.089-0.1-0.215-0.159-0.348-0.212c-0.347-0.375,0.161-0.677,0.332-0.991
		c0.249,0.036,0.207-0.191,0.443-0.17c-0.013-0.166,0.013-0.318,0.089-0.531c-0.194-0.066,0.221-0.516-0.108-0.746
		c-0.039-0.07,0.165-0.22-0.011-0.263c0.014-0.048,0.044-0.08,0.109-0.08c-0.002-0.249-0.035-0.321,0.094-0.419
		c0.004-0.158-0.084-0.337-0.059-0.484c0.058-0.36,0.262-0.453,0.612-0.629c0.096-0.047,0.171-0.184,0.29-0.238
		c0.228-0.103,0.545-0.01,0.785-0.109c0.508-0.212,1.197-0.271,1.875-0.156c0.154,0.026,0.296,0.135,0.457,0.166
		c0.287,0.064,0.6,0.022,0.83,0.077c0.006,0.002,0.028,0.106,0.042,0.111c0.281,0.082,0.775,0.012,0.987,0.22
		c0.406-0.095,0.734,0.044,1.13,0.062c0.791,0.037,1.63-0.153,2.51-0.225c0.321-0.023,0.638,0.018,0.939-0.003
		c0.437-0.028,0.979-0.116,1.204,0.022c0.881-0.27,1.73,0.002,2.479-0.072c0.746-0.073,1.486-0.271,2.24-0.359
		c0.189-0.025,0.381,0.03,0.562,0.01c1.957-0.211,3.908-0.811,5.744-1.078c0.545-0.078,1.188-0.23,1.754-0.303
		c1.291-0.377,2.957-0.783,3.994-1.492c0.701-0.19,1.355-0.51,1.84-0.906c0.884-0.288,1.748-0.725,2.582-1.131
		c0.209-0.102,0.369-0.281,0.584-0.4c0.213-0.115,0.492-0.137,0.703-0.258c0.451-0.258,0.814-0.693,1.313-0.885
		c0.086-0.024-0.047-0.055,0.032-0.113c0.152,0.046,0.115-0.089,0.222-0.085c0.146-0.349,0.597-0.38,0.757-0.786
		c1.053-0.775,1.785-1.846,2.813-2.641c0.444-0.728,1.135-1.223,1.53-1.985c0.449-0.356,0.588-0.999,0.992-1.397
		c0.034-0.232,0.144-0.396,0.276-0.541c0.112-0.429,0.549-0.862,0.731-1.347c0.025-0.021,0.059-0.042,0.109-0.042
		c0.03-0.133,0.158-0.396,0.281-0.426c0.031-0.097,0.105-0.386,0.318-0.426c-0.144-0.024,0.047-0.255,0.145-0.157
		c-0.064-0.177,0.023-0.094,0.023-0.266c0.302-0.005,0.295-0.621,0.625-0.365c0.109-0.071-0.147-0.071-0.121-0.182
		c0.412-0.336,0.912-0.893,1.143-1.404c0.625-0.05,1.021,0.005,1.146-0.39c0.07,0.058,0.148,0.1,0.127,0.259
		c0.199,0.165,0.738,0.494,0.564,0.915c0.034,0.055,0.1,0.078,0.189,0.066c-0.149,0.01,0.029,0.314-0.137,0.307
		c0.261,0.167-0.045,0.546,0.326,0.549c0.174,0.002,0.404-0.354,0.426-0.544c0.016-0.126,0.101-0.033,0.107-0.117
		c0.004-0.017-0.068-0.052-0.074-0.032c0.072-0.137,0.342-0.37,0.432-0.397c0.363-0.107,0.779,0.365,1.152,0.513
		c0.068-0.035,0.133-0.069,0.221-0.086c0.104,0.124,0.174,0.282,0.354,0.323c-0.081,0.303,0.161,0.652,0.117,0.973
		c0.357,0.117,0.634,0.976,1.244,0.922c0.111,0.155,0.382,0.134,0.501,0.279c0.123,0.426,0.176,1.347,0.081,1.838
		C86.396,70.21,86.414,70.464,86.273,70.476z M84.617,67.839c0.025,0.051,0.146-0.001,0.153,0.068
		c-0.126,0.094,0.042,0.088-0.026,0.266c0.157-0.054,0.262-0.044,0.225-0.048c-0.072-0.068-0.008-0.093-0.008-0.187
		c-0.06-0.044-0.155-0.042-0.193-0.103C84.873,67.814,84.625,67.79,84.617,67.839z"/>
	<path fill="#F68E1E" d="M76.02,45.738c-0.006-0.009-0.013-0.018-0.021-0.03C75.919,45.717,75.937,45.728,76.02,45.738z
		 M76.173,45.75c-0.064-0.004-0.115-0.009-0.153-0.013C76.074,45.818,76.091,45.781,76.173,45.75z M79.658,57.051
		c0.057,0.002,0.086-0.021,0.112-0.043c-0.185-0.003-0.372-0.007-0.558-0.013C79.296,57.008,79.441,57.026,79.658,57.051z
		 M79.818,56.97c-0.016,0.013-0.031,0.024-0.048,0.038c0.142,0.003,0.282,0.004,0.422,0.007c-0.038-0.01-0.075-0.024-0.11-0.036
		C79.99,56.974,79.901,56.971,79.818,56.97z M84.205,51.812c0.064-0.012,0.082-0.069,0.066-0.153
		c-0.166-0.188-0.312-0.395-0.477-0.581c0.254-0.04,0.062-0.437,0.045-0.642c0.131-0.014,0.168-0.111,0.258-0.161
		c0.053-0.136-0.131-0.018-0.117-0.108c-0.034-0.435-0.312-0.601-0.562-0.803c-0.225,0.046-0.363-0.032-0.569-0.163
		c-0.418-0.047-0.638,0.199-0.866,0c0.046-0.007,0.038-0.061,0.032-0.115c0.351,0.033,0.594-0.166,0.825-0.036
		c0.109-0.117,0.207-0.244,0.361-0.316c-0.191-0.352,0.176-0.387,0.16-0.684c-0.113-0.061-0.186-0.166-0.24-0.29
		c0.086-0.116,0.176-0.224,0.211-0.386c-0.179-0.198-0.392-0.36-0.625-0.499c-0.088,0.004-0.176,0.008-0.265,0.011
		c-0.223-0.225-0.847-0.018-0.989-0.332c0.219-0.087,0.553-0.069,0.625-0.29c-0.467-0.226-1.14-0.308-1.785-0.411V45.85
		c-0.158-0.002-0.322-0.005-0.49-0.007c-0.928,0.008-1.854,0.018-2.62-0.048c-0.499,0.039-1.115,0.224-1.841,0.08
		c-0.139-0.418-0.074-0.827-0.129-1.233c-0.008-0.055-0.107-0.093-0.119-0.146c-0.034-0.145-0.037-0.361-0.061-0.523
		c-0.117-0.82-0.275-1.777-0.498-2.761c-0.053-0.229-0.281-0.587-0.182-0.706c-0.12-0.065-0.122-0.261-0.132-0.447
		c-0.354-0.711-0.408-1.309-0.888-2.141c0.113-0.051-0.059-0.142,0.033-0.19c-0.056-0.09-0.139,0.047-0.156-0.031
		c0.117-0.092-0.037-0.449-0.205-0.48c0.097-0.178-0.071-0.445-0.213-0.517c0.078-0.08-0.037-0.119,0.028-0.188
		c-0.181,0.026-0.118-0.211-0.163-0.331c-0.052,0-0.1,0.003-0.15,0.006c0.017-0.225-0.09-0.512-0.289-0.589
		c-0.26-0.7-0.848-1.311-1.32-1.822c0.014-0.176-0.18-0.217-0.238-0.291c-0.103-0.125-0.133-0.311-0.246-0.44
		c-0.235-0.275-0.672-0.611-0.936-0.785c-0.266-0.177-0.518-0.528-0.822-0.718c-0.182-0.112-0.38-0.069-0.424-0.281
		c-0.062,0.003-0.126,0.006-0.188,0.009c0.013-0.181-0.24-0.075-0.274-0.289c-0.487-0.136-0.875-0.47-1.308-0.655
		c-0.349-0.152-0.912-0.289-1.146-0.402c-0.314-0.151-0.79-0.248-1.111-0.478c-0.77-0.032-1.808-0.571-2.66-0.633
		c-0.334-0.185-0.875-0.315-1.219-0.36c-0.865-0.271-1.668-0.584-2.549-0.679c-0.363-0.218-0.798-0.289-1.218-0.322
		c-1.562-0.58-3.325-0.701-4.933-1.023c-0.299,0.133-0.533-0.083-0.901,0.002c0.034-0.662-0.129-1.651-0.022-2.219
		c0.067-0.363,0.012-1.016,0.01-1.503c0-0.315,0.006-0.583-0.034-0.79c-0.021-0.101,0.067-0.202,0.062-0.303
		c-0.015-0.179-0.082-0.367-0.1-0.558c-0.072-0.79-0.215-1.428-0.135-2.137c-0.205-0.067-0.024-0.389-0.172-0.52
		c-0.008-0.15,0.063-0.228,0.059-0.38c-0.191-0.503-0.047-1.138-0.117-1.798c-0.031-0.313-0.061-0.613-0.089-0.911
		c0.008,0,0.015,0.002,0.022,0.006c0.014-0.653,0.006-1.309-0.037-1.999c-0.01-0.161,0.049-0.373,0.043-0.438
		c-0.002-0.023-0.107-0.061-0.117-0.088c-0.073-0.373,0.111-0.821,0.055-1.165c-0.004-0.015-0.074-0.001-0.076-0.059
		c-0.022-0.644-0.062-1.229-0.06-1.865c-0.089-0.04-0.108-0.131-0.151-0.206c0.026-0.547-0.168-1.257-0.289-1.723
		c0.022-0.337-0.127-0.706-0.259-0.934c0.054-0.589-0.188-1.221-0.14-1.75c-0.318-0.378-0.12-1.049-0.443-1.46
		c0.008-0.251-0.146-0.449-0.031-0.701c-0.045-0.014-0.088-0.031-0.115-0.06c-0.041-0.717-0.453-1.344-0.364-1.896
		c-0.034-0.031-0.142-0.011-0.115-0.088c0.126-0.604-0.229-0.974-0.252-1.546c-0.179-0.015-0.164-0.222-0.151-0.293
		c-0.312-0.071-0.498-0.371-0.686-0.444c0.072-0.05-0.03-0.074,0.004-0.174c-0.586-0.418-1.137-0.14-1.684-0.542
		c-0.019,0.053-0.019,0.121-0.077,0.146c-0.419-0.063-0.894,0.012-1.229,0.104c-0.14-0.127-0.236-0.286-0.302-0.47
		c-0.334,0.095-0.73-0.04-0.996,0.08c-0.217,0.57-0.654-0.089-1.227-0.014c-0.126,0.074-0.175,0.21-0.386,0.144
		c-0.111,0.179-0.325,0.271-0.54,0.43c0.065,0.144,0.306,0.158,0.38,0.295c-0.236-0.001-0.597-0.015-0.842-0.153
		c-0.598,0.143-0.966-0.127-1.454-0.219c-0.339,0.167-0.743,0.156-1.153,0.221c-0.11,0.2-0.256,0.456-0.312,0.726
		c-0.106,0.487-0.164,1.203-0.054,1.428c-0.103,0.932,0.013,2.015,0.048,2.942c0.017,0.45-0.092,0.904,0.102,1.283
		c-0.24,0.198,0.072,0.461-0.082,0.668c0.148,0.432,0.086,0.81,0.102,1.254c0.054,0.066,0.095-0.035,0.116,0.03
		c-0.2,0.133,0.1,0.7-0.086,0.845c0.042,0.411,0.065,0.79,0.076,1.156c-0.049-0.016-0.098-0.03-0.147-0.046
		c0.001,0.016,0.001,0.031,0.001,0.047c0.061,0.001,0.131-0.01,0.118,0.07c-0.149-0.054-0.072,0.1-0.146,0.119
		c0.133,1.026-0.084,2.121-0.05,3.122c0.007,0.251,0.082,0.552,0.073,0.862c0,0.08-0.03,0.114-0.026,0.189
		c0.09,2.613,0.108,4.833,0.396,7.277c-0.115,0.411-0.104,0.881-0.092,1.358c0.035,1.44,0.018,2.854,0.113,4.317
		c-0.374-0.012-0.77-0.015-1.164,0.014c-0.284,0.021-0.558,0.122-0.82,0.148c0,0,0.026-0.078,0.034-0.076
		c-0.392-0.085-1.229,0.119-1.647,0.147c-2.12,0.145-4.659,0.479-7.019,0.711c-0.005-0.056-0.021-0.103-0.09-0.113
		c0.037-0.002,0.076-0.003,0.113-0.004c-0.063-0.663,0.06-1.269-0.075-1.698c0.038-0.002,0.047,0.048,0.079,0.059
		c-0.118-0.273-0.156-0.521,0.007-0.694c-0.077-0.04-0.108-0.163-0.127-0.309c0.032-0.146,0.137-0.182,0.173-0.324
		c-0.116-0.308-0.173-0.472-0.11-0.814c-0.225,0.039-0.165-0.652,0.006-0.694c0.006-0.259-0.092,0.054-0.156-0.118
		c-0.007-0.168,0.098-0.166,0.14-0.259c-0.082,0.015-0.121-0.046-0.121-0.185c0.192-0.405-0.049-0.93-0.099-1.382
		c-0.024-0.229,0.046-0.981-0.123-1.067c0.039-0.263,0.041-0.523,0.006-0.757c-0.09-0.567-0.191-1.51-0.284-2.13
		c-0.312-2.124-0.422-4.568-1.075-6.511c-0.112,0.124-0.162-0.185-0.166-0.371c-0.516-0.27-0.833-0.187-1.392-0.001
		c-0.005-0.126-0.106-0.076-0.085-0.248c-0.216,0.163-0.332-0.142-0.524,0.084c-0.599-0.594-1.396-0.45-1.863,0.397
		c-0.115-0.009-0.212-0.054-0.303-0.112c-0.081,0.095,0.053,0.152-0.029,0.191c-0.807-0.31-1.568,1.104-1.665,2.342
		c-0.015,0.182,0.085,0.377-0.053,0.507c-0.229-0.273-0.519-0.597-0.461-1.114c-0.249-0.107-0.325-0.529-0.557-0.67
		c-0.364,0.552-0.634-0.346-0.917-0.339c-0.075,0.105-0.03,0.388-0.091,0.51c-0.137-0.041-0.2-0.22-0.383-0.172
		c-0.061,0.136-0.077,0.189-0.021,0.378c-0.127,0.271-0.425,0.047-0.475,0.336c0.067-0.012,0.09,0.06,0.083,0.185
		c-0.078-0.031-0.082-0.185-0.151-0.056c0.078,0.462-0.168,0.621-0.131,1.33c-0.104-0.042-0.07,0.129-0.144,0.132
		c-0.218,1.612-0.26,3.03-0.2,4.864c-0.024,0.101-0.115,0.101-0.102,0.257c0.19,1.552-0.14,3.262-0.02,4.666
		c-0.054,0.027-0.062,0.079-0.114,0.005c0.104,0.961-0.009,1.504,0.108,2.455c0.116,0.155,0.02,0.57,0.039,0.88
		c0.02,0.303,0.148,0.865,0.198,1.062c0.096,0.396,0.009,0.767,0.047,1.07c0.044,0.367,0.179,0.755,0.161,1.064
		c-1.023,0.411-1.847,0.99-2.809,1.365c-1.553,1.184-3.574,2.128-5.005,3.303c-0.374,0.037-0.72,0.606-1.091,0.8
		c-0.157,0.261-0.676,0.665-0.707,1.046c0.002-0.067-0.041-0.085-0.115-0.07c-0.374,0.863-1.183,1.968-1.405,3.144
		c-0.527,0.892-0.89,2.247-1.153,3.662c-0.183,0.486-0.248,1.03-0.313,1.479c-0.067,0.482-0.055,0.964-0.201,1.399
		c-0.042,0.758-0.037,1.611-0.042,2.445c-0.001,0.146,0.001,0.345-0.016,0.489c-0.084,0.676-0.19,1.258-0.067,1.922
		c0.155,0.834,0.521,1.713,0.645,2.678c0.04,0.034,0.079,0.07,0.117,0.106c0.131,1.039,0.546,1.8,0.731,2.902
		c0.607,1.387,0.915,2.722,1.084,4.163C5.835,61.191,5.796,62,5.926,62.755c0.084,0.483,0.239,1.021,0.368,1.525
		c0.029,0.107,0.129,0.163,0.125,0.257c-0.019,0.568,0.272,1.106,0.334,1.64c0.348,0.673,0.63,1.435,0.883,2.105
		c0.238,0.122,0.211,0.53,0.442,0.659c0.065,0.32,0.454,0.797,0.503,1.139c1.61,3.271,5.225,4.594,8.279,6.219
		c-0.041,2.033,0.238,4.157,0.044,6.125c0.069,0.733-0.023,1.832-0.105,2.711c0.105,0.117,0.065,0.543-0.046,0.644
		c0.091,2.327-0.368,3.937-0.172,6.397c0.095,0.055,0.133,0.172,0.236,0.217c-0.094,0.313-0.114,0.979,0.271,1.037
		c-0.045-0.14-0.222-0.724,0.158-0.685c0.187,0.114,0.167,0.448,0.362,0.552c1.036-0.361,0.71,0.908,0.74,1.395
		c0.075-0.002,0.149-0.006,0.223-0.01c0.002-0.263,0.019-0.445,0.2-0.61c0,0.065,0.033,0.095,0.08,0.11
		c-0.01-0.181-0.103-0.316,0.018-0.453c0.206-0.041,0.264,0.078,0.346,0.173c-0.151-0.052-0.006,0.165-0.107,0.157
		c0.01-0.049-0.113-0.125-0.113-0.032c0.106,0.079,0.116,0.188,0.165,0.331c0.168-0.08,0.431,0.076,0.5,0.24
		c0.342-0.066,0.252,0.297,0.51,0.504c-0.019,0.326-0.222,0.74,0.076,0.861c-0.029-0.218,0.105-0.685,0.107-0.945
		c0.171,0.098,0.099-0.15,0.257-0.162c0.2,0.033,0.492,0.068,0.538,0.316c0.117-0.121-0.003-0.064-0.008-0.226
		c0.172-0.06,0.607-0.04,0.667-0.218c0.245,0.086,0.362-0.024,0.559-0.102c0.061,0.038,0.084,0.117,0.192,0.104
		c0.069-0.135-0.025-0.168-0.049-0.299c0.271,0.033,0.351-0.047,0.605,0.123c-0.048-0.227,0.194,0.02,0.22-0.158
		c0.144,0.078,0.087,0.377,0.279,0.4c0.062-0.004,0.017-0.105,0.071-0.117c0.007,0.045-0.001,0.109,0.043,0.111
		c0.086-0.04,0.163-0.089,0.219-0.158c-0.071,0.073-0.019,0.15,0.045,0.188c0.078-0.079,0.078-0.151,0.214-0.236
		c-0.39-0.265,0.401-0.605,0.498-0.662c0.251,0.092,0.171-0.013,0.53,0.09c0.04-0.177,0.194-0.054,0.37-0.129
		c0.072,0.053,0.106,0.147,0.232,0.143c0.006-0.047,0.04-0.026,0.076-0.004c-0.011-0.105,0.124-0.08,0.065-0.23
		c0.08,0.032,0.116,0.111,0.229,0.102c0.091-0.142,0.119-0.346,0.361-0.352c-0.026-0.119-0.075-0.208-0.127-0.296
		c0.233,0.005-0.013-0.222,0.256-0.196c-0.048-0.258,0.25-0.277,0.508-0.4c-0.062-0.188,0.084-0.186,0.138-0.27
		c0.08-0.337,0.032-0.787,0.218-1.023c-0.039-0.254-0.024-0.656,0.108-0.983c-0.094-0.794,0.188-1.81,0.114-2.521
		c0.265-1.078,0.121-2.695,0.237-3.998c0.05-0.563,0.024-1.486,0.001-1.69c-0.051-0.453,0.182-1.257-0.028-1.467
		c0.044-0.009,0.108,0.004,0.112-0.041c-0.063,0.011-0.095-0.038-0.002-0.038c-0.102-0.76,0.002-1.323-0.126-2.025
		c0.127-0.455,0.033-0.93,0.052-1.393c-0.629-0.495-0.461-1.816,0.169-2.15c-0.023-0.684-0.025-1.328,0.063-1.959
		c0.166-0.072,0.084-0.008,0.192,0.105c0.001-0.061-0.012-0.131,0.07-0.117c-0.049-0.125-0.077-0.055-0.047-0.223
		c0.149,0.002,0.191-0.09,0.295-0.127c-0.051-0.236,0.141-0.307-0.021-0.45c0.053-0.095,0.141-0.156,0.137-0.306
		c-0.106-0.08-0.193-0.181-0.275-0.287c0.04-0.121,0.093-0.229,0.135-0.346c-0.14-0.072-0.212-0.215-0.349-0.287
		c0.157,0-0.004-0.057-0.006-0.113c0.044,0.006,0.087,0.064,0.112-0.004c-0.142-0.073,0.006-0.409-0.207-0.404
		c0.063-0.234-0.034-0.193,0.098-0.342c-0.173-0.238-0.032-0.521-0.034-0.789c-0.001-0.074-0.083-0.139-0.086-0.221
		c-0.01-0.405,0.077-0.824,0.098-1.246c0.008-0.263-0.07-0.492-0.072-0.749c-0.004-0.304,0.083-0.626,0.074-0.905
		c-0.006-0.127-0.112-0.369,0.056-0.417c-0.168,0.006-0.051-0.083-0.119-0.145c0.039-1.002-0.069-2.339,0.064-3.649
		c-0.181-0.214-0.023-0.62,0.042-0.792c-0.045-0.003-0.108,0.011-0.115-0.032c-0.051-0.776-0.082-1.773-0.226-2.546
		c0.036-1.427-0.113-2.751-0.109-4.206c-0.291-1.128-0.271-2.488-0.464-3.741c0.016-0.108,0.024-0.066,0.064-0.19
		c-0.118-0.481-0.209-1.149-0.264-1.754c-0.015-0.174,0.053-0.37,0.013-0.564c-0.05-0.24-0.117-0.434,0.011-0.603
		c-0.044-0.005-0.107,0.011-0.113-0.032c0.006-1.053-0.164-2.167,0.02-2.933c-0.064-0.035-0.048-0.158-0.085-0.222
		c0.09,0.011-0.028-0.17,0.107-0.117c-0.197-1.067,0.133-2.069,0.16-3.204c0.024-0.924-0.05-1.87-0.16-2.775
		c1.168-0.115,2.183-0.358,3.218-0.367c2.488-0.477,4.723-0.734,7.183-0.806c-0.003,0.241-0.098,0.457,0.03,0.676
		c-0.146,0.492-0.167,1.247-0.081,1.583c-0.118,0.682-0.119,1.431-0.028,1.919c-0.114,0.677-0.051,1.598-0.044,2.407
		c0.001,0.063-0.031,0.126-0.029,0.189c0.031,1.958-0.107,3.891-0.202,5.65c-0.027,0.465-0.173,1.082-0.131,1.284
		c0.023,0.108,0.163,0.205,0.012,0.301c0.146,0.109,0.046,0.242,0.203,0.328c-0.138,0.442,0.054,0.856,0.205,1.232
		c-0.001,0.06-0.096,0.034-0.07,0.116c0.318,0.972,0.748,1.979,1.25,2.803c0.101-0.005,0.2-0.009,0.301-0.013
		c0.026-0.096,0.068-0.179,0.141-0.232c0.272-0.062,0.3,0.143,0.386,0.283c-0.033,0.102-0.143,0.133-0.177,0.234
		c0.148,0.15,0.226,0.318,0.464,0.281c-0.012,0.167,0.322,0.272,0.361,0.509c0.235-0.014,0.474,0.047,0.682,0.16
		c0.007-0.154,0.102-0.004,0.185-0.084c0.08-0.117-0.064-0.229,0.062-0.267c0.249,0.004,0.35,0.242,0.607,0.125
		c1.006,0.451,2.223,0.428,3.361,0.303c0.004,0.1-0.005,0.214,0.047,0.262c0.242,0.015,0.147-0.275,0.325-0.315
		c0.824-0.082,2.109-0.126,2.816-0.049c0.319-0.128,0.604-0.079,1.092-0.047c0.229-0.242,0.556-0.118,0.859-0.115
		c1.285,0.023,2.709,0.027,3.864-0.095c0.045,0.144,0.179,0.042,0.229,0.103c0.076,0.01,0.072-0.053,0.109-0.079
		c0.426,0.042,1.123,0.01,1.391-0.023c0.164-0.02,0.328,0.058,0.49,0.054c0.938-0.022,1.823-0.083,2.741-0.083
		c0.866,0,1.798-0.052,2.743-0.044c0.986,0.006,2.422-0.093,3.382,0c-0.019,0.374,0.002,0.577-0.151,0.795
		c0.011,0.985-0.596,1.846-1.197,2.686c-0.198,0.644-0.82,1.257-0.965,1.998c-0.137,0.092-0.338,0.34-0.313,0.578
		c-0.047,0-0.055-0.047-0.112-0.033c-0.184,0.44-0.535,0.765-0.695,1.308c-0.07-0.004-0.081,0.047-0.147,0.044
		c0.017,0.183-0.103,0.241-0.095,0.417c-0.047,0-0.053-0.045-0.113-0.032c-0.312,0.518-0.906,0.778-1.457,1.082
		c-0.082,0.057,0.053,0.086-0.031,0.112c-0.179,0.065-0.442,0.164-0.479,0.247c-0.588,0.189-1.044,0.269-1.599,0.447
		c0.09-0.156-0.096,0.008-0.227-0.029c0-0.064-0.012-0.115-0.044-0.147c-0.228-0.024-0.312,0.126-0.448,0.021
		c-0.058,0.066-0.138,0.115-0.219,0.161c-0.954,0.115-2.318,0.43-2.951,0.468c-0.871,0.047-1.701,0.31-2.468,0.295
		c-0.019,0.204-0.062,0.022-0.149,0.045c-0.213,0.054-0.254,0.112-0.52,0.134c-0.2,0.017-0.613,0.063-0.68-0.045
		c-0.322,0.259-1.104,0.253-1.676,0.338c-1.229,0.178-2.343,0.283-3.66,0.574c-0.222,0.048-0.46,0.021-0.672,0.067
		c-0.067,0.014-0.116,0.112-0.185,0.121c-0.292,0.044-0.874,0.087-0.976,0.042c0.006,0.065-0.023,0.098-0.069,0.117
		c-0.647-0.102-1.463,0.015-1.994-0.024c-0.32-0.025-0.707,0.16-1.008,0.155c0.027,0.002,0.029-0.057-0.042-0.072
		c-0.542-0.114-1.178,0.308-1.839,0.043c-0.482,0.082-0.865,0.222-1.531,0.255c-0.447,0.241-0.927-0.007-1.183,0.465
		c0.082,0.045,0.113,0.139,0.16,0.219c-0.403,0.059-0.617-0.088-0.872-0.186c-0.158,0.2-0.306,0.412-0.423,0.656
		c0.139,0.082,0.091,0.21,0.092,0.373c-0.632,0.199-0.562,1.236-1.26,1.257c-0.035,0.222-0.314,0.22-0.435,0.358
		c-0.018,0.322,0.047,0.479-0.159,0.684c-0.126,0.126-0.52,0.312-0.283,0.391c-0.021,0.062-0.179,0.004-0.185,0.082
		c-0.005,0.475,0.212,1.075,0.338,1.715c-0.125,0.172-0.261,0.508-0.542,0.513c0.066,0.237,0.03,0.291-0.053,0.491
		c0.063,0.101,0.197,0.125,0.236,0.254c-0.047,0.074-0.264,0-0.258,0.123c0.205,0.418,0.781,0.435,1.087,0.742
		c-0.14,0.11,0.061,0.101-0.028,0.228c0.092-0.011,0.156,0.011,0.19,0.065c0.071,0.305-0.188,0.483-0.291,0.237
		c-0.001,0.117,0.039,0.274-0.024,0.341c0.49,0.26,0.886,0.719,1.177,1.075c-0.016,0.253,0.204,0.312,0.395,0.435
		c-0.064,0-0.095,0.033-0.109,0.078c0.685,0.176,1.429,0.328,2.118,0.283c0.618,0.232,1.536,0.194,2.151,0.206
		c0.509,0.015,1.015,0.07,1.468,0.05c0.336-0.016,0.653-0.092,0.974-0.082c0.171,0.006,0.334,0.088,0.492,0.092
		c1.719,0.051,3.23-0.422,5.275-0.646c0.033-0.053,0.122-0.055,0.144-0.118c-0.016,0.161,0.264,0.002,0.307,0.1
		c0.993-0.277,2.059-0.264,2.906-0.578c0.011,0.105,0.16,0.061,0.268,0.061c0.932-0.138,1.688-0.304,2.387-0.441
		c0.189-0.037,0.765-0.155,0.894-0.153c0.487,0.019,1.172-0.183,1.608-0.22c0.172-0.016,0.428,0.062,0.408-0.094
		c0.422,0.035,1.29-0.107,1.645-0.224c0.125,0.117,0.244,0.004,0.377-0.017c0.574-0.082,1.355-0.09,1.898-0.385
		c0.225-0.041,0.353-0.01,0.635-0.141c-0.039,0.002-0.051-0.064-0.004-0.072c0.108,0.155,0.441-0.068,0.558-0.14
		c1.512-0.242,2.198-1.455,3.728-1.631c0.002-0.056-0.021-0.14,0.028-0.151c0.062,0.071,0.235,0.139,0.229,0.028
		c0.031,0.067,0.112,0.019,0.043,0.11c0.281-0.172,0.568-0.102,0.854-0.227c0.281-0.263,0.788-0.46,1.208-0.768
		c-0.054-0.008-0.046-0.082-0.082-0.109c0.108,0.002,0.074,0.158,0.197,0.145c0.098-0.066,0.265-0.229,0.257-0.088
		c0.018-0.045,0.038-0.086,0.07-0.115c0.668-0.201,1.168-0.78,1.91-1.027c0.205-0.62,0.562-0.908,0.879-1.393
		c-0.092-0.027,0.08-0.112,0.029-0.225c0.163-0.039,0.195-0.201,0.205-0.386c0.368-0.349,0.523-0.866,0.807-1.276
		c0.164-0.229,0.472-0.486,0.422-0.732c0.054,0.011,0.064,0.041,0.113-0.004c-0.009-0.227,0.227-0.227,0.205-0.46
		c0.268-0.396,0.629-0.764,0.926-1.169c0.192-0.263,0.566-0.741,0.597-0.965c0.391-0.286,0.646-0.693,0.78-1.089
		c0.174-0.51,0.771-1.132,0.681-1.609c0.13-0.2,0.077-0.569,0.151-0.833c0.029-0.106,0.142-0.194,0.176-0.308
		c0.051-0.18,0.002-0.414,0.047-0.603c0.006-0.025,0.097-0.048,0.107-0.082c0.104-0.234,0.062-0.491,0.082-0.756
		c0.332-1.114,0.215-2.749,0.571-4.085c1.187-0.053,2.284-0.017,3.382,0.01c-0.281-0.044,0.084-0.042,0.605-0.024
		c0.023-0.022,0.053-0.041,0.098-0.042c0.055,0.021,0.11,0.035,0.165,0.051c0.321,0.012,0.663,0.026,0.945,0.036
		c0.049,0,0.096,0,0.144,0c-0.023,0-0.039-0.042,0-0.038c0.739,0.065,0.432,0.06-0.144,0.038c-0.28,0.003-0.558,0.001-0.834,0
		c0.754,0.188,1.63-0.003,2.278-0.125c0.086-0.095-0.096-0.097-0.049-0.261c0.282-0.073,0.506,0.059,0.668-0.216
		c0.143-0.243-0.024-0.465,0.233-0.613c0.147-0.083,0.626-0.104,0.751-0.069c0.045-0.089,0.146-0.132,0.1-0.306
		c-0.211-0.138-0.41-0.286-0.654-0.385c-0.072-0.194-0.051-0.367,0.053-0.455c0.208-0.025,0.428-0.04,0.439-0.244
		c-0.144-0.183-0.471-0.167-0.508-0.466c0.17-0.006,0.262,0.114,0.416,0.019c-0.396-0.588,0.108-0.944,0.6-0.853
		C84.99,52.438,84.438,52.26,84.205,51.812z M16.443,65.676c-0.862-1.939-0.922-4.504-1.665-6.774
		c-0.025-0.05-0.072-0.083-0.156-0.078c0.025-0.546-0.603-1.288-0.535-1.801c-0.012-0.077-0.173-0.017-0.207-0.075
		c-0.001-0.429-0.321-0.377-0.344-0.896c-0.285-0.247-0.243-0.766-0.497-0.933c-0.213-1.143-0.708-1.696-0.979-2.654
		c-0.309-0.146-0.131-0.464-0.48-0.56c-0.116-0.692,0.209-1.772,0.097-2.41c0.255-0.413,0.117-0.991,0.398-1.303
		c-0.087-0.816,0.359-1.803,0.398-2.467c0.228-0.771,0.952-1.239,1.176-2.084c0.265-0.139,0.497-0.497,0.935-0.624
		c0.51-0.458,1.238-0.754,1.769-1.198c0.108,0.29,0.02,0.587-0.011,0.872c-0.022,0.216-0.01,0.646-0.015,0.79
		c-0.061,1.503-0.145,3.228-0.138,4.944c0.002,0.551-0.048,1.086-0.079,1.663c-0.031,0.583,0.144,1.188,0.076,1.739
		c-0.082,0.681,0.087,1.782-0.093,2.452c0.065,0.358,0.182,0.747-0.001,1.121c0.271,0.677,0.016,1.817,0.306,2.352
		c-0.147,0.599,0.206,1.467-0.002,2.242c0.106,0.453,0.113,1.249,0.025,1.741c0.101,0.766,0.046,1.672-0.046,2.408
		c0.031,0.103,0.104,0.168,0.162,0.243C16.316,64.813,16.582,65.332,16.443,65.676z M19.229,94.177
		c0.006-0.066,0.062-0.09,0.147-0.084c-0.082,0.146-0.038,0.115,0.044,0.149C19.485,94.302,19.297,94.257,19.229,94.177z
		 M64.315,45.611c-0.925-0.057-2.612-0.354-3.577-0.144c-0.234-0.122-0.592-0.073-0.828-0.001c0.004-0.044,0.066-0.034,0.11-0.042
		c-1.8-0.05-3.535,0.164-5.369,0.161c-0.271,0.122-0.86-0.012-0.97,0.156c-1.167-0.101-1.878,0.072-3.038,0.171
		c-0.054-1.426-0.022-2.534,0.081-4.14c-0.053,0-0.107,0-0.111,0.044c-0.08-0.009,0.033-0.132,0.107-0.119
		c-0.092-0.558,0.072-1.2,0.035-1.769c-0.002-0.052-0.077-0.08-0.077-0.071c0.01-0.315,0.208-0.646-0.005-0.903
		c0.051-0.04,0.14-0.041,0.146-0.119c0.006-0.643,0.057-0.746,0.047-1.542c2.113,0.376,4.848,0.994,7.285,1.597
		c0.586,0.143,1.163,0.26,1.709,0.375c0.18,0.039,0.342,0.174,0.497,0.203c0.179,0.035,0.603,0.102,0.915,0.224
		c0.125,0.048,0.242,0.22,0.342,0.136c0.045,0.004,0.025,0.035,0.002,0.035c0.352,0.071,0.555,0.387,0.815,0.568
		c0.255,0.175,0.427,0.4,0.631,0.686c-0.022,0.04-0.085,0.042-0.069,0.116c0.856,1.211,1.051,2.81,1.35,4.188
		C64.447,45.452,64.248,45.495,64.315,45.611z M34.391,69.634c0.059-0.195,0.239-0.049,0.369-0.166
		C34.678,69.691,34.57,69.556,34.391,69.634z M81.77,45.857c-0.474-0.019-0.978-0.019-1.481-0.017c0,0.004,0.004,0.007,0.004,0.011
		C81.311,45.866,82.035,45.869,81.77,45.857z M80.095,45.602c-0.348,0.08-0.899,0.177-1.277,0.019
		c-0.744,0.255-1.809-0.038-2.588,0.115c-0.023,0.004-0.042,0.01-0.057,0.015c0.597,0.039,2.261,0.074,3.629,0.095
		c0.162-0.001,0.324-0.003,0.486-0.004C80.257,45.725,80.173,45.666,80.095,45.602z"/>
</g>
<g>
	<path fill="#231F20" d="M3.188,134.072h2.863v10.218h5.015v2.396H3.188V134.072z"/>
	<path fill="#231F20" d="M19.616,144.458c0,0.879,0.038,1.721,0.131,2.228h-2.564l-0.168-0.917h-0.056
		c-0.599,0.729-1.534,1.123-2.62,1.123c-1.853,0-2.957-1.348-2.957-2.809c0-2.375,2.133-3.518,5.371-3.498v-0.133
		c0-0.486-0.262-1.178-1.666-1.178c-0.936,0-1.927,0.316-2.526,0.691l-0.524-1.834c0.636-0.354,1.89-0.805,3.555-0.805
		c3.05,0,4.023,1.797,4.023,3.948L19.616,144.458L19.616,144.458z M16.847,142.361c-1.497-0.019-2.657,0.337-2.657,1.44
		c0,0.729,0.486,1.085,1.123,1.085c0.711,0,1.291-0.468,1.479-1.048c0.037-0.148,0.056-0.316,0.056-0.485L16.847,142.361
		L16.847,142.361z"/>
	<path fill="#231F20" d="M24.237,134.072H27.1v10.218h5.015v2.396h-7.878V134.072z"/>
	<path fill="#231F20" d="M35.894,134.989c0,0.786-0.599,1.422-1.534,1.422c-0.898,0-1.497-0.636-1.478-1.422
		c-0.019-0.822,0.58-1.439,1.497-1.439S35.875,134.167,35.894,134.989z M32.956,146.685v-9.151H35.8v9.151H32.956z"/>
	<path fill="#231F20" d="M37.334,133.399h2.844v5.219h0.038c0.542-0.783,1.497-1.291,2.77-1.291c2.188,0,3.797,1.816,3.778,4.623
		c0,3.293-2.094,4.94-4.19,4.94c-1.066,0-2.096-0.394-2.75-1.479h-0.038l-0.112,1.272H37.26c0.037-0.601,0.075-1.703,0.075-2.733
		L37.334,133.399L37.334,133.399z M40.178,142.792c0,0.188,0.019,0.355,0.056,0.506c0.187,0.768,0.842,1.348,1.665,1.348
		c1.217,0,1.965-0.936,1.965-2.582c0-1.423-0.636-2.544-1.965-2.544c-0.767,0-1.478,0.578-1.665,1.401
		c-0.038,0.168-0.056,0.336-0.056,0.523V142.792z"/>
	<path fill="#231F20" d="M50.021,143.018c0.093,1.178,1.253,1.738,2.582,1.738c0.973,0,1.759-0.131,2.525-0.375l0.375,1.93
		c-0.937,0.374-2.078,0.58-3.312,0.58c-3.105,0-4.885-1.816-4.885-4.68c0-2.32,1.439-4.885,4.622-4.885
		c2.956,0,4.079,2.303,4.079,4.567c0,0.485-0.057,0.917-0.094,1.123L50.021,143.018L50.021,143.018z M53.371,141.07
		c0-0.692-0.3-1.853-1.609-1.853c-1.197,0-1.686,1.085-1.76,1.853H53.371z"/>
	<path fill="#231F20" d="M56.96,140.547c0-1.35-0.037-2.229-0.073-3.014h2.45l0.095,1.684h0.073
		c0.469-1.328,1.592-1.891,2.471-1.891c0.263,0,0.395,0,0.6,0.038v2.695c-0.205-0.058-0.449-0.095-0.768-0.095
		c-1.047,0-1.76,0.562-1.947,1.439c-0.035,0.188-0.055,0.412-0.055,0.639v4.641H56.96V140.547z"/>
	<path fill="#231F20" d="M66.897,135.045v2.488h2.04v2.096h-2.04v3.312c0,1.104,0.261,1.609,1.123,1.609
		c0.394,0,0.562-0.021,0.841-0.074l0.02,2.15c-0.375,0.149-1.047,0.264-1.854,0.264c-0.916,0-1.684-0.34-2.132-0.807
		c-0.522-0.541-0.786-1.42-0.786-2.711v-3.744h-1.216v-2.096h1.216v-1.721L66.897,135.045z"/>
	<path fill="#231F20" d="M77.468,144.458c0,0.879,0.037,1.721,0.132,2.228h-2.563l-0.168-0.917h-0.057
		c-0.6,0.729-1.535,1.123-2.62,1.123c-1.853,0-2.957-1.348-2.957-2.809c0-2.375,2.136-3.518,5.371-3.498v-0.133
		c0-0.486-0.263-1.178-1.666-1.178c-0.937,0-1.926,0.316-2.524,0.691l-0.523-1.834c0.636-0.354,1.889-0.805,3.554-0.805
		c3.052,0,4.022,1.797,4.022,3.948V144.458L77.468,144.458z M74.701,142.361c-1.496-0.019-2.658,0.337-2.658,1.44
		c0,0.729,0.485,1.085,1.123,1.085c0.711,0,1.291-0.468,1.479-1.048c0.037-0.148,0.058-0.316,0.058-0.485v-0.992H74.701z"/>
	<path fill="#231F20" d="M87.833,133.399v10.553c0,1.029,0.039,2.114,0.074,2.732h-2.525l-0.131-1.348h-0.037
		c-0.58,1.027-1.686,1.554-2.862,1.554c-2.172,0-3.911-1.853-3.911-4.697c-0.02-3.087,1.908-4.866,4.1-4.866
		c1.121,0,2.002,0.395,2.412,1.03h0.037v-4.958H87.833L87.833,133.399z M84.99,141.407c0-0.15-0.02-0.355-0.037-0.505
		c-0.168-0.769-0.785-1.403-1.666-1.403c-1.291,0-1.963,1.16-1.963,2.603c0,1.552,0.766,2.524,1.945,2.524
		c0.822,0,1.479-0.562,1.646-1.367c0.055-0.205,0.073-0.411,0.073-0.652L84.99,141.407L84.99,141.407z"/>
</g>
</svg>
