<?xml version="1.0" encoding="utf-8"?>
<!-- Generator: Adobe Illustrator 17.0.0, SVG Export Plug-In . SVG Version: 6.00 Build 0)  -->
<!DOCTYPE svg PUBLIC "-//W3C//DTD SVG 1.1//EN" "http://www.w3.org/Graphics/SVG/1.1/DTD/svg11.dtd">
<svg version="1.1" id="Layer_1" xmlns="http://www.w3.org/2000/svg" xmlns:xlink="http://www.w3.org/1999/xlink" x="0px" y="0px"
	 width="229px" height="153px" viewBox="0 0 229 153" enable-background="new 0 0 229 153" xml:space="preserve">
<rect x="227.75" y="8" fill="#0168AF" width="1.25" height="136.917"/>
<g>
	<g>
		<path fill="#F7AA3D" d="M82.568,19.055c-1.825-0.319-3.676-0.508-5.537-0.565c-1.123,1.229-2.167,2.53-3.127,3.895
			c-3.385,4.814-5.708,10.428-6.63,16.502c1.409,0.312,2.806,0.704,4.185,1.177c0.904-6.638,3.686-12.678,7.794-17.568
			c6.265,0.609,12.305,2.893,17.427,6.648c0.568-1.18,1.189-2.32,1.858-3.417C93.76,22.323,88.289,20.054,82.568,19.055z"/>
		<path fill="#ED7944" d="M89.025,52.304c1.323-0.616,2.67-1.187,4.041-1.712c-0.763-6.486,0.095-13.253,2.821-19.699
			c0.251-0.593,0.516-1.176,0.792-1.75c-5.121-3.755-11.162-6.039-17.427-6.648c-4.107,4.89-6.89,10.93-7.794,17.568
			c4.084,1.4,8.003,3.507,11.579,6.343C85.284,48.19,87.282,50.17,89.025,52.304z"/>
		<path fill="#E74240" d="M156.508,22.345c-1.06-1.52-2.229-2.966-3.501-4.327c-1.663,0.069-3.322,0.245-4.967,0.525
			c-5.61,0.957-11.052,3.148-15.89,6.571c0.776,1.213,1.487,2.473,2.129,3.777c5.233-3.803,11.287-5.96,17.451-6.474
			c3.914,4.791,6.525,10.569,7.51,16.728c1.238-0.425,2.485-0.785,3.736-1.08C161.995,32.392,159.77,27.023,156.508,22.345z"/>
		<path fill="#D73234" d="M138.029,50.539c1.093,0.416,2.171,0.862,3.234,1.336c4.041-5.132,9.428-9.317,15.91-11.956
			c0.685-0.279,1.374-0.536,2.066-0.774c-0.985-6.159-3.595-11.937-7.51-16.728c-6.164,0.515-12.218,2.672-17.451,6.474
			c1.989,4.043,3.31,8.5,3.794,13.246C138.364,44.989,138.34,47.802,138.029,50.539z"/>
		<path fill="#F7A83F" d="M203.004,68.441c-4.708-3.36-10.195-5.7-16.142-6.695c-0.319,1.407-0.718,2.801-1.197,4.176
			c6.504,0.994,12.408,3.793,17.19,7.867c-0.63,6.045-2.823,11.868-6.385,16.848c1.17,0.581,2.299,1.215,3.386,1.897
			c3.235-4.631,5.415-9.897,6.417-15.405c0.332-1.823,0.534-3.672,0.604-5.533C205.656,70.464,204.362,69.411,203.004,68.441z"/>
		<path fill="#ED7944" d="M173.133,83.591c0.479,1.061,0.929,2.138,1.349,3.229c6.485-0.779,13.254,0.063,19.706,2.772
			c0.777,0.326,1.537,0.676,2.282,1.046c3.562-4.98,5.755-10.804,6.385-16.848c-4.782-4.074-10.686-6.872-17.19-7.867
			c-1.448,4.157-3.629,8.137-6.566,11.75C177.29,79.898,175.287,81.872,173.133,83.591z"/>
		<path fill="#55BADA" d="M116.008,15.204c5.327,2.889,9.856,7.128,13.091,12.305c0.986-0.856,2.004-1.655,3.051-2.395
			c-3.036-4.744-7.057-8.762-11.748-11.788c-1.557-1.004-3.188-1.9-4.88-2.677c-1.513,0.694-2.981,1.486-4.397,2.369
			c-5.021,3.134-9.367,7.431-12.588,12.708c1.176,0.838,2.31,1.745,3.395,2.719C105.351,22.638,110.289,18.125,116.008,15.204z"/>
		<path fill="#248DAA" d="M110.064,38.71c1.382,2.519,2.456,5.125,3.236,7.773c0.769-0.028,1.542-0.042,2.317-0.042
			c0.49,0,0.979,0.006,1.467,0.018c1.754-6.289,5.114-12.223,10.078-17.153c0.63-0.625,1.276-1.223,1.936-1.796
			c-3.235-5.177-7.764-9.417-13.091-12.305c-5.719,2.921-10.656,7.434-14.076,13.242C105.119,31.306,107.887,34.743,110.064,38.71z"
			/>
		<path fill="#D73234" d="M110.064,38.71c-2.177-3.968-4.945-7.404-8.132-10.265c-1.085-0.974-2.219-1.881-3.395-2.719
			c-0.669,1.097-1.29,2.236-1.858,3.417c-0.276,0.574-0.542,1.157-0.792,1.75c-2.725,6.446-3.584,13.213-2.821,19.699
			c1.373-0.526,2.77-1.005,4.187-1.435c3.885-1.18,7.928-1.996,12.091-2.407c1.307-0.129,2.626-0.218,3.956-0.266
			C112.52,43.835,111.446,41.23,110.064,38.71z"/>
		<path fill="#A0C63E" d="M138.073,42.137c-0.485-4.746-1.805-9.203-3.794-13.246c-0.642-1.304-1.353-2.564-2.129-3.777
			c-1.047,0.741-2.065,1.539-3.051,2.395c-0.66,0.573-1.307,1.171-1.936,1.796c-4.964,4.93-8.324,10.864-10.078,17.153
			c1.487,0.034,2.961,0.12,4.42,0.255c4.406,0.408,8.68,1.268,12.776,2.535c1.267,0.392,2.517,0.822,3.748,1.29
			C138.34,47.802,138.364,44.989,138.073,42.137z"/>
		<path fill="#248DAA" d="M83.037,46.407c-3.575-2.837-7.495-4.943-11.579-6.343c-1.378-0.473-2.775-0.865-4.185-1.177
			c-0.193,1.271-0.324,2.562-0.391,3.87c-0.034,0.671-0.054,1.346-0.054,2.026c0,7.005,1.848,13.577,5.082,19.258
			c1.064-1.022,2.163-2.008,3.296-2.954c3.177-2.654,6.618-5.001,10.28-6.996c1.158-0.631,2.338-1.227,3.539-1.786
			C87.282,50.17,85.284,48.19,83.037,46.407z"/>
		<path fill="#A0C63E" d="M182.499,43.021c1.762,5.911,1.95,12.228,0.502,18.275c1.306,0.087,2.594,0.238,3.861,0.45
			c1.27-5.599,1.281-11.394,0.074-16.952c-0.393-1.811-0.915-3.596-1.565-5.342c-1.561-0.577-3.16-1.054-4.786-1.428
			c-5.679-1.307-11.693-1.355-17.61,0.04c0.245,1.422,0.413,2.863,0.498,4.317C169.903,40.768,176.478,41.079,182.499,43.021z"/>
		<path fill="#029D49" d="M161.935,55.705c-0.812,2.749-1.9,5.34-3.225,7.754c0.924,0.865,1.822,1.757,2.693,2.676
			c5.694-3.18,12.265-4.973,19.253-4.925c0.787,0.006,1.569,0.034,2.345,0.086c1.448-6.047,1.26-12.364-0.502-18.275
			c-6.021-1.942-12.596-2.253-19.026-0.639C163.73,46.76,163.248,51.256,161.935,55.705z"/>
		<path fill="#ED7944" d="M163.473,42.382c-0.085-1.454-0.253-2.895-0.498-4.317c-1.251,0.295-2.498,0.655-3.736,1.08
			c-0.691,0.238-1.38,0.495-2.066,0.774c-6.482,2.639-11.869,6.824-15.91,11.956c1.351,0.602,2.677,1.25,3.976,1.943
			c3.738,1.992,7.252,4.348,10.493,7.023c1.02,0.842,2.013,1.715,2.978,2.619c1.325-2.414,2.413-5.005,3.225-7.754
			C163.248,51.256,163.73,46.76,163.473,42.382z"/>
		<path fill="#55BADB" d="M183.001,61.296c-0.776-0.052-1.558-0.08-2.345-0.086c-6.988-0.049-13.559,1.744-19.253,4.925
			c1.015,1.071,1.993,2.177,2.932,3.318c2.69,3.267,5.057,6.81,7.054,10.579c0.617,1.165,1.199,2.352,1.744,3.559
			c2.154-1.718,4.158-3.692,5.967-5.918c2.936-3.613,5.117-7.594,6.566-11.75c0.479-1.375,0.878-2.769,1.197-4.176
			C185.595,61.535,184.307,61.383,183.001,61.296z"/>
		<path fill="#55BCDC" d="M211.816,114.064c1.001-1.559,1.892-3.192,2.665-4.887c-0.698-1.511-1.493-2.977-2.38-4.391
			c-3.047-4.856-7.185-9.077-12.245-12.252c-0.825,1.181-1.719,2.32-2.68,3.412c5.564,3.391,9.906,8.19,12.751,13.728
			c-2.937,5.448-7.286,10.067-12.607,13.327c0.865,0.983,1.673,1.998,2.422,3.043C204.617,122.974,208.734,118.867,211.816,114.064z
			"/>
		<path fill="#248DAA" d="M186.425,104.486c-2.519,1.359-5.121,2.412-7.764,3.173c0.018,0.616,0.028,1.234,0.028,1.855
			c0,0.572-0.008,1.141-0.023,1.709c6.291,1.776,12.22,5.16,17.136,10.149c0.525,0.532,1.03,1.076,1.518,1.63
			c5.321-3.26,9.67-7.879,12.607-13.327c-2.846-5.538-7.188-10.338-12.751-13.728C194.209,99.316,190.608,102.229,186.425,104.486z"
			/>
		<path fill="#D73234" d="M196.47,90.637c-0.744-0.37-1.504-0.719-2.282-1.046c-6.452-2.709-13.222-3.551-19.706-2.772
			c0.529,1.372,1.012,2.767,1.446,4.183c1.248,4.072,2.096,8.32,2.496,12.697c0.12,1.309,0.199,2.629,0.237,3.959
			c2.643-0.76,5.245-1.813,7.764-3.173c4.183-2.257,7.784-5.17,10.75-8.54c0.961-1.092,1.855-2.231,2.68-3.412
			C198.769,91.852,197.64,91.219,196.47,90.637z"/>
		<path fill="#A0C63E" d="M197.32,123.002c-0.488-0.554-0.993-1.098-1.518-1.63c-4.917-4.989-10.846-8.373-17.136-10.149
			c-0.04,1.486-0.131,2.959-0.272,4.418c-0.412,4.269-1.248,8.412-2.468,12.389c-0.389,1.268-0.816,2.519-1.281,3.751
			c2.738,0.305,5.551,0.322,8.403,0.024c4.61-0.482,8.947-1.75,12.893-3.655c1.312-0.633,2.58-1.337,3.801-2.106
			C198.993,125,198.185,123.984,197.32,123.002z"/>
	</g>
	<g>
		<g>
			<path fill-rule="evenodd" clip-rule="evenodd" fill="#0566A1" d="M3.275,141.036c0.49-0.445,1.049-0.835,1.45-1.35
				c0.424-0.544,0.685-0.441,1.13-0.048c0.944,0.835,2.177,0.945,3.089,0.317c0.738-0.509,0.974-1.319,0.976-2.135
				c0.02-8.64,0.015-17.28-0.005-25.921c-0.001-0.537,0.102-0.755,0.68-0.722c0.811,0.046,1.626,0.016,2.44,0.007
				c0.416-0.005,0.625,0.101,0.624,0.6c-0.015,8.486,0.012,16.973-0.028,25.459c-0.009,1.848-0.381,3.651-1.911,4.936
				c-0.442,0.372-0.997,0.608-1.492,0.918c-0.132,0.082-1.605,0.512-2.231,0.512c-2.662,0-3.745-1.3-4.427-1.846
				C3.12,141.406,3.078,141.143,3.275,141.036z"/>
			<path fill-rule="evenodd" clip-rule="evenodd" fill="#0566A1" d="M153.225,128.374c-0.25,0.277-0.384,0.4-0.488,0.544
				c-2.046,2.848-4.886,3.983-8.297,3.705c-3.879-0.317-6.653-2.37-8.282-5.842c-1.956-4.168-1.42-9.595,1.981-13.052
				c2.214-2.25,4.945-3.208,8.121-2.931c2.817,0.245,4.985,1.52,6.548,3.86c0.043,0.065,0.129,0.102,0.316,0.244
				c0.034-0.294,0.077-0.487,0.076-0.68c-0.001-5.936-0.006-11.871-0.01-17.807c0-0.835,0.023-0.857,0.843-0.857
				c0.682,0,1.364,0.027,2.044-0.005c0.566-0.027,0.778,0.176,0.778,0.759c-0.013,11.564-0.011,23.127-0.015,34.691
				c0,1.281,0.288,1.319-1.317,1.297c-0.549-0.007-1.101-0.026-1.648,0.009c-0.569,0.036-0.734-0.217-0.696-0.745
				c0.057-0.787,0.08-1.578,0.105-2.367C153.291,128.99,153.256,128.781,153.225,128.374z M145.958,129.467
				c1.365,0.007,2.648-0.308,3.835-0.99c1.668-0.958,2.711-2.415,3.224-4.231c0.591-2.092,0.522-4.177-0.41-6.172
				c-0.974-2.084-2.632-3.297-4.858-3.88c-2.481-0.648-5.624,0.266-7.197,2.287c-1.674,2.15-2.01,4.589-1.502,7.213
				C139.718,127.141,142.458,129.451,145.958,129.467z"/>
			<path fill-rule="evenodd" clip-rule="evenodd" fill="#0566A1" d="M68.769,122.951c-2.726,0-5.452,0.013-8.177-0.011
				c-0.548-0.005-0.671,0.232-0.565,0.68c0.635,2.671,2.034,4.707,4.799,5.495c3.405,0.97,6.503,0.449,9.169-2.022
				c0.118-0.109,0.503-0.11,0.625-0.004c0.594,0.519,1.158,1.076,1.69,1.66c0.091,0.099,0.049,0.465-0.062,0.58
				c-1.308,1.344-2.859,2.311-4.665,2.832c-2.081,0.601-4.214,0.704-6.327,0.308c-4.189-0.784-7.196-3.083-8.439-7.257
				c-1.275-4.283-0.476-8.189,2.727-11.41c2.366-2.38,5.314-3.26,8.649-3.001c2.488,0.194,4.642,1.089,6.394,2.86
				c1.607,1.624,2.528,3.619,2.906,5.86c0.142,0.842,0.212,1.697,0.298,2.547c0.073,0.724-0.091,0.888-0.845,0.888
				c-2.726,0.001-5.451,0-8.177,0C68.769,122.955,68.769,122.953,68.769,122.951z M67.016,120.221c0-0.002,0-0.004,0-0.007
				c2.108,0,4.216-0.018,6.323,0.012c0.568,0.008,0.815-0.188,0.655-0.718c-0.252-0.832-0.474-1.694-0.874-2.457
				c-0.779-1.482-2.053-2.419-3.669-2.87c-1.831-0.512-3.651-0.464-5.396,0.303c-2.247,0.988-3.41,2.857-3.984,5.159
				c-0.103,0.414,0.01,0.593,0.491,0.587C62.713,120.208,64.864,120.221,67.016,120.221z"/>
			<path fill-rule="evenodd" clip-rule="evenodd" fill="#0566A1" d="M137.717,102.577c-0.208,0.18-0.315,0.248-0.39,0.341
				c-1.436,1.798-3.355,2.644-5.603,2.747c-1.692,0.078-3.371-0.018-4.974-0.702c-2.739-1.169-3.821-3.711-3.544-6.419
				c0.296-2.897,2.315-4.71,4.83-5.209c1.492-0.295,3.038-0.359,4.564-0.432c1.448-0.069,2.901-0.03,4.352-0.009
				c0.506,0.007,0.724-0.162,0.694-0.686c-0.101-1.767-0.327-3.476-1.959-4.583c-0.976-0.662-2.1-0.771-3.223-0.728
				c-2.214,0.086-4.083,0.932-5.474,2.708c-0.204,0.261-0.393,0.313-0.651,0.068c-0.541-0.514-1.111-0.998-1.629-1.534
				c-0.103-0.107-0.114-0.455-0.019-0.577c1.672-2.158,3.894-3.351,6.593-3.669c1.624-0.191,3.24-0.175,4.814,0.334
				c2.456,0.794,4.118,2.43,4.748,4.924c0.333,1.322,0.431,2.729,0.452,4.101c0.058,3.802,0.012,7.606,0.029,11.409
				c0.003,0.526-0.163,0.701-0.689,0.673c-0.767-0.041-1.539-0.03-2.307-0.004c-0.488,0.017-0.729-0.042-0.635-0.653
				C137.793,104.046,137.717,103.384,137.717,102.577z M133.833,95.727c-0.005-0.053-3.241,0.078-4.819,0.38
				c-1.408,0.269-2.179,1.4-2.264,2.864c-0.08,1.372,0.623,2.597,1.857,3.125c2.107,0.901,4.236,0.828,6.313-0.059
				c1.344-0.574,2.38-1.536,2.63-3.052c0.137-0.834,0.039-1.705,0.102-2.555c0.043-0.577-0.201-0.722-0.725-0.709
				C135.897,95.745,134.864,95.727,133.833,95.727z"/>
			<path fill-rule="evenodd" clip-rule="evenodd" fill="#0566A1" d="M56.779,101.872c-0.118,0.137-0.251,0.264-0.353,0.413
				c-1.345,1.956-3.195,3.055-5.549,3.376c-2.201,0.3-4.242-0.035-6.051-1.371c-1.883-1.39-2.923-3.346-2.998-5.618
				c-0.155-4.655-0.108-9.316-0.117-13.975c0-0.164,0.278-0.463,0.438-0.47c0.921-0.045,1.845-0.018,2.769-0.022
				c0.434-0.002,0.47,0.253,0.469,0.61c-0.011,4.133-0.038,8.267,0.007,12.399c0.018,1.667,0.432,3.246,1.912,4.28
				c1.443,1.008,3.061,1.107,4.73,0.759c3.302-0.688,4.89-3.35,4.874-6.29c-0.021-3.693,0.006-7.387-0.022-11.08
				c-0.004-0.542,0.168-0.696,0.672-0.68c0.835,0.026,1.671,0.02,2.506,0.004c0.449-0.009,0.599,0.152,0.598,0.622
				c-0.017,6.595-0.019,13.191-0.003,19.787c0.001,0.563-0.189,0.738-0.724,0.718c-0.79-0.03-1.583-0.027-2.374,0
				c-0.523,0.018-0.691-0.181-0.668-0.701c0.04-0.889,0.011-1.782,0.011-2.673C56.864,101.931,56.821,101.901,56.779,101.872z"/>
			<path fill-rule="evenodd" clip-rule="evenodd" fill="#0566A1" d="M129.386,128.787c-0.189,0.143-0.318,0.198-0.382,0.295
				c-1.451,2.204-3.494,3.368-6.119,3.59c-3.063,0.259-5.577-0.685-7.33-3.284c-1.038-1.539-1.365-3.306-1.371-5.131
				c-0.014-4.154,0.004-8.309-0.013-12.464c-0.002-0.47,0.142-0.627,0.6-0.613c0.835,0.024,1.671,0.024,2.505,0.003
				c0.447-0.012,0.603,0.12,0.6,0.604c-0.022,4.155-0.037,8.31-0.003,12.464c0.012,1.458,0.371,2.837,1.511,3.877
				c1.41,1.286,3.095,1.417,4.873,1.128c3.339-0.541,5.145-3.192,5.13-6.334c-0.018-3.715,0.002-7.43-0.014-11.145
				c-0.002-0.429,0.119-0.598,0.554-0.589c0.879,0.018,1.759,0.012,2.638-0.002c0.409-0.006,0.574,0.123,0.574,0.573
				c-0.013,6.638-0.01,13.277,0.001,19.916c0.001,0.453-0.153,0.637-0.611,0.628c-0.857-0.018-1.714-0.011-2.571,0.004
				c-0.423,0.007-0.599-0.167-0.578-0.592c0.042-0.833,0.065-1.667,0.089-2.5C129.471,129.112,129.43,129.008,129.386,128.787z"/>
			<path fill-rule="evenodd" clip-rule="evenodd" fill="#0566A1" d="M102.421,101.771c-0.814,0.858-1.431,1.659-2.192,2.285
				c-2.925,2.403-8.092,2.352-10.797-0.482c-1.185-1.242-1.961-2.742-2.072-4.448c-0.145-2.232-0.116-4.477-0.133-6.717
				c-0.019-2.529,0.007-5.058-0.016-7.587c-0.004-0.468,0.141-0.631,0.598-0.62c0.835,0.021,1.672,0.021,2.506-0.002
				c0.419-0.012,0.513,0.154,0.511,0.55c-0.015,4.024-0.019,8.049-0.008,12.073c0.003,1.22,0.206,2.414,0.837,3.481
				c0.882,1.49,2.332,2.062,3.947,2.101c2.781,0.067,5.031-0.932,6.243-3.62c0.496-1.101,0.578-2.288,0.579-3.478
				c0.003-3.497,0.008-6.993-0.017-10.489c-0.003-0.485,0.175-0.621,0.607-0.615c0.835,0.011,1.671,0.008,2.506,0.004
				c0.405-0.002,0.569,0.146,0.568,0.592c-0.017,6.619-0.019,13.238-0.006,19.858c0.001,0.49-0.16,0.685-0.638,0.677
				c-0.813-0.013-1.627-0.019-2.441-0.003c-0.466,0.009-0.604-0.195-0.59-0.643C102.44,103.752,102.421,102.816,102.421,101.771z"/>
			<path fill-rule="evenodd" clip-rule="evenodd" fill="#0566A1" d="M31.917,128.8c-0.216,0.281-0.428,0.564-0.648,0.842
				c-1.405,1.776-3.234,2.765-5.486,3.024c-2.462,0.283-4.679-0.279-6.523-1.946c-0.95-0.859-1.674-1.959-1.93-3.231
				c-0.258-1.28-0.444-2.595-0.464-3.897c-0.059-3.934-0.014-7.869-0.034-11.803c-0.002-0.476,0.15-0.619,0.605-0.603
				c0.79,0.027,1.584,0.036,2.373-0.002c0.49-0.024,0.641,0.119,0.638,0.625c-0.022,3.89-0.045,7.782,0.008,11.671
				c0.014,0.994,0.171,2.027,0.488,2.967c0.694,2.058,2.377,2.884,4.402,2.936c2.365,0.061,4.405-0.737,5.733-2.837
				c0.698-1.102,0.966-2.343,0.968-3.639c0.005-3.671,0.014-7.342-0.015-11.012c-0.004-0.564,0.168-0.734,0.704-0.713
				c0.79,0.03,1.582,0.015,2.374,0.004c0.436-0.006,0.604,0.14,0.603,0.62c-0.016,6.594-0.014,13.188,0.002,19.783
				c0.001,0.505-0.138,0.736-0.663,0.722c-0.813-0.022-1.627-0.021-2.44-0.008c-0.426,0.007-0.584-0.166-0.575-0.591
				c0.02-0.936,0.006-1.872,0.006-2.808C32.001,128.868,31.959,128.834,31.917,128.8z"/>
			<path fill-rule="evenodd" clip-rule="evenodd" fill="#0566A1" d="M83.217,114.959c0.254-0.292,0.438-0.467,0.58-0.672
				c1.898-2.743,4.557-3.764,7.806-3.471c3.168,0.286,5.297,1.947,6.365,4.914c0.307,0.854,0.514,1.792,0.525,2.695
				c0.054,4.419,0.02,8.839,0.035,13.258c0.002,0.494-0.153,0.655-0.652,0.626c-0.767-0.044-1.54-0.039-2.307-0.004
				c-0.493,0.023-0.658-0.146-0.657-0.64c0.015-4.046,0.032-8.091-0.001-12.137c-0.01-1.259-0.288-2.492-1.013-3.558
				c-0.861-1.267-2.187-1.749-3.622-1.857c-1.605-0.12-3.15,0.2-4.487,1.172c-1.738,1.265-2.447,3.058-2.463,5.137
				c-0.028,3.694-0.018,7.388,0.009,11.081c0.004,0.606-0.169,0.838-0.784,0.804c-0.745-0.04-1.495-0.024-2.242-0.004
				c-0.468,0.013-0.66-0.139-0.659-0.645c0.015-6.618,0.016-13.236,0.002-19.854c-0.001-0.467,0.141-0.632,0.594-0.621
				c0.813,0.018,1.627,0.019,2.44,0c0.467-0.01,0.691,0.132,0.646,0.647c-0.075,0.851-0.105,1.706-0.148,2.56
				C83.177,114.533,83.199,114.676,83.217,114.959z"/>
			<path fill-rule="evenodd" clip-rule="evenodd" fill="#0566A1" d="M78.315,100.032c0.023,0.776,0.238,1.57,0.952,2.081
				c0.939,0.672,2.572,0.573,3.609-0.316c0.522-0.447,0.826-0.394,1.203,0.126c0.334,0.46,0.719,0.885,1.103,1.305
				c0.265,0.29,0.251,0.498-0.044,0.769c-0.913,0.837-1.973,1.344-3.183,1.601c-1.39,0.296-2.737,0.237-4.064-0.275
				c-1.436-0.555-2.369-1.632-2.763-3.057c-0.317-1.148-0.476-2.371-0.496-3.565c-0.059-3.582-0.027-7.166,0.001-10.749
				c0.004-0.53-0.213-0.645-0.66-0.635c-0.659,0.014-1.319-0.012-1.978,0.013c-0.489,0.018-0.67-0.187-0.654-0.665
				c0.021-0.637,0.023-1.276-0.009-1.912c-0.021-0.425,0.189-0.546,0.55-0.545c0.703,0.002,1.407-0.004,2.11,0.014
				c0.453,0.012,0.651-0.1,0.646-0.635c-0.033-3.209-0.009-6.419-0.032-9.628c-0.003-0.475,0.147-0.621,0.602-0.607
				c0.813,0.025,1.628,0.032,2.439-0.003c0.484-0.021,0.581,0.162,0.578,0.615c-0.02,3.209-0.002,6.418-0.021,9.628
				c-0.003,0.479,0.099,0.652,0.619,0.638c1.538-0.04,3.077-0.007,4.616-0.026c0.489-0.006,0.733,0.11,0.684,0.67
				c-0.053,0.611-0.028,1.23-0.005,1.845c0.017,0.458-0.166,0.618-0.621,0.612c-1.56-0.021-3.121,0.007-4.681-0.025
				c-0.473-0.01-0.614,0.139-0.61,0.598c0.018,1.912,0.008,3.825,0.008,5.737C78.239,93.642,78.253,97.904,78.315,100.032z"/>
			<path fill-rule="evenodd" clip-rule="evenodd" fill="#0566A1" d="M36.551,89.85c-0.129-0.223-0.214-0.468-0.377-0.64
				c-1.859-1.959-4.153-2.48-6.74-2.006c-3.651,0.668-5.608,3.937-5.637,7.333c-0.023,2.666,0.719,4.997,2.929,6.64
				c1.885,1.4,4.035,1.588,6.273,1.085c1.436-0.322,2.625-1.074,3.618-2.149c0.252-0.273,0.496-0.293,0.791-0.023
				c0.55,0.504,1.122,0.985,1.697,1.46c0.3,0.247,0.335,0.449,0.056,0.758c-1.721,1.903-3.832,3.06-6.398,3.264
				c-1.154,0.092-2.336,0.135-3.479-0.009c-3.172-0.397-5.687-1.967-7.458-4.628c-1.96-2.944-2.315-6.192-1.325-9.517
				c0.972-3.265,3.111-5.594,6.323-6.86c2.527-0.996,5.104-1.009,7.684-0.277c1.795,0.509,3.268,1.571,4.485,2.973
				c0.098,0.113,0.051,0.519-0.072,0.629C38.219,88.512,37.476,89.092,36.551,89.85z"/>
			<path fill-rule="evenodd" clip-rule="evenodd" fill="#0566A1" d="M47.17,126.328c0.578-1.47,1.067-2.848,1.656-4.182
				c1.209-2.743,2.474-5.461,3.711-8.192c0.297-0.656,0.6-1.312,0.848-1.987c0.208-0.565,0.51-0.832,1.159-0.79
				c0.953,0.063,1.914,0.016,3.006,0.016c-0.536,1.163-1.001,2.188-1.48,3.207c-1.236,2.632-2.476,5.263-3.717,7.893
				c-1.26,2.672-2.525,5.341-3.784,8.013c-0.279,0.593-0.516,1.207-0.829,1.781c-0.13,0.238-0.403,0.541-0.62,0.548
				c-0.217,0.007-0.534-0.273-0.653-0.506c-0.741-1.461-1.448-2.94-2.148-4.422c-0.747-1.581-1.462-3.177-2.209-4.758
				c-1.15-2.433-2.313-4.859-3.475-7.286c-0.686-1.434-1.38-2.865-2.101-4.36c0.168-0.045,0.301-0.11,0.435-0.111
				c1.011-0.008,2.022,0.004,3.033-0.007c0.396-0.004,0.616,0.129,0.795,0.52c1.689,3.701,3.424,7.38,5.104,11.085
				c0.432,0.952,0.717,1.97,1.069,2.957C47.034,125.92,47.091,126.095,47.17,126.328z"/>
			<path fill-rule="evenodd" clip-rule="evenodd" fill="#0566A1" d="M106.326,126.939c0.013,0.523,0.222,1.074,0.461,1.553
				c0.664,1.33,2.77,1.209,3.921,0.413c0.871-0.602,0.88-0.594,1.571,0.217c0.242,0.284,0.465,0.584,0.703,0.871
				c0.538,0.648,0.541,0.648-0.104,1.208c-2.154,1.87-6.307,2.123-8.297,0.288c-1.095-1.01-1.611-2.29-1.8-3.711
				c-0.121-0.911-0.143-1.84-0.148-2.761c-0.015-3.342-0.019-6.685,0.011-10.027c0.005-0.586-0.222-0.728-0.732-0.709
				c-0.593,0.022-1.189-0.02-1.78,0.024c-0.621,0.045-0.828-0.215-0.789-0.808c0.036-0.547,0.051-1.102,0.002-1.647
				c-0.051-0.563,0.208-0.683,0.691-0.667c0.681,0.023,1.363,0.003,2.045,0.015c0.419,0.007,0.574-0.153,0.556-0.594
				c-0.037-0.944-0.01-1.891-0.017-2.836c-0.003-0.458,0.165-0.679,0.671-0.65c0.701,0.04,1.412,0.066,2.109-0.002
				c0.711-0.069,0.865,0.222,0.831,0.86c-0.046,0.877,0.011,1.759-0.024,2.638c-0.019,0.478,0.154,0.6,0.609,0.592
				c1.495-0.026,2.991,0.009,4.485-0.026c0.601-0.014,0.908,0.102,0.825,0.794c-0.065,0.542-0.034,1.099,0.001,1.647
				c0.033,0.519-0.165,0.698-0.682,0.688c-1.495-0.027-2.991,0.012-4.485-0.033c-0.579-0.017-0.768,0.141-0.757,0.732
				c0.034,1.847,0.012,3.694,0.012,5.541C106.247,120.548,106.275,124.81,106.326,126.939z"/>
			<path fill-rule="evenodd" clip-rule="evenodd" fill="#0566A1" d="M68.846,89.176c0,5.168-0.005,10.335,0.009,15.503
				c0.001,0.481-0.13,0.68-0.635,0.66c-0.812-0.031-1.627-0.021-2.44,0c-0.446,0.012-0.629-0.141-0.629-0.609
				c0.009-10.313,0.011-20.627-0.001-30.94c-0.001-0.588,0.21-0.77,0.779-0.735c0.723,0.044,1.453,0.05,2.175,0.001
				c0.593-0.04,0.759,0.182,0.757,0.75c-0.015,5.124-0.009,10.247-0.009,15.371C68.851,89.176,68.849,89.176,68.846,89.176z"/>
			<path fill-rule="evenodd" clip-rule="evenodd" fill="#0566A1" d="M114.007,87.765c0.983-1.882,2.322-3.225,4.326-3.711
				c1.748-0.424,3.492-0.302,5.101,0.62c0.124,0.071,0.247,0.366,0.197,0.482c-0.396,0.922-0.832,1.826-1.262,2.733
				c-0.024,0.05-0.102,0.075-0.139,0.1c-1.882-0.957-3.747-1.076-5.574,0.055c-1.47,0.91-2.199,2.355-2.381,3.993
				c-0.205,1.849-0.229,3.721-0.261,5.584c-0.039,2.33-0.019,4.661,0.006,6.992c0.006,0.548-0.162,0.745-0.722,0.715
				c-0.767-0.042-1.539-0.029-2.307,0.009c-0.445,0.023-0.578-0.137-0.578-0.563c0.007-6.685,0.007-13.369-0.004-20.054
				c-0.001-0.418,0.157-0.53,0.546-0.521c0.835,0.02,1.671,0.014,2.506,0c0.426-0.007,0.585,0.155,0.553,0.593
				c-0.06,0.83-0.079,1.664-0.101,2.496C113.911,87.448,113.975,87.607,114.007,87.765z"/>
			<path fill-rule="evenodd" clip-rule="evenodd" fill="#0566A1" d="M14.344,102.69c-0.007,1.481-1.095,2.562-2.58,2.561
				c-1.544-0.001-2.549-1.076-2.537-2.711c0.01-1.363,1.14-2.414,2.593-2.412C13.222,100.129,14.35,101.274,14.344,102.69z"/>
		</g>
		<g>
			<polygon fill="#0566A1" points="110.473,71.759 112.931,71.759 112.931,79.092 113.928,79.092 113.928,71.759 116.323,71.759 
				116.323,70.965 110.473,70.965 			"/>
			<rect x="129.94" y="70.957" fill="#0566A1" width="0.997" height="8.135"/>
			<polygon fill="#0566A1" points="118.183,70.957 117.186,70.957 117.186,70.965 117.186,71.962 117.186,75.365 117.186,76.362 
				117.186,78.107 117.186,79.092 117.186,79.105 122.169,79.105 122.169,78.107 118.183,78.107 118.183,76.362 121.71,76.362 
				121.71,75.365 118.183,75.365 118.183,71.962 122.169,71.962 122.169,70.965 118.183,70.965 			"/>
			<polygon fill="#0566A1" points="156.198,71.962 156.198,70.965 152.211,70.965 152.211,70.957 151.214,70.957 151.214,70.965 
				151.214,71.962 151.214,75.365 151.214,76.362 151.214,78.107 151.214,79.092 151.214,79.105 156.198,79.105 156.198,78.107 
				152.211,78.107 152.211,76.362 155.738,76.362 155.738,75.365 152.211,75.365 152.211,71.962 			"/>
			<rect x="103.097" y="70.957" fill="#0566A1" width="0.997" height="8.135"/>
			<rect x="92.621" y="70.957" fill="#0566A1" width="0.997" height="8.135"/>
			<polygon fill="#0566A1" points="90.137,72.004 87.2,75.354 84.349,72.103 83.352,70.966 83.352,72.478 83.352,79.092 
				84.349,79.092 84.349,73.615 86.537,76.11 87.2,76.867 87.863,76.11 90.137,73.517 90.137,79.092 91.134,79.092 91.134,72.379 
				91.134,70.957 91.056,70.957 			"/>
			<polygon fill="#0566A1" points="100.534,76.518 96.258,72.017 95.261,70.968 95.261,72.416 95.261,79.092 96.258,79.092 
				96.258,73.465 100.534,77.965 101.531,79.014 101.531,77.567 101.531,70.957 100.534,70.957 			"/>
			<polygon fill="#0566A1" points="150.498,88.065 149.999,89.01 149.5,88.065 147.62,84.5 146.492,84.5 149.435,90.079 
				149.5,90.202 149.5,91.211 149.5,92.627 150.498,92.627 150.498,91.211 150.498,90.202 150.563,90.079 153.506,84.5 
				152.378,84.5 			"/>
			<path fill="#0566A1" d="M136.148,70.837c-2.296,0-4.156,1.848-4.156,4.127c0,2.279,1.861,4.127,4.156,4.127
				c2.296,0,4.156-1.848,4.156-4.127C140.305,72.685,138.444,70.837,136.148,70.837z M136.148,78.184
				c-1.731,0-3.133-1.441-3.133-3.22c0-1.778,1.403-3.22,3.133-3.22c1.731,0,3.133,1.441,3.133,3.22
				C139.282,76.742,137.879,78.184,136.148,78.184z"/>
			<path fill="#0566A1" d="M128.736,73.954c0-1.654-1.483-2.995-3.312-2.995v0.006h-1.02h-0.887h-0.11v8.127h0.997v-2.142h1.02v0
				c0.242,0,0.478-0.025,0.706-0.07l1.64,2.225h1.239l-1.899-2.576C128.082,76.007,128.736,75.051,128.736,73.954z M125.424,76.004
				L125.424,76.004l-1.02-0.001v-4.105h1.02v0.005c1.252,0,2.267,0.918,2.267,2.05C127.691,75.086,126.676,76.004,125.424,76.004z"
				/>
			<path fill="#0566A1" d="M149.999,75.032c0-2.242-1.669-4.059-3.727-4.059v-0.019h-2.546v0.003v0.994v6.153v0.988v0.01h2.546
				v-0.01C148.331,79.092,149.999,77.274,149.999,75.032z M146.272,78.114v-0.01h-1.549v-6.153h1.549V71.95
				c1.563,0,2.83,1.38,2.83,3.082C149.102,76.734,147.835,78.114,146.272,78.114z"/>
			<path fill="#0566A1" d="M109.174,74.964l-2.383-1.208c-0.256-0.202-0.42-0.516-0.42-0.867c0-0.611,0.495-1.106,1.106-1.106
				c0,0,0.637-0.058,1.654,0.759l0.702-0.53c0,0-0.512-1.066-2.499-1.066c-1.069,0-1.935,0.866-1.935,1.935
				c0,0.615,0.092,1.151,0.735,1.518l2.566,1.411c0.36,0.243,0.596,0.654,0.596,1.121c0,0.747-0.605,1.352-1.352,1.352
				c0,0-1.679,0.262-2.281-1.271l-0.726,0.379c0,0,0.585,1.738,2.962,1.738c1.258,0,2.277-1.02,2.277-2.277
				C110.178,76.066,109.977,75.456,109.174,74.964z"/>
		</g>
	</g>
</g>
</svg>
